<svg width="505" height="85" viewBox="0 0 505 85" fill="none" xmlns="http://www.w3.org/2000/svg">
<g clip-path="url(#clip0)">
<path d="M53.7039 64.0738C53.7039 67.7608 53.9036 73.0421 54.5025 75.1348H41.1263C41.4258 73.1418 41.7253 67.7608 41.7253 64.0738V36.4712C33.0407 40.8557 22.4596 45.2403 12.677 47.9308L6.58789 37.5673C21.3616 34.3786 35.5363 28.1008 45.0194 22.3212C53.5043 17.0398 62.2886 9.46653 67.0801 3.28833L76.1639 11.4595C69.7753 17.837 62.1888 24.2145 53.8037 29.5955V64.0738H53.7039Z" fill="#EDA421"/>
<path d="M95.7295 41.055C99.6226 37.1687 106.211 28.8979 111.901 22.0222C116.992 16.0433 121.484 15.4454 128.471 21.225C134.161 26.0081 140.45 32.6845 145.74 38.3645C151.43 44.5427 160.414 54.1089 166.503 61.0843L157.42 70.8498C152.029 63.9741 144.343 54.6072 139.352 48.7279C134.161 42.4501 126.974 34.6775 123.78 31.987C120.785 29.4958 119.387 29.4958 116.892 32.4852C113.797 36.8698 107.708 45.2402 104.214 49.8241C102.318 52.4149 100.222 55.504 98.824 57.6963L88.8418 47.4325C91.3373 45.3399 93.234 43.6459 95.7295 41.055ZM153.626 26.5064L146.04 29.7947C143.544 24.5134 141.448 20.4278 138.354 16.0433L145.74 13.0538C148.036 16.5415 151.73 22.6201 153.626 26.5064ZM165.206 21.5239L157.819 25.1113C155.124 19.8299 152.828 15.9436 149.733 11.6588L157.02 8.37036C159.416 11.7584 163.209 17.7373 165.206 21.5239Z" fill="#EDA421"/>
<path d="M212.42 52.4151C226.795 43.945 237.875 30.9907 243.166 19.6308L249.754 31.489C243.365 42.8489 232.085 54.5077 218.51 62.6789C210.025 67.8606 199.044 72.5441 187.166 74.537L180.078 63.3764C193.255 61.6824 204.235 57.2979 212.42 52.4151ZM212.42 25.1115L203.836 33.9802C199.444 29.2967 188.862 20.0294 182.674 15.7445L190.659 7.27441C196.549 11.2603 207.529 20.0294 212.42 25.1115Z" fill="#EDA421"/>
<path d="M323.324 52.0165C314.639 47.4327 301.962 42.5499 292.878 39.4608V63.2768C292.878 65.768 293.277 71.6472 293.677 75.0353H280.5C280.999 71.7469 281.299 66.6648 281.299 63.2768V14.9473C281.299 11.9579 280.999 7.673 280.5 4.7832H293.677C293.377 7.77265 292.878 11.4596 292.878 14.9473V27.3037C304.158 30.5921 320.429 36.571 328.215 40.3576L323.324 52.0165Z" fill="#EDA421"/>
<path d="M341.99 13.9507H376.529V21.9226H341.99V13.9507ZM372.935 74.3376H354.568V77.626H345.883V48.8276H373.035V74.3376H372.935ZM346.083 25.6096H373.235V33.2825H346.083V25.6096ZM346.083 37.1688H373.235V44.6424H346.083V37.1688ZM373.434 10.1641H346.582V2.59082H373.434V10.1641ZM354.568 56.7995V66.4654H364.151V56.7995H354.568ZM406.974 68.558C410.768 68.558 411.367 66.6647 411.966 56.102C414.162 57.6963 418.554 59.3903 421.249 59.9882C419.951 73.939 417.256 78.0246 407.773 78.0246H393.798C383.317 78.0246 380.022 75.2344 380.022 64.4724V31.3892H406.675V13.7514H379.823V4.18519H416.757V45.041H406.675V40.8558H390.304V64.3728C390.304 67.9601 391.003 68.4583 394.996 68.4583H406.974V68.558Z" fill="#EDA421"/>
<path d="M505 55.3048H496.216V69.9531H486.034V66.4654H470.861V69.0563C470.861 74.0387 469.663 76.0317 466.369 77.5264C463.174 78.8218 458.583 78.9214 451.395 78.9214C450.896 76.5299 449.399 73.1418 448.101 70.9496C452.194 71.1489 457.185 71.1489 458.483 71.1489C460.08 71.0492 460.579 70.551 460.579 69.0563V66.4654H434.925V59.1911H460.579V55.2052H427.139V47.5322H460.579V43.9449H435.624V37.1688H460.579V33.4818H437.72V16.8406H460.579V13.3529H429.035V5.38101H460.579V0H470.761V5.48066H503.003V13.4525H470.761V16.9402H494.718V33.6811H470.761V37.3681H496.216V47.7315H505V55.3048ZM460.579 27.204V23.1184H447.303V27.204H460.579ZM470.761 23.2181V27.3036H484.437V23.2181H470.761ZM470.761 47.6319H485.934V44.0445H470.761V47.6319ZM485.934 55.3048H470.761V59.2907H485.934V55.3048Z" fill="#EDA421"/>
<path d="M48.7137 69.0562C48.7137 72.7432 48.9133 78.0246 49.5123 80.1172H36.1361C36.4356 78.1242 36.735 72.7432 36.735 69.0562V41.4536C28.0505 45.8382 17.4694 50.2227 7.6868 52.9132L1.59766 42.5498C16.3713 39.361 30.5461 33.0832 40.0292 27.3036C48.514 22.0222 57.2984 14.4489 62.0898 8.27075L71.1737 16.4419C64.785 22.8194 57.1986 29.1969 48.8135 34.5779V69.0562H48.7137Z" fill="#FCFCFC" stroke="#262626" stroke-width="2"/>
<path d="M90.7393 46.0374C94.6324 42.1511 101.221 33.8803 106.91 27.0046C112.001 21.0257 116.493 20.4278 123.481 26.2074C129.171 30.9905 135.46 37.667 140.75 43.3469C146.44 49.5251 155.424 59.0914 161.513 66.0667L152.429 75.8323C147.039 68.9565 139.353 59.5896 134.362 53.7103C129.171 47.4325 121.984 39.6599 118.789 36.9694C115.795 34.4782 114.397 34.4782 111.902 37.4677C108.807 41.8522 102.718 50.2227 99.2242 54.8065C97.3275 57.3973 95.2313 60.4864 93.8338 62.6787L83.8516 52.4149C86.3471 50.3223 88.2437 48.6283 90.7393 46.0374ZM148.636 31.4888L141.05 34.7772C138.554 29.4958 136.458 25.4102 133.363 21.0257L140.75 18.0363C143.046 21.5239 146.739 27.6025 148.636 31.4888ZM160.215 26.5064L152.829 30.0937C150.133 24.8123 147.838 20.9261 144.743 16.6412L152.03 13.3528C154.426 16.7408 158.219 22.7197 160.215 26.5064Z" fill="#FCFCFC" stroke="#262626" stroke-width="2"/>
<path d="M207.43 57.3975C221.805 48.9274 232.885 35.9731 238.175 24.6132L244.764 36.4714C238.375 47.8313 227.095 59.4901 213.519 67.6613C205.035 72.843 194.054 77.5265 182.175 79.5194L175.088 68.3588C188.264 66.6648 199.245 62.2803 207.43 57.3975ZM207.43 30.0939L198.846 38.9626C194.453 34.2791 183.872 25.0118 177.683 20.7269L185.669 12.2568C191.559 16.2428 202.539 25.0118 207.43 30.0939Z" fill="#FCFCFC" stroke="#262626" stroke-width="2"/>
<path d="M318.333 56.9989C309.649 52.4151 296.972 47.5323 287.888 44.4432V68.2592C287.888 70.7504 288.287 76.6296 288.686 80.0177H275.51C276.009 76.7293 276.308 71.6472 276.308 68.2592V19.9298C276.308 16.9403 276.009 12.6554 275.51 9.76562H288.686C288.387 12.7551 287.888 16.4421 287.888 19.9298V32.2861C299.168 35.5745 315.439 41.5534 323.225 45.3401L318.333 56.9989Z" fill="#FCFCFC" stroke="#262626" stroke-width="2"/>
<path d="M337 18.9331H371.538V26.905H337V18.9331ZM367.945 79.32H349.578V82.6084H340.893V53.8101H368.045V79.32H367.945ZM341.093 30.592H368.244V38.2649H341.093V30.592ZM341.093 42.1512H368.244V49.6248H341.093V42.1512ZM368.444 15.1465H341.592V7.57324H368.444V15.1465ZM349.578 61.7819V71.4478H359.16V61.7819H349.578ZM401.984 73.5404C405.777 73.5404 406.376 71.6471 406.975 61.0844C409.171 62.6787 413.564 64.3728 416.259 64.9707C414.961 78.9214 412.266 83.007 402.783 83.007H388.808C378.326 83.007 375.032 80.2168 375.032 69.4548V36.3716H401.685V18.7338H374.833V9.16761H411.767V50.0234H401.685V45.8382H385.314V69.3552C385.314 72.9425 386.013 73.4408 390.006 73.4408H401.984V73.5404Z" fill="#FCFCFC" stroke="#262626" stroke-width="2"/>
<path d="M500.01 60.2872H491.225V74.9355H481.043V71.4478H465.871V74.0387C465.871 79.0211 464.673 81.0141 461.379 82.5088C458.184 83.8042 453.592 83.9039 446.405 83.9039C445.906 81.5123 444.409 78.1243 443.111 75.932C447.204 76.1313 452.195 76.1313 453.493 76.1313C455.09 76.0317 455.589 75.5334 455.589 74.0387V71.4478H429.935V64.1735H455.589V60.1876H422.148V52.5147H455.589V48.9273H430.633V42.1512H455.589V38.4642H432.73V21.823H455.589V18.3353H424.045V10.3634H455.589V4.98242H465.771V10.4631H498.013V18.4349H465.771V21.9226H489.728V38.6635H465.771V42.3505H491.225V52.714H500.01V60.2872ZM455.589 32.1864V28.1008H442.313V32.1864H455.589ZM465.771 28.2005V32.2861H479.446V28.2005H465.771ZM465.771 52.6143H480.944V49.027H465.771V52.6143ZM480.944 60.2872H465.771V64.2732H480.944V60.2872Z" fill="#FCFCFC" stroke="#262626" stroke-width="2"/>
</g>
<defs>
<clipPath id="clip0">
<rect width="505" height="85" fill="white"/>
</clipPath>
</defs>
</svg>
