<svg width="510" height="82" viewBox="0 0 510 82" fill="none" xmlns="http://www.w3.org/2000/svg">
<g clip-path="url(#clip0)">
<path d="M33.586 35.9562C39.0838 34.5579 44.6816 33.8587 49.1799 33.8587C61.675 33.8587 71.5711 40.5506 71.5711 51.7369C71.5711 61.3252 66.573 68.6163 53.6781 71.8124C49.8796 72.6115 46.181 73.011 42.9823 73.1109L39.1838 62.7235C42.8823 62.7235 46.381 62.6236 49.1799 62.1243C55.7773 60.9257 60.9752 57.6297 60.9752 51.7369C60.9752 46.2436 56.0772 43.0475 48.9799 43.0475C43.9819 43.0475 38.684 43.8465 33.6859 45.2448C33.8859 51.7369 34.0858 58.0293 34.0858 60.8258C34.0858 70.9135 30.3872 73.6102 25.0893 73.6102C17.0924 73.6102 5.79688 66.8185 5.79688 58.1291C5.79688 50.9379 14.0936 43.6468 24.0897 39.352C23.9897 37.4543 23.9897 35.5567 23.9897 33.659V26.8673C22.3904 26.9671 20.9909 27.067 19.5915 27.067C15.8929 27.067 11.7945 26.9671 8.19593 26.6675L7.99601 16.7796C12.7941 17.3788 16.2928 17.4787 19.2916 17.4787C20.791 17.4787 22.2904 17.3788 23.9897 17.2789C24.0897 14.3825 24.0897 11.9854 24.0897 10.5871C24.0897 8.88918 23.7898 4.89405 23.4899 3.39587H34.9854C34.7855 4.89405 34.4856 8.38978 34.2857 10.4872C34.1857 11.9854 34.0858 13.983 34.0858 15.9805C39.3837 15.2814 44.7816 14.1827 49.0799 12.9842L49.2798 23.1718C44.6816 24.2704 39.0838 25.0694 33.6859 25.7686C33.586 28.2655 33.586 30.6626 33.586 33.0597V35.9562ZM24.6895 58.7284C24.6895 56.631 24.5895 52.9355 24.4895 48.7406C19.4915 51.3374 16.1928 54.6334 16.1928 57.5299C16.1928 60.0268 19.9913 62.324 22.0905 62.324C23.4899 62.324 24.6895 61.525 24.6895 58.7284ZM58.1763 11.8855C64.4739 14.8819 73.8702 20.2753 78.1685 23.2716L73.2704 31.6614C69.3719 28.2655 58.7761 22.2729 53.6781 19.8758L58.1763 11.8855Z" fill="#F4E41C"/>
<path d="M161.936 22.6723C157.038 22.4726 149.341 22.2728 138.345 22.2728C138.445 26.3678 138.445 30.8624 138.445 34.3581C140.544 37.3544 141.444 41.3496 141.444 45.6443C141.444 56.2314 135.146 69.715 115.254 75.3082L106.658 66.6187C114.854 64.9208 122.051 62.2241 126.55 57.3301C125.35 57.5298 124.151 57.7296 122.851 57.7296C116.554 57.7296 108.757 52.7357 108.757 42.7479C108.757 33.5591 116.154 27.5664 125.05 27.5664C126.25 27.5664 127.249 27.6663 128.249 27.7661L128.149 22.3727C115.854 22.5725 103.259 23.0719 93.1628 23.5712L92.9629 13.6833C102.259 13.6833 117.053 13.2838 128.049 13.084C128.049 12.0853 128.049 11.1863 127.949 10.5871C127.749 7.99025 127.549 4.79414 127.249 3.49573H139.045C138.845 4.79414 138.545 9.18879 138.445 10.4872C138.445 11.1863 138.345 11.9854 138.345 12.9842C146.542 12.9842 157.638 12.8843 161.936 12.9842V22.6723ZM124.85 48.6407C128.249 48.6407 131.248 46.0438 130.148 39.0524C128.949 37.0548 127.149 36.1559 124.85 36.1559C121.752 36.1559 118.553 38.2533 118.553 42.5481C118.553 46.3435 121.652 48.6407 124.85 48.6407Z" fill="#F4E41C"/>
<path d="M248.301 22.6723C243.403 22.4726 235.706 22.2728 224.71 22.2728C224.81 26.3678 224.81 30.8624 224.81 34.3581C226.909 37.3544 227.809 41.3496 227.809 45.6443C227.809 56.2314 221.512 69.715 201.619 75.3082L193.023 66.6187C201.22 64.9208 208.417 62.2241 212.915 57.3301C211.715 57.5298 210.516 57.7296 209.216 57.7296C202.919 57.7296 195.122 52.7357 195.122 42.7479C195.122 33.5591 202.519 27.5664 211.416 27.5664C212.615 27.5664 213.615 27.6663 214.614 27.7661L214.514 22.3727C202.219 22.5725 189.624 23.0719 179.528 23.5712L179.328 13.6833C188.624 13.6833 203.419 13.2838 214.414 13.084C214.414 12.0853 214.414 11.1863 214.314 10.5871C214.114 7.99025 213.915 4.79414 213.615 3.49573H225.41C225.21 4.79414 224.91 9.18879 224.81 10.4872C224.81 11.1863 224.71 11.9854 224.71 12.9842C232.907 12.9842 244.003 12.8843 248.301 12.9842V22.6723ZM211.216 48.6407C214.614 48.6407 217.613 46.0438 216.514 39.0524C215.314 37.0548 213.515 36.1559 211.216 36.1559C208.117 36.1559 204.918 38.2533 204.918 42.5481C204.918 46.3435 208.017 48.6407 211.216 48.6407Z" fill="#F4E41C"/>
<path d="M312.876 16.7796C325.671 19.676 334.267 29.9635 334.267 44.2461C334.267 61.525 321.972 71.4129 304.879 73.9099L298.581 64.5214C316.474 62.9233 323.472 53.8344 323.472 43.6468C323.472 34.5579 318.573 27.9659 310.277 25.7686C307.478 35.257 303.979 44.5457 299.281 51.6371C300.78 53.335 302.28 55.0329 303.679 56.5311L295.582 63.0232C294.583 61.9245 293.583 60.9257 292.784 59.8271C287.286 65.7199 282.787 68.5165 276.79 68.5165C270.092 68.5165 263.795 62.7235 263.795 52.2363C263.795 42.8478 268.493 32.9598 275.79 26.4678C275.09 24.3703 274.291 22.0731 273.691 19.8758C272.791 16.8795 271.792 14.3825 270.392 11.3862L281.088 8.09017C281.588 10.687 282.288 13.3837 282.887 15.7808C283.287 17.3788 283.787 19.0768 284.387 20.7747C290.584 17.5786 296.582 16.1803 302.78 15.8807C303.08 14.4824 303.379 13.184 303.579 11.9854C303.979 9.58834 304.279 6.19249 304.179 4.2948L315.475 5.39346C314.775 7.59078 314.075 11.5859 313.575 13.5835L312.876 16.7796ZM286.986 51.7369C284.387 47.8417 281.788 42.2485 279.389 36.1559C275.59 40.6505 273.491 46.4434 273.491 51.4373C273.491 55.3326 275.091 57.9294 278.089 57.9294C280.988 57.8295 283.987 55.4324 286.986 51.7369ZM287.386 29.7637C289.185 34.7577 291.284 39.4519 293.183 42.648C296.082 37.4544 298.481 31.2619 300.381 25.2692C295.482 25.7686 291.184 27.4665 287.386 29.7637Z" fill="#F4E41C"/>
<path d="M347.264 13.5834H380.95V21.274H347.264V13.5834ZM377.352 72.4117H359.459V75.6078H350.962V47.542H377.352V72.4117ZM351.262 24.9695H377.652V32.4604H351.262V24.9695ZM351.262 36.2558H377.652V43.5469H351.262V36.2558ZM377.852 9.98779H351.662V2.5968H377.852V9.98779ZM359.459 55.3325V64.8209H368.855V55.3325H359.459ZM410.539 66.8185C414.237 66.8185 414.837 64.9208 415.437 54.6333C417.536 56.2314 421.834 57.8294 424.533 58.4287C423.334 72.112 420.635 76.0073 411.339 76.0073H397.744C387.548 76.0073 384.349 73.3106 384.349 62.8234V30.5627H410.339V13.3836H384.149V4.09497H420.135V43.8465H410.339V39.8514H394.345V62.8234C394.345 66.3191 395.045 66.8185 398.843 66.8185H410.539Z" fill="#F4E41C"/>
<path d="M509.999 53.9342H501.403V68.2168H491.407V64.821H476.613V67.4178C476.613 72.3118 475.413 74.2095 472.214 75.6078C469.116 76.8063 464.617 77.0061 457.62 77.0061C457.12 74.7089 455.621 71.313 454.421 69.3155C458.32 69.5152 463.218 69.5152 464.517 69.5152C466.117 69.4153 466.616 68.916 466.616 67.4178V64.821H441.626V57.7296H466.616V53.9342H434.029V46.4434H466.816V42.9476H442.426V36.3557H466.816V32.76H444.525V16.4799H466.816V13.084H436.128V5.29354H466.816V0H476.813V5.29354H508.2V12.9842H476.813V16.38H500.203V32.6602H476.813V36.2558H501.603V46.3435H510.199V53.9342H509.999ZM466.816 26.5676V22.6724H453.822V26.5676H466.816ZM476.713 22.5725V26.4677H490.007V22.5725H476.713ZM476.713 46.4434H491.507V42.9476H476.713V46.4434ZM491.507 53.9342H476.713V57.8295H491.507V53.9342Z" fill="#F4E41C"/>
<path d="M28.5899 39.9513C34.0877 38.553 39.6855 37.8538 44.1838 37.8538C56.6789 37.8538 66.575 44.5457 66.575 55.732C66.575 65.3203 61.5769 72.6115 48.682 75.8076C44.8835 76.6066 41.1849 77.0061 37.9862 77.106L34.1877 66.7186C37.8862 66.7186 41.3849 66.6188 44.1838 66.1194C50.7812 64.9208 55.9791 61.6249 55.9791 55.732C55.9791 50.2387 51.0811 47.0426 43.9838 47.0426C38.9858 47.0426 33.6879 47.8417 28.6898 49.24C28.8898 55.732 29.0897 62.0244 29.0897 64.821C29.0897 74.9087 25.3911 77.6054 20.0932 77.6054C12.0964 77.6054 0.800781 70.8136 0.800781 62.1242C0.800781 54.933 9.09753 47.6419 19.0936 43.3471C18.9936 41.4495 18.9936 39.5518 18.9936 37.6541V30.8624C17.3943 30.9622 15.9948 31.0621 14.5954 31.0621C10.8968 31.0621 6.79843 30.9622 3.19984 30.6626L2.99992 20.7747C7.79804 21.3739 11.2967 21.4738 14.2955 21.4738C15.7949 21.4738 17.2943 21.3739 18.9936 21.2741C19.0936 18.3776 19.0936 15.9805 19.0936 14.5822C19.0936 12.8843 18.7937 8.88916 18.4938 7.39099H29.9893C29.7894 8.88916 29.4895 12.3849 29.2896 14.4823C29.1896 15.9805 29.0897 17.9781 29.0897 19.9756C34.3876 19.2765 39.7855 18.1778 44.0838 16.9793L44.2837 27.1669C39.6855 28.2655 34.0877 29.0646 28.6898 29.7637C28.5899 32.2607 28.5899 34.6577 28.5899 37.0548V39.9513ZM19.6934 62.7235C19.6934 60.6261 19.5934 56.9306 19.4934 52.7357C14.4954 55.3325 11.1967 58.6285 11.1967 61.525C11.1967 64.0219 14.9952 66.3191 17.0944 66.3191C18.4938 66.3191 19.6934 65.5201 19.6934 62.7235ZM53.1802 15.8806C59.4778 18.877 68.8741 24.2704 73.1724 27.2668L68.2743 35.6565C64.3758 32.2607 53.78 26.268 48.682 23.8709L53.1802 15.8806Z" fill="#FCFCFC" stroke="#262626" stroke-width="2"/>
<path d="M156.94 26.6675C152.042 26.4677 144.345 26.2679 133.349 26.2679C133.449 30.363 133.449 34.8575 133.449 38.3532C135.548 41.3496 136.448 45.3447 136.448 49.6394C136.448 60.2265 130.15 73.7101 110.258 79.3033L101.661 70.6139C109.858 68.9159 117.055 66.2192 121.554 61.3252C120.354 61.525 119.155 61.7247 117.855 61.7247C111.558 61.7247 103.761 56.7308 103.761 46.743C103.761 37.5542 111.158 31.5615 120.054 31.5615C121.254 31.5615 122.253 31.6614 123.253 31.7612L123.153 26.3678C110.858 26.5676 98.2628 27.067 88.1667 27.5664L87.9668 17.6784C97.2632 17.6784 112.057 17.2789 123.053 17.0792C123.053 16.0804 123.053 15.1815 122.953 14.5822C122.753 11.9854 122.553 8.78926 122.253 7.49084H134.049C133.849 8.78926 133.549 13.1839 133.449 14.4823C133.449 15.1815 133.349 15.9805 133.349 16.9793C141.546 16.9793 152.641 16.8794 156.94 16.9793V26.6675ZM119.854 52.6358C123.253 52.6358 126.252 50.039 125.152 43.0475C123.953 41.0499 122.153 40.151 119.854 40.151C116.756 40.151 113.557 42.2485 113.557 46.5432C113.557 50.3386 116.656 52.6358 119.854 52.6358Z" fill="#FCFCFC" stroke="#262626" stroke-width="2"/>
<path d="M243.305 26.6675C238.407 26.4677 230.71 26.2679 219.714 26.2679C219.814 30.363 219.814 34.8575 219.814 38.3532C221.913 41.3496 222.813 45.3447 222.813 49.6394C222.813 60.2265 216.515 73.7101 196.623 79.3033L188.027 70.6139C196.223 68.9159 203.421 66.2192 207.919 61.3252C206.719 61.525 205.52 61.7247 204.22 61.7247C197.923 61.7247 190.126 56.7308 190.126 46.743C190.126 37.5542 197.523 31.5615 206.419 31.5615C207.619 31.5615 208.619 31.6614 209.618 31.7612L209.518 26.3678C197.223 26.5676 184.628 27.067 174.532 27.5664L174.332 17.6784C183.628 17.6784 198.423 17.2789 209.418 17.0792C209.418 16.0804 209.418 15.1815 209.318 14.5822C209.118 11.9854 208.918 8.78926 208.619 7.49084H220.414C220.214 8.78926 219.914 13.1839 219.814 14.4823C219.814 15.1815 219.714 15.9805 219.714 16.9793C227.911 16.9793 239.007 16.8794 243.305 16.9793V26.6675ZM206.22 52.6358C209.618 52.6358 212.617 50.039 211.517 43.0475C210.318 41.0499 208.519 40.151 206.22 40.151C203.121 40.151 199.922 42.2485 199.922 46.5432C199.922 50.3386 203.021 52.6358 206.22 52.6358Z" fill="#FCFCFC" stroke="#262626" stroke-width="2"/>
<path d="M307.88 20.7747C320.675 23.6712 329.271 33.9586 329.271 48.2412C329.271 65.5201 316.976 75.4081 299.883 77.905L293.585 68.5165C311.478 66.9184 318.475 57.8295 318.475 47.6419C318.475 38.553 313.577 31.9611 305.281 29.7637C302.482 39.2522 298.983 48.5408 294.285 55.6322C295.784 57.3301 297.284 59.028 298.683 60.5262L290.586 67.0183C289.587 65.9196 288.587 64.9209 287.787 63.8222C282.29 69.715 277.791 72.5116 271.794 72.5116C265.096 72.5116 258.799 66.7187 258.799 56.2315C258.799 46.8429 263.497 36.955 270.794 30.4629C270.094 28.3654 269.295 26.0682 268.695 23.8709C267.795 20.8746 266.796 18.3776 265.396 15.3813L276.092 12.0853C276.592 14.6821 277.292 17.3788 277.891 19.7759C278.291 21.374 278.791 23.0719 279.391 24.7698C285.588 21.5737 291.586 20.1754 297.784 19.8758C298.083 18.4775 298.383 17.1791 298.583 15.9805C298.983 13.5835 299.283 10.1876 299.183 8.28992L310.479 9.38858C309.779 11.5859 309.079 15.581 308.579 17.5786L307.88 20.7747ZM281.99 55.7321C279.391 51.8368 276.792 46.2436 274.393 40.1511C270.594 44.6456 268.495 50.4385 268.495 55.4324C268.495 59.3277 270.094 61.9245 273.093 61.9245C275.992 61.8246 278.991 59.4276 281.99 55.7321ZM282.39 33.7589C284.189 38.7528 286.288 43.447 288.187 46.6432C291.086 41.4495 293.485 35.257 295.384 29.2643C290.486 29.7637 286.188 31.4617 282.39 33.7589Z" fill="#FCFCFC" stroke="#262626" stroke-width="2"/>
<path d="M342.266 17.5785H375.952V25.2691H342.266V17.5785ZM372.354 76.4068H354.461V79.6029H345.964V51.5371H372.354V76.4068ZM346.264 28.9646H372.654V36.4555H346.264V28.9646ZM346.264 40.2509H372.654V47.542H346.264V40.2509ZM372.854 13.9829H346.664V6.59192H372.854V13.9829ZM354.461 59.3276V68.816H363.857V59.3276H354.461ZM405.541 70.8136C409.239 70.8136 409.839 68.9159 410.439 58.6285C412.538 60.2265 416.836 61.8246 419.535 62.4238C418.336 76.1071 415.637 80.0024 406.341 80.0024H392.746C382.55 80.0024 379.351 77.3057 379.351 66.8185V34.5578H405.341V17.3788H379.151V8.09009H415.137V47.8416H405.341V43.8465H389.347V66.8185C389.347 70.3142 390.047 70.8136 393.845 70.8136H405.541Z" fill="#FCFCFC" stroke="#262626" stroke-width="2"/>
<path d="M505.003 57.9293H496.407V72.2119H486.411V68.8161H471.616V71.4129C471.616 76.3069 470.417 78.2046 467.218 79.6029C464.119 80.8015 459.621 81.0012 452.624 81.0012C452.124 78.704 450.625 75.3082 449.425 73.3106C453.324 73.5103 458.222 73.5103 459.521 73.5103C461.121 73.4105 461.62 72.9111 461.62 71.4129V68.8161H436.63V61.7247H461.62V57.9293H429.033V50.4385H461.82V46.9427H437.43V40.3508H461.82V36.7552H439.529V20.475H461.82V17.0792H431.132V9.28866H461.82V3.99512H471.816V9.28866H503.204V16.9793H471.816V20.3751H495.207V36.6553H471.816V40.2509H496.607V50.3386H505.203V57.9293H505.003ZM461.82 30.5627V26.6675H448.825V30.5627H461.82ZM471.716 26.5676V30.4628H485.011V26.5676H471.716ZM471.716 50.4385H486.511V46.9427H471.716V50.4385ZM486.511 57.9293H471.716V61.8246H486.511V57.9293Z" fill="#FCFCFC" stroke="#262626" stroke-width="2"/>
</g>
<defs>
<clipPath id="clip0">
<rect width="510" height="82" fill="white"/>
</clipPath>
</defs>
</svg>
