<svg xmlns="http://www.w3.org/2000/svg" width="27.233" height="22.126" viewBox="0 0 27.233 22.126"><g transform="translate(0 -48)"><g transform="translate(0 48)"><path d="M27.232,50.619a11.64,11.64,0,0,1-3.217.882,5.552,5.552,0,0,0,2.456-3.086,11.157,11.157,0,0,1-3.54,1.351,5.583,5.583,0,0,0-9.657,3.818,5.749,5.749,0,0,0,.129,1.273A15.8,15.8,0,0,1,1.9,49.018,5.584,5.584,0,0,0,3.612,56.48a5.513,5.513,0,0,1-2.522-.688v.061a5.609,5.609,0,0,0,4.473,5.486,5.572,5.572,0,0,1-1.464.184,4.936,4.936,0,0,1-1.057-.1,5.636,5.636,0,0,0,5.217,3.889A11.218,11.218,0,0,1,1.336,67.7,10.455,10.455,0,0,1,0,67.621a15.717,15.717,0,0,0,8.565,2.505A15.781,15.781,0,0,0,24.455,54.24c0-.247-.009-.485-.02-.722A11.138,11.138,0,0,0,27.232,50.619Z" transform="translate(0 -48)" fill="#fff"/></g></g></svg>