<svg width="24" height="24" viewBox="0 0 24 24" fill="none" xmlns="http://www.w3.org/2000/svg">
<path d="M18.5925 24H5.4075C2.4225 24 0 21.5775 0 18.5925V5.4075C0 2.4225 2.4225 0 5.4075 0H18.585C21.5775 0 24 2.4225 24 5.4075V18.585C24 21.5775 21.5775 24 18.5925 24Z" fill="#06C755"/>
<path d="M20.0011 10.8671C20.0011 7.28957 16.4086 4.37207 11.9986 4.37207C7.58859 4.37207 3.99609 7.28207 3.99609 10.8671C3.99609 14.0771 6.84609 16.7621 10.6861 17.2721C10.9486 17.3321 11.3011 17.4446 11.3911 17.6696C11.4736 17.8721 11.4436 18.1871 11.4136 18.3896C11.4136 18.3896 11.3161 18.9521 11.3011 19.0721C11.2636 19.2746 11.1436 19.8596 11.9911 19.5071C12.8461 19.1471 16.5961 16.7921 18.2761 14.8646C19.4386 13.5896 20.0011 12.2996 20.0011 10.8671Z" fill="white"/>
<path d="M17.3378 12.9369H15.0953C15.0128 12.9369 14.9453 12.8694 14.9453 12.7869V9.29941C14.9453 9.21691 15.0128 9.14941 15.0953 9.14941H17.3378C17.4203 9.14941 17.4878 9.21691 17.4878 9.29941V9.86942C17.4878 9.95192 17.4203 10.0194 17.3378 10.0194H15.8078V10.6119H17.3378C17.4203 10.6119 17.4878 10.6794 17.4878 10.7619V11.3319C17.4878 11.4144 17.4203 11.4819 17.3378 11.4819H15.8078V12.0744H17.3378C17.4203 12.0744 17.4878 12.1419 17.4878 12.2244V12.7944C17.4878 12.8694 17.4203 12.9369 17.3378 12.9369Z" fill="#06C755"/>
<path d="M9.0211 12.9371C9.1036 12.9371 9.1711 12.8696 9.1711 12.7871V12.2171C9.1711 12.1346 9.1036 12.0671 9.0211 12.0671H7.49109V9.29209C7.49109 9.20959 7.42359 9.14209 7.34109 9.14209H6.77109C6.68859 9.14209 6.62109 9.20959 6.62109 9.29209V12.7796C6.62109 12.8621 6.68859 12.9296 6.77109 12.9296H9.0211V12.9371Z" fill="#06C755"/>
<path d="M10.3704 9.14209H9.80039C9.71789 9.14209 9.65039 9.20959 9.65039 9.29209V12.7871C9.65039 12.8696 9.71789 12.9371 9.80039 12.9371H10.3704C10.4529 12.9371 10.5204 12.8696 10.5204 12.7871V9.29209C10.5279 9.20959 10.4604 9.14209 10.3704 9.14209Z" fill="#06C755"/>
<path d="M14.2353 9.14209H13.6653C13.5828 9.14209 13.5153 9.20959 13.5153 9.29209V11.3696L11.9178 9.20959C11.9178 9.20209 11.9103 9.20209 11.9028 9.19459L11.8953 9.18709L11.8878 9.17959C11.8878 9.17959 11.8878 9.17959 11.8803 9.17959L11.8728 9.17209C11.8728 9.17209 11.8728 9.17209 11.8653 9.17209C11.8653 9.17209 11.8578 9.17209 11.8578 9.16459C11.8578 9.16459 11.8578 9.16459 11.8503 9.16459C11.8503 9.16459 11.8428 9.16459 11.8428 9.15709C11.8428 9.15709 11.8428 9.15709 11.8353 9.15709H11.8278C11.8278 9.15709 11.8278 9.15709 11.8203 9.15709H11.8128H11.8053H11.7978H11.7903C11.7903 9.15709 11.7903 9.15709 11.7828 9.15709H11.2203C11.1378 9.15709 11.0703 9.22459 11.0703 9.30709V12.8021C11.0703 12.8846 11.1378 12.9521 11.2203 12.9521H11.7903C11.8728 12.9521 11.9403 12.8846 11.9403 12.8021V10.7321L13.5378 12.8921C13.5453 12.9071 13.5603 12.9221 13.5753 12.9296L13.5828 12.9371C13.5828 12.9371 13.5828 12.9371 13.5903 12.9371H13.5978H13.6053C13.6053 12.9371 13.6053 12.9371 13.6128 12.9371H13.6203C13.6353 12.9371 13.6428 12.9446 13.6578 12.9446H14.2203C14.3028 12.9446 14.3703 12.8771 14.3703 12.7946V9.29959C14.3928 9.20959 14.3253 9.14209 14.2353 9.14209Z" fill="#06C755"/>
</svg>
