<svg width="150" height="152" viewBox="0 0 150 152" fill="none" xmlns="http://www.w3.org/2000/svg">
<rect y="0.363037" width="150" height="151.336" rx="75" fill="#00B900"/>
<rect x="5" y="5.01871" width="140" height="141.247" rx="70" fill="white"/>
<path d="M44.0954 53.8152H53.0754V51.3352H47.0554V38.9952H44.0954V53.8152ZM55.6579 53.8152H58.6179V38.9952H55.6579V53.8152ZM62.2595 53.8152H65.0595V47.8752C65.0595 46.1752 64.8395 44.3152 64.6995 42.7152H64.7995L66.2995 45.8952L70.5795 53.8152H73.5795V38.9952H70.7795V44.9152C70.7795 46.5952 71.0195 48.5552 71.1595 50.0952H71.0595L69.5795 46.8952L65.2795 38.9952H62.2595V53.8152ZM77.2399 53.8152H86.5399V51.3352H80.1999V47.3752H85.3999V44.8952H80.1999V41.4752H86.3199V38.9952H77.2399V53.8152Z" fill="#00B900"/>
<path d="M89.1046 40.0952L89.3646 42.8352C91.6846 42.3352 95.7646 41.8952 97.6446 41.6952C96.2846 42.7152 94.6646 44.9952 94.6646 47.8752C94.6646 52.2152 98.6246 54.4552 102.825 54.7352L103.765 51.9952C100.365 51.8152 97.2846 50.6352 97.2846 47.3352C97.2846 44.9552 99.1046 42.3752 101.525 41.7352C102.585 41.4752 104.305 41.4752 105.385 41.4552L105.365 38.8952C103.945 38.9552 101.765 39.0752 99.7046 39.2552C96.0446 39.5552 92.7446 39.8552 91.0646 39.9952C90.6846 40.0352 89.9046 40.0752 89.1046 40.0952ZM102.525 43.4152L101.045 44.0352C101.685 44.9352 102.105 45.7152 102.605 46.8152L104.125 46.1352C103.745 45.3552 103.025 44.1352 102.525 43.4152ZM104.765 42.4952L103.305 43.1752C103.945 44.0552 104.405 44.7952 104.945 45.8752L106.445 45.1552C106.025 44.3752 105.265 43.1952 104.765 42.4952ZM33.9153 65.5752H31.1553C31.2153 65.9352 31.2953 66.9152 31.2953 67.3352C31.2953 67.6752 31.2953 68.2552 31.2753 68.9552C30.8753 68.9752 30.4753 68.9952 30.1153 68.9952C29.3953 68.9952 28.5353 68.9752 27.3553 68.8352L27.3953 71.2552C28.0753 71.3352 28.8553 71.3552 30.1953 71.3552C30.5153 71.3552 30.8753 71.3352 31.2553 71.3152C31.2553 71.8752 31.2553 72.4352 31.2553 72.9952C31.2553 73.4552 31.2553 73.9352 31.2753 74.4152C28.8153 75.4752 26.8153 77.2952 26.8153 79.0352C26.8153 81.1552 29.5553 82.8352 31.4953 82.8352C32.8153 82.8352 33.6953 82.1752 33.6953 79.6952C33.6953 79.0152 33.6553 77.4552 33.6153 75.8752C34.8353 75.5152 36.1353 75.3152 37.3753 75.3152C39.1153 75.3152 40.3153 76.1152 40.3153 77.4752C40.3153 78.9352 39.0353 79.7352 37.4153 80.0352C36.7153 80.1552 35.8553 80.1752 34.9553 80.1752L35.8753 82.7552C36.6953 82.6952 37.5753 82.6352 38.4953 82.4352C41.6753 81.6352 42.9153 79.8552 42.9153 77.4952C42.9153 74.7352 40.4953 73.1352 37.4153 73.1352C36.3153 73.1352 34.9353 73.3152 33.5753 73.6552C33.5753 73.3952 33.5753 73.1552 33.5753 72.9152C33.5753 72.3352 33.5753 71.7152 33.5953 71.1152C34.8953 70.9552 36.2753 70.7552 37.4153 70.4952L37.3553 68.0152C36.3153 68.3152 34.9953 68.5752 33.6753 68.7352C33.6953 68.2352 33.7153 67.7552 33.7353 67.3152C33.7753 66.7952 33.8553 65.9352 33.9153 65.5752ZM39.6153 67.7352L38.5153 69.6752C39.7553 70.2752 42.3753 71.7752 43.3353 72.5952L44.5353 70.5552C43.4753 69.7952 41.1553 68.4752 39.6153 67.7352ZM29.2753 78.9352C29.2753 78.2352 30.0953 77.4152 31.3153 76.7552C31.3553 77.8352 31.3753 78.7552 31.3753 79.2552C31.3753 79.9352 31.0953 80.0952 30.7353 80.0952C30.2153 80.0952 29.2753 79.5552 29.2753 78.9352ZM55.3753 75.0152V72.7752H52.0953V72.2952V69.5952H54.9153V67.3952H49.6353C49.8353 66.7152 49.9953 66.0352 50.1353 65.3352L47.8553 64.8752C47.4553 67.1552 46.6953 69.4552 45.6153 70.8952C46.1553 71.1952 47.0953 71.8752 47.5353 72.2752C48.0353 71.5352 48.4953 70.6152 48.8953 69.5952H49.6953V72.2752V72.7752H45.9953V75.0152H49.5353C49.2153 77.3352 48.2953 79.8352 45.6953 81.6952C46.1953 82.0552 47.0753 82.9952 47.3953 83.4952C49.3153 82.0952 50.4953 80.2152 51.1753 78.2552C52.1553 79.4752 53.2953 80.9752 53.9553 82.0152L55.5553 80.0152C54.9953 79.3552 52.8353 76.8552 51.7953 75.8352C51.8553 75.5752 51.8953 75.2952 51.9353 75.0152H55.3753ZM58.2153 79.2952V68.8352H61.1153V79.2952H58.2153ZM55.9153 66.5952V82.9752H58.2153V81.5352H61.1153V82.6752H63.5353V66.5952H55.9153ZM71.8753 65.7152L71.2353 68.1152C72.7953 68.5152 77.2553 69.4552 79.2753 69.7152L79.8753 67.2752C78.1353 67.0752 73.7753 66.3152 71.8753 65.7152ZM71.9953 69.7352L69.3153 69.3552C69.1753 71.8352 68.7153 75.7552 68.3153 77.7152L70.6153 78.2952C70.7953 77.8952 70.9953 77.5752 71.3553 77.1352C72.6153 75.6152 74.6553 74.7752 76.9153 74.7752C78.6553 74.7752 79.8953 75.7352 79.8953 77.0352C79.8953 79.5752 76.7153 81.0352 70.7153 80.2152L71.4753 82.8352C79.7953 83.5352 82.6753 80.7352 82.6753 77.0952C82.6753 74.6752 80.6353 72.5152 77.1353 72.5152C75.0353 72.5152 73.0553 73.0952 71.2353 74.4152C71.3753 73.2752 71.7353 70.8352 71.9953 69.7352ZM100.105 66.1152H97.4247C97.4847 66.5152 97.5647 67.4552 97.5647 67.9552V70.2152C95.7447 70.3752 93.8047 70.5552 92.1047 70.7152C92.1047 69.9352 92.1247 69.2552 92.1247 68.7952C92.1247 67.9552 92.1447 67.3952 92.2447 66.7152H89.4247C89.5247 67.4352 89.5847 68.1152 89.5847 68.9352C89.5847 69.2752 89.5847 70.0152 89.5847 70.9552C88.9447 71.0152 88.4247 71.0552 88.0647 71.0952C87.0447 71.1952 86.1247 71.2352 85.5447 71.2352L85.8247 73.7952C86.3447 73.7152 87.5847 73.5152 88.2247 73.4352C88.5647 73.3952 89.0247 73.3552 89.5647 73.2952C89.5647 75.1552 89.5647 77.0952 89.5847 77.9552C89.6847 81.4152 90.3047 82.4952 95.4847 82.4952C97.3847 82.4952 99.8447 82.3352 101.185 82.1752L101.285 79.4552C99.7847 79.7152 97.2647 79.9552 95.3047 79.9552C92.3047 79.9552 92.1247 79.5152 92.0847 77.5552C92.0447 76.6952 92.0647 74.8552 92.0847 73.0152C93.7847 72.8352 95.7447 72.6552 97.5247 72.5152C97.5047 73.4752 97.4447 74.3952 97.3647 74.9352C97.3247 75.3152 97.1447 75.3952 96.7447 75.3952C96.3447 75.3952 95.5247 75.2752 94.9047 75.1352L94.8447 77.3552C95.5447 77.4552 97.1447 77.6552 97.8647 77.6552C98.8847 77.6552 99.3847 77.3952 99.6047 76.3352C99.7647 75.4952 99.8447 73.8552 99.9047 72.3352C100.485 72.2952 101.005 72.2752 101.445 72.2552C101.965 72.2352 103.025 72.2152 103.365 72.2352V69.7752C102.785 69.8352 102.005 69.8752 101.445 69.9152C100.985 69.9352 100.485 69.9752 99.9447 70.0152C99.9647 69.3552 99.9647 68.6352 99.9847 67.8552C100.005 67.3152 100.065 66.4352 100.105 66.1152ZM114.525 65.7752L111.885 65.5552C111.845 66.2752 111.705 67.0552 111.485 67.8552C111.165 67.8552 110.825 67.8552 110.525 67.8552C109.505 67.8552 108.025 67.7752 107.005 67.6152V69.9552C108.105 70.0352 109.565 70.0752 110.385 70.0752C110.465 70.0752 110.545 70.0752 110.645 70.0752C109.745 71.8752 108.325 73.6552 106.225 75.5952L108.365 77.1952C109.045 76.3152 109.625 75.5952 110.225 74.9952C110.985 74.2552 112.225 73.6152 113.345 73.6152C113.905 73.6152 114.445 73.7952 114.745 74.2952C112.465 75.4752 110.065 77.0752 110.065 79.6352C110.065 82.2152 112.385 82.9752 115.525 82.9752C117.405 82.9752 119.865 82.8152 121.185 82.6352L121.265 80.0552C119.505 80.3952 117.285 80.6152 115.585 80.6152C113.625 80.6152 112.685 80.3152 112.685 79.2152C112.685 78.2152 113.485 77.4352 114.985 76.5752C114.965 77.4552 114.945 78.4152 114.885 79.0152H117.285C117.265 78.0952 117.225 76.6152 117.205 75.4952C118.425 74.9352 119.565 74.4952 120.465 74.1352C121.145 73.8752 122.205 73.4752 122.845 73.2952L121.845 70.9752C121.105 71.3552 120.405 71.6752 119.625 72.0152C118.805 72.3752 117.965 72.7152 116.925 73.1952C116.485 72.1752 115.485 71.6552 114.265 71.6552C113.605 71.6552 112.525 71.8152 112.005 72.0552C112.405 71.4752 112.805 70.7552 113.145 70.0152C115.305 69.9552 117.765 69.7952 119.665 69.5152L119.685 67.1952C117.925 67.4952 115.925 67.6752 114.025 67.7752C114.285 66.9352 114.425 66.2752 114.525 65.7752ZM43.48 96.1152C43.82 96.8952 44.12 97.8952 44.24 98.5952H40.42L41.46 98.2952C41.26 97.6552 40.8 96.7552 40.34 96.0152C42.04 95.9352 43.78 95.8152 45.46 95.6552L43.48 96.1152ZM38.52 100.655H51.42V102.935H53.74V98.5952H50.9C51.36 97.8552 51.88 97.0352 52.34 96.1952L49.8 95.5952C49.5 96.4952 48.98 97.6752 48.5 98.5952H45.02L46.5 98.2352C46.38 97.5152 46 96.4552 45.6 95.6552C48.26 95.4152 50.84 95.0952 53 94.6952L51.4 92.7752C47.76 93.4752 41.74 93.9552 36.48 94.1352C36.7 94.6552 36.98 95.5552 37.02 96.1552C37.98 96.1352 39 96.0952 40 96.0352L38.22 96.5352C38.58 97.1752 38.96 97.9752 39.16 98.5952H36.3V102.935H38.52V100.655ZM47.74 104.375C47.02 105.295 46.08 106.055 45.02 106.695C43.82 106.035 42.8 105.275 41.98 104.375H47.74ZM49.72 102.095L49.28 102.195H39.18V104.375H40.12L39.46 104.655C40.34 105.875 41.4 106.935 42.62 107.795C40.64 108.535 38.32 108.995 35.82 109.255C36.32 109.735 36.98 110.795 37.22 111.355C40.04 110.975 42.7 110.315 45 109.215C47.16 110.275 49.74 110.955 52.64 111.315C52.96 110.675 53.6 109.635 54.1 109.095C51.64 108.875 49.4 108.415 47.48 107.735C49.1 106.555 50.42 105.035 51.32 103.075L49.72 102.095ZM70.56 93.9152H67.66C67.74 94.2352 67.84 94.7952 67.88 95.2952C67.92 95.8352 67.94 96.8752 67.96 97.9952C67.2 98.0152 66.42 98.0352 65.7 98.0352C64.64 98.0352 63.66 97.9552 62.68 97.8152V100.355C63.66 100.395 64.9 100.455 65.76 100.455C66.5 100.455 67.24 100.435 68 100.415C68 100.695 68 100.935 68 101.135C68 104.515 67.68 106.295 66.14 107.895C65.58 108.515 64.58 109.155 63.82 109.495L66.12 111.315C70.12 108.775 70.48 105.875 70.48 101.155C70.48 100.955 70.48 100.655 70.48 100.315C71.6 100.255 72.64 100.175 73.44 100.075L73.46 97.4752C72.64 97.6352 71.58 97.7552 70.46 97.8352C70.46 96.7352 70.46 95.6952 70.46 95.2752C70.48 94.8352 70.5 94.3552 70.56 93.9152ZM60.62 94.2552L57.66 93.9552C57.64 94.4552 57.62 95.1352 57.52 95.6952C57.28 97.3152 56.88 100.395 56.88 103.675C56.88 106.155 57.58 108.955 58.02 110.155L60.24 109.935C60.22 109.655 60.2 109.315 60.2 109.115C60.2 108.875 60.24 108.435 60.32 108.135C60.56 106.995 61.1 104.975 61.68 103.255L60.44 102.455C60.1 103.195 59.74 104.155 59.48 104.775C58.94 102.295 59.64 98.0952 60.14 95.8752C60.24 95.4552 60.44 94.7352 60.62 94.2552ZM84.68 96.1952H85.38V97.7552H91.28C90.94 99.9952 90.34 101.995 89.56 103.715C88.72 101.955 88.12 99.9352 87.72 97.7952L85.44 98.2552C86.06 101.275 86.92 103.955 88.14 106.175C87.16 107.535 86 108.615 84.68 109.355V96.1952ZM79.54 104.355H82.38V106.155C81.42 106.275 80.46 106.415 79.54 106.535V104.355ZM79.54 100.235H82.38V102.235H79.54V100.235ZM82.38 96.1952V98.0952H79.54V96.1952H82.38ZM92.34 95.3552L91.94 95.4152H85.96V93.9952H75.92V96.1952H77.28V106.815C76.6 106.895 75.98 106.955 75.44 107.015L75.9 109.395C77.74 109.115 80.08 108.755 82.38 108.355V111.555H84.68V109.675C85.16 110.155 85.7 110.895 86 111.415C87.36 110.595 88.54 109.595 89.56 108.355C90.52 109.575 91.64 110.595 93 111.415C93.36 110.795 94.1 109.895 94.64 109.455C93.2 108.675 92 107.555 91.02 106.215C92.52 103.535 93.48 100.095 93.9 95.7352L92.34 95.3552ZM102.8 107.455C102.8 106.955 103.28 106.495 104.04 106.495C105.12 106.495 105.86 107.335 105.98 108.635C105.62 108.675 105.24 108.695 104.82 108.695C103.62 108.695 102.8 108.195 102.8 107.455ZM99.4 94.5752L99.48 97.1752C99.94 97.1152 100.58 97.0552 101.12 97.0152C102.18 96.9552 104.94 96.8352 105.96 96.8152C104.98 97.6752 102.9 99.3552 101.78 100.275C100.6 101.255 98.18 103.295 96.76 104.435L98.58 106.315C100.72 103.875 102.72 102.255 105.78 102.255C108.14 102.255 109.94 103.475 109.94 105.275C109.94 106.495 109.38 107.415 108.28 107.995C108 106.095 106.5 104.575 104.02 104.575C101.9 104.575 100.44 106.075 100.44 107.695C100.44 109.695 102.54 110.975 105.32 110.975C110.16 110.975 112.56 108.475 112.56 105.315C112.56 102.395 109.98 100.275 106.58 100.275C105.94 100.275 105.34 100.335 104.68 100.495C105.94 99.4952 108.04 97.7352 109.12 96.9752C109.58 96.6352 110.06 96.3552 110.52 96.0552L109.22 94.2752C108.98 94.3552 108.52 94.4152 107.7 94.4952C106.56 94.5952 102.28 94.6752 101.22 94.6752C100.66 94.6752 99.96 94.6552 99.4 94.5752Z" fill="black"/>
</svg>
