<svg xmlns="http://www.w3.org/2000/svg" width="100" height="90" viewBox="0 0 766.08 688"><defs><style>.cls-1{fill:#262626;}.cls-2{fill:#f4e41c;}.cls-3{fill:#eda421;}</style></defs><g id="レイヤー_2" data-name="レイヤー 2"><g id="レイヤー_28" data-name="レイヤー 28"><path class="cls-1" d="M690.63,493.65S752,493,760.82,515.08c-3.81,2.82-11.42,10.2-11.42,10.2s-9.3-22-56.78-23.13A54,54,0,0,1,690.63,493.65Z"/><path class="cls-1" d="M660.86,454.28s7.12-61-13.92-72.06c-3.2,3.5-11.34,10.28-11.34,10.28s20.91,11.58,17,58.91A54.38,54.38,0,0,0,660.86,454.28Z"/><rect class="cls-2" x="730.16" y="440.27" width="30.73" height="30.73" transform="translate(-124.34 373.53) rotate(-26.04)"/><circle class="cls-3" cx="741.89" cy="400.82" r="17.29"/><path class="cls-1" d="M164.17,169.31v20.82H4.22V169.31H72.9V133.55H24.68V113.09H72.9V81.78H36.07c-5.16,9.79-10.68,18.86-16.55,25.8A166.63,166.63,0,0,0,.49,95C14.36,80,25.93,55.45,32,31.25l21.88,4.8C51.37,44.6,48.52,53,45.5,61.14H72.9v-32H95.14v32h60V81.78h-60v31.31h53.19v20.46H95.14v35.76Z"/><path class="cls-1" d="M247.94,101.18c6.31,0,18.05-.56,23.26-1a24,24,0,0,0,7.53-1.55l8.86,6.87a26.92,26.92,0,0,0-3.77,4.65c-2.88,4.76-7.09,14.4-11.07,23.81a99.72,99.72,0,0,1,24,7.09c.11-1.33.22-2.55.33-3.77a71.27,71.27,0,0,0,0-12.07l14.51,1.66a178.64,178.64,0,0,1-2.1,20.49c4.65,2.66,8.64,5.21,11.85,7.42L315,170.18a114.31,114.31,0,0,0-9.53-7.75c-4.87,12.51-13.29,22.26-28.13,30l-11.74-9.63c16.72-7.2,24.47-17.72,28.13-27.8a76.75,76.75,0,0,0-26.25-9c-4,9.42-8.64,20.5-12.52,26.59-4.43,6.64-9.74,9.74-17.28,9.74-9.74,0-17-6.75-17-17.94,0-17.17,15.62-30.24,37.88-31.23,3.1-7.31,6.31-14.85,8.86-20-4.43.22-14,.55-19,.88-2.22.11-6.09.45-9,.89l-.56-14.29C241.73,101,245.5,101.18,247.94,101.18Zm-9.75,66.67c2.21,0,3.76-1.1,5.76-3.87,2.88-4.1,5.87-11.08,9-18.06-12.41,1.89-19.38,9.42-19.38,16.39C233.54,166,235.64,167.85,238.19,167.85Z"/><path class="cls-1" d="M427.62,110.24H376V45.66h21v44h30.6ZM449.33,164H489v-44.3h22.06v75.25H489V184.79H390.44v10.32H368.91V119.68h21.53V164h37.18m21.71-74.37h32.38V45.66H504v64.58H449.33Z"/><path class="cls-1" d="M643.83,65.89c0,1.27,0,3-.16,5,16.14,0,38-.32,46.35-.16l-.16,18.86c-9.59-.48-24.45-.8-46.19-.8,0,8.15.16,17,.16,24,3.84,6.07,5.75,13.59,5.75,21.9,0,20.77-12.14,47.31-51.15,58.18l-17.1-17c16.15-3.35,30.21-8.62,39-18.22a34,34,0,0,1-7.19.8c-12.31,0-27.49-9.91-27.49-29.41,0-18.06,14.54-29.89,32-29.89a41.49,41.49,0,0,1,6.39.48c0-3.52,0-7.19-.16-10.71-24.14.32-49.07,1.28-68.73,2.4L554.64,72c18.22,0,47.31-.64,69.05-1-.16-2.08-.16-3.68-.32-5a115.57,115.57,0,0,0-1.6-13.91H645C644.63,54.7,644,63.33,643.83,65.89Zm-26.69,74.8c6.71,0,12.62-5.11,10.39-19.18a11.78,11.78,0,0,0-10.39-5.59c-6.24,0-12.31,4.31-12.31,12.78C604.83,136.05,610.74,140.69,617.14,140.69Z"/><rect class="cls-1" y="462.69" width="55.93" height="225.31"/><rect class="cls-1" x="45.94" y="586.13" width="55.93" height="147.81" transform="translate(733.94 586.13) rotate(90)"/><polygon class="cls-3" points="254.04 688 200.75 688 340.09 453.43 365.14 494.65 254.04 688"/><polygon class="cls-3" points="426.38 688 479.67 688 340.33 453.43 315.6 494.65 426.38 688"/><path class="cls-3" d="M431.88,136.13h0c-5.39-.93-9.33-4.76-9-8.77L432.82,5c.28-3.41,4.39-5.64,9-4.85l26.6,4.55c4.58.78,7.72,4.25,6.84,7.56L444,130.5C442.93,134.65,437.62,137.11,431.88,136.13Z"/><rect class="cls-3" x="405.1" y="144.7" width="44.49" height="44.49" rx="19.21" transform="translate(34.3 -69.72) rotate(9.71)"/><path class="cls-1" d="M538.29,453.9c70.59,0,125.85,13.21,125.85,59.45,0,55-44.4,63.11-125.85,63.11"/><path class="cls-1" d="M538.29,547.1c97.55,0,156.92,24.22,156.92,70.45,0,55-56.55,70.45-156.92,70.45"/><polygon class="cls-2" points="356.14 258.67 382.25 245.32 387.23 291.1 356.14 258.67"/><polygon class="cls-2" points="430.25 258.67 404.14 245.32 399.16 291.1 430.25 258.67"/><path class="cls-1" d="M22.92,279H99.59c4.23,0,9.16-.42,13.25-.84v19.31c-4.23-.29-9.17-.57-13.25-.57H69.85v57.5H107.2a86.82,86.82,0,0,0,13.25-1.12v20.43a113.9,113.9,0,0,0-13.25-.7H14.32a118.6,118.6,0,0,0-13.81.7V353.25a91.84,91.84,0,0,0,13.81,1.12h35.8v-57.5H22.92c-3.8,0-9.86.28-13.39.57V278.13C13.2,278.55,19,279,22.92,279Z"/><path class="cls-1" d="M201.18,344.79c24.1-14.24,42.43-35.8,51.3-54.82l11,19.87c-10.71,19-29.46,38.47-52.15,52.14-14.23,8.6-32.41,16.49-52.28,19.87l-11.84-18.6C169.19,360.15,187.51,353,201.18,344.79Zm0-45.52-14.37,14.66c-7.33-7.9-24.95-23.26-35.23-30.45l13.24-14.09C174.69,276,193,290.67,201.18,299.27Z"/><path class="cls-1" d="M323.92,317.59l-10.29,15.78c-8-5.63-22.69-15.07-32.13-20.15l10.15-15.5C301.23,302.79,316.73,312.52,323.92,317.59Zm11.28,32.13C359.15,336.33,378.89,317,390,296.87L400.87,316c-13,19.59-33,37.35-55.95,50.73-14.37,8-34.67,15.08-47.07,17.34l-10.57-18.46C303.06,363,320,358.18,335.2,349.72Zm10.28-64-10.42,15.5c-7.9-5.49-22.55-14.94-31.86-20.15l10.15-15.5C322.65,270.66,338.16,280.53,345.48,285.74Z"/><path class="cls-1" d="M442.43,350.57h80.9a143.76,143.76,0,0,0,15.5-.85v21.56a154.29,154.29,0,0,0-15.5-.84h-80.9c-5.5,0-12.4.42-17.62.84V349.72C430.31,350.14,436.93,350.57,442.43,350.57Zm10.71-68.92h58.35c5.63,0,11.69-.42,15.64-.84v20.43c-4.09-.14-10.71-.56-15.64-.56H453.28c-5.35,0-11.84.28-16.63.56V280.81C441.73,281.37,448.35,281.65,453.14,281.65Z"/><path class="cls-1" d="M682.7,288.42c-6.62,11-20,28.75-33.82,38.61l-14.66-11.7c11.28-6.9,22.27-19.3,25.94-26.21H586.73c-5.92,0-10.57.43-17.19,1V270.52a111.07,111.07,0,0,0,17.19,1.41h76c3.95,0,11.7-.42,14.38-1.27l11.13,10.43A70.4,70.4,0,0,0,682.7,288.42Zm-91,96L575.17,371a55.47,55.47,0,0,0,14.8-7.75c17.9-12.4,21.28-27.34,21.28-50.45a77.61,77.61,0,0,0-1-12.69H630.7C630.7,335.06,630,363.81,591.66,384.39Z"/><polygon class="cls-2" points="700.63 397.99 694.06 425.98 721.59 417.68 700.63 397.99"/><polygon class="cls-3" points="690.91 441.97 679.56 456.93 690.27 472.35 708.25 466.93 708.65 448.15 690.91 441.97"/></g></g></svg>