<svg width="495" height="119" viewBox="0 0 495 119" fill="none" xmlns="http://www.w3.org/2000/svg">
<path d="M100.999 3.79999H22.1992V40.6H100.999V3.79999ZM86.7992 31.6H35.8992V26.6H86.7992V31.6ZM86.7992 17.9H35.8992V13H86.7992V17.9Z" fill="#EDA421"/>
<path d="M111.399 63.7L102.599 60.3L100.199 60.8H62.8992V71.7H73.8992L65.9992 73.9C68.8992 80.5 72.5992 86.5 76.8992 91.7C71.8992 95.4 65.9992 98.3 59.8992 100.3V56.4H114.899V45.1H8.19922V56.4H17.5992V92.9C13.8992 93.3 10.2992 93.4 7.19922 93.6L8.29922 105.8C18.8992 104.8 32.4992 103.6 46.2992 102.3V112H59.9992V102.3C62.3992 105.2 64.9992 109.1 66.3992 111.9C73.7992 109.1 80.6992 105.4 86.7992 100.7C93.1992 105.6 100.599 109.3 109.099 111.9C110.999 108.5 114.699 103.4 117.499 100.7C109.599 98.8 102.399 95.8 96.3992 91.8C102.999 84.4 108.099 75 111.399 63.7ZM46.1992 90.7C40.8992 91.2 35.5992 91.5 30.5992 91.9V86H46.1992V90.7ZM46.1992 76.2H30.5992V71.2H46.1992V76.2ZM46.1992 61.2H30.5992V56.4H46.1992V61.2ZM85.9992 83.5C82.7992 80 79.9992 76.1 77.9992 71.7H94.1992C91.9992 76.1 89.2992 80 85.9992 83.5Z" fill="#EDA421"/>
<path d="M205.998 22.7C218.598 20.1 232.298 16.3 242.798 11.7L231.498 1.20001C224.198 5.20001 212.398 9.00001 200.998 11.8L192.598 9.40001V51C192.598 67.6 191.198 88 177.398 102.6C180.598 104.3 185.798 109.2 187.598 112.3C203.398 95.9 205.998 70.5 206.098 52.7H218.298V111.4H232.098V52.7H243.498V39.5H205.998V22.7Z" fill="#EDA421"/>
<path d="M168.099 72.4V71.4H187.899V59.4H168.099V50.2H188.999V38.4H176.899C178.599 34.8 180.499 30 182.699 24.8L175.699 23.5H187.999V11.9H168.099V1H154.299V11.9H134.099V23.5H147.499L140.199 25.2C141.899 29.2 143.299 34.4 143.799 38.4H132.799V50.2H154.299V59.4H133.199V71.4H151.399C145.899 80.4 137.599 89.4 129.799 94.6C132.799 96.9 136.899 101.6 138.999 104.7C144.199 100.5 149.599 94.5 154.199 87.8V111.9H167.999V86.3C171.499 89.7 174.799 93.3 176.799 95.7L185.099 85.5C182.399 83.3 172.399 75.4 168.099 72.4ZM149.599 38.4L155.599 36.7C155.099 33.1 153.599 27.6 151.499 23.5H169.599C168.599 27.6 166.699 33.1 165.199 36.7L173.099 38.4H149.599Z" fill="#EDA421"/>
<path d="M302.2 3.70001H264V14.5H302.2V3.70001Z" fill="#EDA421"/>
<path d="M262.898 110.4H275.298V105.7H301.498V69.5H262.998V110.4H262.898ZM275.298 80.8H288.998V94.6H275.298V80.8Z" fill="#EDA421"/>
<path d="M301.799 52.9H263.299V63.6H301.799V52.9Z" fill="#EDA421"/>
<path d="M301.799 36.5H263.299V47.4H301.799V36.5Z" fill="#EDA421"/>
<path d="M349.799 97.6H332.599C326.999 97.6 325.999 96.8 325.999 91.7V58.2H349.399V64.1H363.699V6H311.299V19.6H349.499V44.7H311.599V91.7C311.599 107.1 316.299 111 331.199 111H350.999C364.599 111 368.399 105.2 370.199 85.3C366.399 84.5 360.099 82.1 356.999 79.8C355.999 94.8 355.199 97.6 349.799 97.6Z" fill="#EDA421"/>
<path d="M306.6 19.8H257.5V31.1H306.6V19.8Z" fill="#EDA421"/>
<path d="M482.498 67.8V53H446.398V47.7H480.498V24H446.398V19.1H492.198V7.8H446.398V0H431.898V7.8H387.098V19.1H431.898V24H399.398V47.8H431.898V53H396.398V62.6H431.898V67.8H384.398V78.7H431.898V84.3H395.398V94.6H431.898V98.3C431.898 100.5 431.198 101.2 428.898 101.3C426.998 101.3 419.898 101.3 414.098 101.1C415.898 104.1 418.098 109 418.798 112.4C428.998 112.4 435.498 112.2 439.998 110.4C444.698 108.4 446.398 105.5 446.398 98.4V94.7H467.998V99.6H482.498V78.7H494.998V67.8H482.498ZM446.398 33H465.798V38.8H446.398V33ZM431.898 38.8H412.998V33H431.798V38.8H431.898ZM467.998 84.4H446.398V78.8H467.998V84.4ZM467.998 67.8H446.398V62.6H467.998V67.8Z" fill="#EDA421"/>
<path d="M94.9992 8.79999H16.1992V45.6H94.9992V8.79999ZM80.7992 36.6H29.8992V31.6H80.7992V36.6ZM80.7992 22.9H29.8992V18H80.7992V22.9Z" fill="#FCFCFC" stroke="black" stroke-width="2"/>
<path d="M105.399 68.7L96.5992 65.3L94.1992 65.8H56.8992V76.7H67.8992L59.9992 78.9C62.8992 85.5 66.5992 91.5 70.8992 96.7C65.8992 100.4 59.9992 103.3 53.8992 105.3V61.4H108.899V50.1H2.19922V61.4H11.5992V97.9C7.89922 98.3 4.29922 98.4 1.19922 98.6L2.29922 110.8C12.8992 109.8 26.4992 108.6 40.2992 107.3V117H53.9992V107.3C56.3992 110.2 58.9992 114.1 60.3992 116.9C67.7992 114.1 74.6992 110.4 80.7992 105.7C87.1992 110.6 94.5992 114.3 103.099 116.9C104.999 113.5 108.699 108.4 111.499 105.7C103.599 103.8 96.3992 100.8 90.3992 96.8C96.9992 89.4 102.099 80 105.399 68.7ZM40.1992 95.7C34.8992 96.2 29.5992 96.5 24.5992 96.9V91H40.1992V95.7ZM40.1992 81.2H24.5992V76.2H40.1992V81.2ZM40.1992 66.2H24.5992V61.4H40.1992V66.2ZM79.9992 88.5C76.7992 85 73.9992 81.1 71.9992 76.7H88.1992C85.9992 81.1 83.2992 85 79.9992 88.5Z" fill="#FCFCFC" stroke="black" stroke-width="2"/>
<path d="M199.998 27.7C212.598 25.1 226.298 21.3 236.798 16.7L225.498 6.20001C218.198 10.2 206.398 14 194.998 16.8L186.598 14.4V56C186.598 72.6 185.198 93 171.398 107.6C174.598 109.3 179.798 114.2 181.598 117.3C197.398 100.9 199.998 75.5 200.098 57.7H212.298V116.4H226.098V57.7H237.498V44.5H199.998V27.7Z" fill="#FCFCFC" stroke="black" stroke-width="2"/>
<path d="M162.099 77.4V76.4H181.899V64.4H162.099V55.2H182.999V43.4H170.899C172.599 39.8 174.499 35 176.699 29.8L169.699 28.5H181.999V16.9H162.099V6H148.299V16.9H128.099V28.5H141.499L134.199 30.2C135.899 34.2 137.299 39.4 137.799 43.4H126.799V55.2H148.299V64.4H127.199V76.4H145.399C139.899 85.4 131.599 94.4 123.799 99.6C126.799 101.9 130.899 106.6 132.999 109.7C138.199 105.5 143.599 99.5 148.199 92.8V116.9H161.999V91.3C165.499 94.7 168.799 98.3 170.799 100.7L179.099 90.5C176.399 88.3 166.399 80.4 162.099 77.4ZM143.599 43.4L149.599 41.7C149.099 38.1 147.599 32.6 145.499 28.5H163.599C162.599 32.6 160.699 38.1 159.199 41.7L167.099 43.4H143.599Z" fill="#FCFCFC" stroke="black" stroke-width="2"/>
<path d="M296.2 8.70001H258V19.5H296.2V8.70001Z" fill="#FCFCFC" stroke="black" stroke-width="2"/>
<path d="M256.898 115.4H269.298V110.7H295.498V74.5H256.998V115.4H256.898ZM269.298 85.8H282.998V99.6H269.298V85.8Z" fill="#FCFCFC" stroke="black" stroke-width="2"/>
<path d="M295.799 57.9H257.299V68.6H295.799V57.9Z" fill="#FCFCFC" stroke="black" stroke-width="2"/>
<path d="M295.799 41.5H257.299V52.4H295.799V41.5Z" fill="#FCFCFC" stroke="black" stroke-width="2"/>
<path d="M343.799 102.6H326.599C320.999 102.6 319.999 101.8 319.999 96.7V63.2H343.399V69.1H357.699V11H305.299V24.6H343.499V49.7H305.599V96.7C305.599 112.1 310.299 116 325.199 116H344.999C358.599 116 362.399 110.2 364.199 90.3C360.399 89.5 354.099 87.1 350.999 84.8C349.999 99.8 349.199 102.6 343.799 102.6Z" fill="#FCFCFC" stroke="black" stroke-width="2"/>
<path d="M300.6 24.8H251.5V36.1H300.6V24.8Z" fill="#FCFCFC" stroke="black" stroke-width="2"/>
<path d="M476.498 72.8V58H440.398V52.7H474.498V29H440.398V24.1H486.198V12.8H440.398V5H425.898V12.8H381.098V24.1H425.898V29H393.398V52.8H425.898V58H390.398V67.6H425.898V72.8H378.398V83.7H425.898V89.3H389.398V99.6H425.898V103.3C425.898 105.5 425.198 106.2 422.898 106.3C420.998 106.3 413.898 106.3 408.098 106.1C409.898 109.1 412.098 114 412.798 117.4C422.998 117.4 429.498 117.2 433.998 115.4C438.698 113.4 440.398 110.5 440.398 103.4V99.7H461.998V104.6H476.498V83.7H488.998V72.8H476.498ZM440.398 38H459.798V43.8H440.398V38ZM425.898 43.8H406.998V38H425.798V43.8H425.898ZM461.998 89.4H440.398V83.8H461.998V89.4ZM461.998 72.8H440.398V67.6H461.998V72.8Z" fill="#FCFCFC" stroke="black" stroke-width="2"/>
</svg>
