<svg xmlns="http://www.w3.org/2000/svg" viewBox="0 0 535.53 372.81"><defs><style>.cls-1{fill:#27a5b8;}.cls-2{fill:#becf45;}.cls-3{fill:#fcfcfc;}.cls-3,.cls-4,.cls-5,.cls-6{stroke:#262626;stroke-miterlimit:10;}.cls-4,.cls-6{fill:#fff;}.cls-5{fill:none;}.cls-6{stroke-width:1.22px;}.cls-7{fill:#262626;}.cls-8{fill:#f1eee7;}</style></defs><g id="レイヤー_2" data-name="レイヤー 2"><g id="レイヤー_2-2" data-name="レイヤー 2"><polyline class="cls-1" points="84.57 40.77 534.57 40.77 534.57 307.23"/><polyline class="cls-2" points="534.57 307.23 84.57 307.23 84.57 40.77"/><rect class="cls-2" x="-74.8" y="157.79" width="266.63" height="31.52" transform="translate(232.06 115.04) rotate(90)"/><line class="cls-1" x1="84.57" y1="40.77" x2="534.57" y2="307.23"/><polygon class="cls-3" points="8.27 19 0.87 31.82 15.67 31.82 8.27 19"/><polygon class="cls-3" points="8.27 329.09 15.67 316.27 0.87 316.27 8.27 329.09"/><line class="cls-4" x1="8.27" y1="237.5" x2="8.27" y2="316.18"/><line class="cls-5" x1="8.27" y1="31.5" x2="8.27" y2="110.18"/><polygon class="cls-3" points="511.81 364.55 498.99 357.14 498.99 371.95 511.81 364.55"/><polygon class="cls-3" points="61.72 364.55 74.54 371.95 74.54 357.14 61.72 364.55"/><rect class="cls-2" x="42.67" width="492" height="30"/><rect class="cls-2" x="42.67" y="316" width="492" height="30"/><line class="cls-6" x1="499.51" y1="364.55" x2="331.67" y2="364.55"/><line class="cls-6" x1="235.17" y1="364.55" x2="74.67" y2="364.55"/><path class="cls-7" d="M172.79,8.74a14.87,14.87,0,0,0,6.05,5.09,8.74,8.74,0,0,0-1.12,1.5A18.84,18.84,0,0,1,172,10.38a17.27,17.27,0,0,1-5.6,5A7.09,7.09,0,0,0,165.35,14a15.5,15.5,0,0,0,5.73-5.26ZM173,20h5V21.5H166.12V20h1.53V15.13h1.64V20h2V12.72H173v3h3.75v1.47H173Z"/><path class="cls-7" d="M188.26,18.69a12.67,12.67,0,0,0,4.44,1.53,7.48,7.48,0,0,0-1.12,1.51,12.12,12.12,0,0,1-4.71-2.37v2.52h-1.64V19.45a13.37,13.37,0,0,1-4.69,2.27,7.52,7.52,0,0,0-1.06-1.39,14.62,14.62,0,0,0,4.42-1.64h-4V17.32h5.35V16.7h-4V15.5h4v-.63H180.5V13.56h2.66a5.56,5.56,0,0,0-.48-1.09l.17,0h-2.92V11.08h1.87a12.73,12.73,0,0,0-.87-1.73l1.43-.49a10.75,10.75,0,0,1,1.07,2l-.69.25H184V8.8h1.56v2.28h1V8.8h1.57v2.28h1.24l-.5-.15a12.46,12.46,0,0,0,.88-2l1.75.42c-.39.64-.77,1.27-1.09,1.76h1.82v1.36h-2.63c-.23.41-.45.79-.66,1.12h2.74v1.31h-4.86v.63h4.21v1.2h-4.21v.62h5.45v1.37Zm-3.81-6.25a7.88,7.88,0,0,1,.48,1.08l-.24,0h2.62c.16-.33.33-.74.49-1.12Z"/><path class="cls-7" d="M206,9.4V21.93H204.3v-.62h-8.48v.62h-1.67V9.4ZM204.3,19.77V10.94h-8.48v8.83ZM200.85,14v1.14h2.32v3.68h-6.09V15.16h2.19V14h-2.82V12.71h2.82V11.36h1.58v1.35h2.89V14Zm.78,2.37h-3.1v1.22h3.1Z"/><path class="cls-7" d="M212.81,12.05a10.49,10.49,0,0,1-.56,1.11h6.49v6.92c0,.82-.15,1.27-.73,1.52a6.1,6.1,0,0,1-2.48.28,7,7,0,0,0-.5-1.61c.71,0,1.52,0,1.76,0s.32-.08.32-.28v-.84h-5.05v2.68H210.4V15.78a10.7,10.7,0,0,1-1.85,1.64,8.79,8.79,0,0,0-1.09-1.28A10.84,10.84,0,0,0,211,12.05h-3.07V10.48h3.77a14.44,14.44,0,0,0,.55-1.69l1.72.39c-.14.43-.28.87-.45,1.3h6.84v1.57Zm4.3,2.56h-5.05v.9h5.05Zm0,3.2V16.9h-5.05v.91Z"/><path class="cls-7" d="M232.26,12a20.22,20.22,0,0,1-2.2,3.85,39.86,39.86,0,0,1,3.91,4l-1.6,1.39a32,32,0,0,0-3.52-4,18.47,18.47,0,0,1-5.27,3.93l-1.45-1.51a15.72,15.72,0,0,0,5.75-4A10.79,10.79,0,0,0,230,12.29h-4.74c-.59,0-1.36.08-1.66.1v-2c.38,0,1.24.1,1.66.1h4.94a4.89,4.89,0,0,0,1.44-.19l1.15.86A7.11,7.11,0,0,0,232.26,12Z"/><path class="cls-7" d="M239.89,9.6l2-.32c0,.28.09.75.16,1.09s.11.66.22,1.29L245,11.2c.45-.09,1-.2,1.32-.3l.33,1.84c-.3,0-.86.11-1.28.16l-2.81.45c.14.7.29,1.47.44,2.24,1.26-.21,2.41-.4,3-.53s1.06-.22,1.43-.33l.38,1.84c-.38,0-1,.13-1.49.21s-1.81.3-3,.49c.22,1.15.42,2.09.51,2.53s.23.92.36,1.37l-2,.36c-.07-.52-.11-1-.19-1.41s-.26-1.37-.48-2.55l-3.35.57c-.6.12-1.08.21-1.4.3l-.39-1.88c.38,0,1-.1,1.46-.15l3.36-.52c-.14-.76-.3-1.54-.42-2.26l-2.75.45c-.45.1-.81.17-1.29.3l-.37-1.94a11.38,11.38,0,0,0,1.3-.1c.49-.05,1.57-.21,2.77-.4-.11-.59-.21-1-.25-1.28A10.75,10.75,0,0,0,239.89,9.6Z"/><path class="cls-7" d="M252,16.8a24.28,24.28,0,0,0,.41-5.55,5,5,0,0,0-.13-1.29h2.06a9.9,9.9,0,0,0-.1,1.28,30.72,30.72,0,0,1-.42,6,8.2,8.2,0,0,1-2.49,4l-1.71-1.13A6.62,6.62,0,0,0,252,16.8Zm4.22,2.52V11.15a6.59,6.59,0,0,0-.11-1.2h2.08a7.49,7.49,0,0,0-.1,1.22v7.32a8.84,8.84,0,0,0,3.47-2.95l1.07,1.54a15.51,15.51,0,0,1-4.74,3.82,3.36,3.36,0,0,0-.61.42l-1.17-1A5.93,5.93,0,0,0,256.23,19.32Z"/><path class="cls-7" d="M267.76,16.24A13.36,13.36,0,0,1,269.85,9l1.29.54a13.5,13.5,0,0,0-1.71,6.7A13.46,13.46,0,0,0,271.14,23l-1.29.54A13.39,13.39,0,0,1,267.76,16.24Z"/><path class="cls-7" d="M279.55,11.38V14a35.14,35.14,0,0,0,4.85-1.55,9,9,0,0,0,1.52-.76l.76,1.78c-.55.23-1.18.49-1.64.66a48.5,48.5,0,0,1-5.49,1.71v2.59c0,.6.28.76.91.88a12.33,12.33,0,0,0,1.63.09,23.62,23.62,0,0,0,4.87-.49v2a39.14,39.14,0,0,1-5,.3,15.19,15.19,0,0,1-2.35-.16A2,2,0,0,1,277.7,19V11.38a11.58,11.58,0,0,0-.11-1.46h2.07A10.59,10.59,0,0,0,279.55,11.38Zm7.27-.14-1.14.47a14.94,14.94,0,0,0-1.09-1.94l1.11-.45C286.05,9.84,286.55,10.72,286.82,11.24Zm1.67-.65-1.11.48a14.32,14.32,0,0,0-1.13-1.93l1.1-.45A15.65,15.65,0,0,1,288.49,10.59Z"/><path class="cls-7" d="M294.54,14.81l-1,1.57c-.8-.56-2.25-1.5-3.19-2l1-1.55C292.29,13.34,293.83,14.31,294.54,14.81ZM295.67,18a14.13,14.13,0,0,0,5.44-5.25l1.08,1.91a16.9,16.9,0,0,1-5.56,5A17.34,17.34,0,0,1,292,21.42l-1.05-1.83A15.24,15.24,0,0,0,295.67,18Zm1-6.36-1,1.54c-.78-.54-2.24-1.48-3.16-2l1-1.54C294.42,10.15,296,11.13,296.69,11.64Zm4.17.44-1.22.52a11.54,11.54,0,0,0-1.23-2.2l1.18-.49A23.24,23.24,0,0,1,300.86,12.08Zm2-.76-1.19.53a13.55,13.55,0,0,0-1.31-2.13l1.19-.49A18.24,18.24,0,0,1,302.82,11.32Z"/><path class="cls-7" d="M311.36,10.51v.73H313a4.05,4.05,0,0,0,1.16-.14l1.17,1.13c-.37.35-.79.83-1.1,1.16a19.93,19.93,0,0,1-2.94,2.75c0,1.12,0,2.65,0,3.53,0,.56.05,1.36.1,1.79h-2a15.19,15.19,0,0,0,.11-1.79v-2.4a24.28,24.28,0,0,1-4.3,1.73l-1.08-1.66A17.36,17.36,0,0,0,309.85,15a9.35,9.35,0,0,0,2.35-2.09h-5.07c-.5,0-1.39,0-1.82.05V11.14a13.81,13.81,0,0,0,1.79.1h2.42v-.73a8.5,8.5,0,0,0-.08-1.29h2A12,12,0,0,0,311.36,10.51Zm.85,6.4,1.17-1.34a31,31,0,0,1,3.36,2l-1.18,1.54A21.64,21.64,0,0,0,312.21,16.91Z"/><path class="cls-7" d="M328.55,12a20.22,20.22,0,0,1-2.2,3.85,38.79,38.79,0,0,1,3.91,4l-1.59,1.39a32.14,32.14,0,0,0-3.53-4,18.47,18.47,0,0,1-5.27,3.93l-1.44-1.51a15.77,15.77,0,0,0,5.74-4,10.84,10.84,0,0,0,2.09-3.43h-4.75c-.59,0-1.36.08-1.66.1v-2c.38,0,1.24.1,1.66.1h4.94a4.92,4.92,0,0,0,1.45-.19l1.14.86A7.11,7.11,0,0,0,328.55,12Z"/><path class="cls-7" d="M340.16,15.34a1.8,1.8,0,1,1-1.79-1.79A1.8,1.8,0,0,1,340.16,15.34Z"/><path class="cls-7" d="M348.12,14.07v7.81H346.5V9.33h5.39v4.74Zm0-3.59v.69h2.2v-.69Zm2.2,2.45V12.2h-2.2v.73Zm8,7.19c0,.77-.13,1.19-.58,1.46a3.94,3.94,0,0,1-1.93.3,5.57,5.57,0,0,0-.34-1.3,6.59,6.59,0,0,0-.43.67,4.76,4.76,0,0,1-2.65-1.76,5.48,5.48,0,0,1-2.8,1.75,5.39,5.39,0,0,0-1-1.08,3.93,3.93,0,0,0,2.65-1.64h-2.4V17.3h2.65v-.73h-2.45V15.41h1.09a5.18,5.18,0,0,0-.46-.91l1.27-.35a4.57,4.57,0,0,1,.68,1.26h1.46c.16-.42.36-.92.47-1.27l1.53.39-.6.88h1.21v1.16H353v.73h2.85v1.22h-2.6a4.21,4.21,0,0,0,2.67,1.53,2.52,2.52,0,0,0-.26.29,4.87,4.87,0,0,0,.78,0c.17,0,.23-.07.23-.24v-6h-3.86V9.33h5.5Zm-3.91-9.64v.69h2.27v-.69ZM356.67,13V12.2H354.4V13Z"/><path class="cls-7" d="M363.09,18.7a3.21,3.21,0,0,0,3,1.39c1.68.07,5,0,6.92-.13a8.62,8.62,0,0,0-.52,1.63c-1.73.08-4.7.11-6.41,0a4.38,4.38,0,0,1-3.63-1.55c-.56.54-1.13,1.07-1.85,1.68l-.78-1.66a19.71,19.71,0,0,0,1.74-1.28V15.76h-1.57V14.23h3.15Zm-1-6.27A10.81,10.81,0,0,0,360,10.1l1.28-.95a12.46,12.46,0,0,1,2.2,2.23Zm5.1,6h-3.65V17.11h3.65v-.62h-2.93V11.73h2.93v-.58H363.7V9.81h3.49v-1h1.63v1h3.67v1.34h-3.67v.58h3.05v4.76h-3.05v.62h3.84v1.36h-3.84v1.3h-1.63Zm-1.41-4.91h1.41v-.67h-1.41Zm1.41,1.78v-.7h-1.41v.7Zm1.63-2.45v.67h1.45v-.67Zm1.45,1.75h-1.45v.7h1.45Z"/><path class="cls-7" d="M382.55,18.69A12.67,12.67,0,0,0,387,20.22a7.48,7.48,0,0,0-1.12,1.51,12.12,12.12,0,0,1-4.71-2.37v2.52h-1.64V19.45a13.37,13.37,0,0,1-4.69,2.27,7.1,7.1,0,0,0-1.06-1.39,14.52,14.52,0,0,0,4.42-1.64h-4V17.32h5.34V16.7h-4V15.5h4v-.63h-4.73V13.56h2.66a6.18,6.18,0,0,0-.47-1.09l.16,0h-2.92V11.08h1.87a12.64,12.64,0,0,0-.86-1.73l1.42-.49a10.75,10.75,0,0,1,1.07,2l-.69.25h1.28V8.8h1.55v2.28h1V8.8h1.57v2.28h1.24l-.5-.15a10.94,10.94,0,0,0,.88-2l1.75.42c-.39.64-.77,1.27-1.09,1.76h1.82v1.36h-2.63c-.23.41-.45.79-.66,1.12H386v1.31h-4.86v.63h4.21v1.2h-4.21v.62h5.45v1.37Zm-3.81-6.25a7.88,7.88,0,0,1,.48,1.08l-.24,0h2.62c.17-.33.33-.74.49-1.12Z"/><path class="cls-7" d="M399.88,11.59a6.61,6.61,0,0,1-1.4,2,10.69,10.69,0,0,0,2.58.83A6.8,6.8,0,0,0,400,15.87a9.93,9.93,0,0,1-2.86-1.2,11.5,11.5,0,0,1-2.85,1.18,5.16,5.16,0,0,0-.4-.59,15.84,15.84,0,0,1-.68,2.34l-1.12-.52a18.2,18.2,0,0,0,.44-1.93h-.74v4.93c0,.75-.11,1.2-.6,1.45a4.08,4.08,0,0,1-2,.3,5.81,5.81,0,0,0-.48-1.59c.52,0,1.08,0,1.26,0s.22,0,.22-.21v-3a8.23,8.23,0,0,1-1.75,2.59,9.74,9.74,0,0,0-.75-1.61,8.89,8.89,0,0,0,2-2.88H388V13.69h3.21a19.48,19.48,0,0,0-2.7-1.36l1-1.06c.33.12.73.28,1.11.44a9.14,9.14,0,0,0,.88-.88h-3.36V9.43h4.52l.25-.06,1.07.68a10.48,10.48,0,0,1-2.05,2.31,7.82,7.82,0,0,1,1,.61l-.68.72H393l.23-.07,1,.34-.05.32a8.67,8.67,0,0,0,1.71-.65,7.94,7.94,0,0,1-1-1.16q-.31.33-.63.6a13,13,0,0,0-1.36-.94,8.28,8.28,0,0,0,2.68-3.33l1.55.42a9.11,9.11,0,0,1-.51,1h4.13v1.39Zm.66,5s0,.44-.05.63c-.23,2.43-.48,3.5-.89,3.95a1.5,1.5,0,0,1-1,.49,9.41,9.41,0,0,1-1.57,0,3.62,3.62,0,0,0-.44-1.54,10.71,10.71,0,0,0,1.2.07.59.59,0,0,0,.45-.15,4.37,4.37,0,0,0,.53-2.09h-1.62a5.61,5.61,0,0,1-3.69,3.89,4.56,4.56,0,0,0-1-1.29A4.45,4.45,0,0,0,395.4,18h-1.69V16.6h2a12,12,0,0,0,.14-1.24h1.67c0,.42-.08.84-.14,1.24Zm-4.59-5a5.67,5.67,0,0,0,1.16,1.19,4.3,4.3,0,0,0,.93-1.19Z"/><path class="cls-7" d="M405.59,23a13.46,13.46,0,0,0,1.71-6.71,13.5,13.5,0,0,0-1.71-6.7L406.86,9a13.49,13.49,0,0,1,0,14.49Z"/><rect class="cls-8" x="138.67" y="48" width="160" height="25" rx="11.75"/><rect class="cls-8" x="406.17" y="48" width="120.5" height="25" rx="12.5"/><rect class="cls-8" x="306.48" y="48" width="92" height="25" rx="12.5"/><rect class="cls-8" x="406.17" y="200" width="120.5" height="25" rx="12.5"/><rect class="cls-8" x="306.17" y="120" width="92" height="25" rx="12.5"/><rect class="cls-8" x="94.67" y="111" width="92" height="25" rx="12.5"/><rect class="cls-8" x="93.67" y="151" width="151" height="25" rx="12.5"/><rect class="cls-8" x="93.67" y="193" width="223" height="25" rx="12.5"/><rect class="cls-8" x="94.67" y="234" width="296" height="25" rx="12.5"/><rect class="cls-8" x="93.67" y="272" width="361" height="25" rx="12.5"/><rect class="cls-8" x="406.17" y="120" width="120.5" height="25" rx="12.5"/><path class="cls-7" d="M224.51,327.29h2.07v10.37h-2.07Z"/><path class="cls-7" d="M231.18,329h-2.91v-1.73h7.93V329h-2.94v8.64h-2.08Z"/><path class="cls-7" d="M244.85,328.08v2.65a39.8,39.8,0,0,0,4.89-1.57,11.83,11.83,0,0,0,1.52-.75l.76,1.76c-.53.22-1.16.49-1.64.67a56.21,56.21,0,0,1-5.53,1.73v2.59c0,.6.28.75.91.88a12.12,12.12,0,0,0,1.61.08,23.74,23.74,0,0,0,4.89-.49v2.06a41.38,41.38,0,0,1-5,.28,15.34,15.34,0,0,1-2.35-.15,2,2,0,0,1-1.92-2.1v-7.64a11,11,0,0,0-.12-1.45H245A10.5,10.5,0,0,0,244.85,328.08Z"/><path class="cls-7" d="M264.59,331.57c-.11.83-.47,3.24-.68,4.57h.89c.37,0,1,0,1.38-.06v1.81c-.29,0-1,0-1.35,0h-7.37c-.5,0-.85,0-1.38,0v-1.82a13.78,13.78,0,0,0,1.38.07H262c.2-1.19.51-3.18.55-4h-3.79c-.44,0-1,.05-1.4.07v-1.85a12.81,12.81,0,0,0,1.39.09h3.59a3.09,3.09,0,0,0,1-.16l1.36.66A4.46,4.46,0,0,0,264.59,331.57Z"/><path class="cls-7" d="M271.64,331.26h7.53c.66,0,1.27-.05,1.64-.08v2.2c-.34,0-1.05-.07-1.64-.07h-7.53c-.79,0-1.73,0-2.25.07v-2.2C269.89,331.22,270.92,331.26,271.64,331.26Z"/><path class="cls-7" d="M295,329.43a23.5,23.5,0,0,1-4.77,5.48c.8.79,1.62,1.7,2.17,2.36l-1.64,1.31a35.43,35.43,0,0,0-2.68-3,28.91,28.91,0,0,0-3.08-2.69l1.49-1.19c.56.42,1.48,1.18,2.36,1.95a15.44,15.44,0,0,0,3.56-4H285c-.56,0-1.31.07-1.61.1v-2a12.8,12.8,0,0,0,1.61.13h7.78a4.4,4.4,0,0,0,1.3-.16l1.4,1.15A5.21,5.21,0,0,0,295,329.43Z"/><path class="cls-7" d="M303.09,334.51a13.07,13.07,0,0,0,5.1-5.45l1.09,2a14.9,14.9,0,0,1-5.18,5.18,15.16,15.16,0,0,1-5.2,2l-1.17-1.85A14.35,14.35,0,0,0,303.09,334.51Zm0-4.52-1.43,1.46a28.57,28.57,0,0,0-3.5-3l1.32-1.4A27.8,27.8,0,0,1,303.09,330Z"/><path class="cls-7" d="M321.29,329a20.22,20.22,0,0,1-2.2,3.85,38.79,38.79,0,0,1,3.91,4l-1.6,1.39a31.34,31.34,0,0,0-3.53-4,18.29,18.29,0,0,1-5.26,3.93l-1.44-1.51a15.77,15.77,0,0,0,5.74-4,11,11,0,0,0,2.09-3.43h-4.75c-.59,0-1.36.08-1.66.1v-2c.38.05,1.24.1,1.66.1h4.94a4.89,4.89,0,0,0,1.44-.19l1.15.86A7.11,7.11,0,0,0,321.29,329Z"/><path class="cls-7" d="M328.92,326.6l2-.32c.05.28.09.75.16,1.09,0,.19.11.66.22,1.29l2.76-.46c.45-.09,1-.2,1.32-.3l.33,1.84c-.3,0-.86.11-1.28.16l-2.8.45c.13.7.27,1.47.43,2.24,1.26-.21,2.41-.4,3-.53s1.06-.22,1.43-.33l.37,1.84c-.37,0-.95.13-1.48.22l-3,.49c.23,1.14.42,2.08.5,2.52s.24.92.37,1.37l-2,.36c-.07-.52-.11-1-.19-1.41s-.26-1.37-.48-2.55l-3.35.57c-.6.12-1.08.21-1.4.3l-.39-1.88c.38,0,1-.1,1.46-.15l3.36-.52c-.14-.76-.3-1.54-.42-2.26l-2.75.45c-.45.1-.81.17-1.29.3l-.38-1.94a11.38,11.38,0,0,0,1.31-.1c.49,0,1.57-.21,2.77-.4-.11-.59-.21-1.05-.25-1.28C329.11,327.26,329,326.93,328.92,326.6Z"/><path class="cls-7" d="M341,333.8a24.28,24.28,0,0,0,.41-5.55,5,5,0,0,0-.13-1.29h2.06a9.9,9.9,0,0,0-.1,1.28,30.72,30.72,0,0,1-.42,6,8.2,8.2,0,0,1-2.49,4l-1.71-1.13A6.62,6.62,0,0,0,341,333.8Zm4.22,2.52v-8.17a6.59,6.59,0,0,0-.11-1.2h2.08a8.14,8.14,0,0,0-.09,1.22v7.32a8.88,8.88,0,0,0,3.46-2.95l1.07,1.54a15.51,15.51,0,0,1-4.74,3.82,3.36,3.36,0,0,0-.61.42l-1.17-1A5.93,5.93,0,0,0,345.26,336.32Z"/><path class="cls-7" d="M54.27,151.27v7.82H52.65V146.53H58v4.74Zm0-3.59v.69h2.2v-.69Zm2.2,2.45v-.72h-2.2v.72Zm8,7.19c0,.77-.12,1.19-.57,1.46a3.94,3.94,0,0,1-1.93.31,6.19,6.19,0,0,0-.34-1.31,4.65,4.65,0,0,0-.43.68,4.79,4.79,0,0,1-2.65-1.77,5.48,5.48,0,0,1-2.8,1.75,5.39,5.39,0,0,0-1-1.08,3.93,3.93,0,0,0,2.65-1.64H55V154.5h2.65v-.72H55.21v-1.17H56.3a5.55,5.55,0,0,0-.46-.91l1.27-.35a4.85,4.85,0,0,1,.68,1.26h1.45c.17-.42.37-.92.48-1.27l1.53.39c-.21.31-.42.62-.61.88h1.22v1.17H59.14v.72H62v1.22H59.4a4.17,4.17,0,0,0,2.67,1.53,2.52,2.52,0,0,0-.26.29,4.87,4.87,0,0,0,.78,0c.17,0,.22-.07.22-.23v-6H59v-4.78h5.49Zm-3.9-9.64v.69h2.26v-.69Zm2.26,2.48v-.75H60.55v.75Z"/><path class="cls-7" d="M55.24,169.91a3.21,3.21,0,0,0,2.95,1.38c1.68.07,5,0,6.92-.12a8.29,8.29,0,0,0-.52,1.62c-1.73.09-4.7.11-6.41,0a4.36,4.36,0,0,1-3.63-1.55c-.56.54-1.13,1.08-1.85,1.68l-.78-1.65A18.43,18.43,0,0,0,53.65,170V167H52.09v-1.52h3.15Zm-1-6.28a10.55,10.55,0,0,0-2.1-2.32l1.28-1a12.46,12.46,0,0,1,2.2,2.23Zm5.1,6H55.68v-1.36h3.66v-.62H56.41v-4.76h2.93v-.57H55.85V161h3.49v-1H61v1h3.67v1.35H61v.57h3v4.76H61v.62H64.8v1.36H61V171H59.34Zm-1.41-4.91h1.41v-.67H57.93Zm1.41,1.78v-.7H57.93v.7ZM61,164.09v.67h1.45v-.67Zm1.45,1.75H61v.7h1.45Z"/><path class="cls-7" d="M56.23,181.1a5,5,0,0,1-.1.58c.73.71,2.24,2.46,2.64,2.93L57.65,186c-.47-.73-1.26-1.78-1.95-2.64A7.44,7.44,0,0,1,53.05,187a6.17,6.17,0,0,0-1.19-1.26,6.52,6.52,0,0,0,2.69-4.68H52.07v-1.56h2.59v-2.23H54.1a10,10,0,0,1-1,1.88,8.72,8.72,0,0,0-1.35-1A10.39,10.39,0,0,0,53.37,174l1.6.32c-.1.49-.21,1-.35,1.45h3.7v1.54h-2v2.23h2.3v1.56Zm8.13-5.89v11.26h-1.7v-.8h-2v1H59V175.21Zm-1.7,8.89v-7.32h-2v7.32Z"/><path class="cls-7" d="M56.37,191.63H52v-1.32h4.4Zm-.29,8.7H53.74v.56H52.48v-4.78h3.6Zm0-6.79H52.52v-1.28H56Zm-3.52.64H56v1.25H52.52ZM56,189.7H52.59v-1.26H56Zm-2.28,7.72V199h1v-1.61Zm11.05-2.11a12.67,12.67,0,0,1-1.61,3c.17.6.39.95.67,1s.32-.6.38-1.6a4.59,4.59,0,0,0,1,.94c-.35,2-1,2.48-1.48,2.45-.74-.05-1.28-.57-1.64-1.52a11.52,11.52,0,0,1-1.84,1.5,5.45,5.45,0,0,0-.93-.93,8.28,8.28,0,0,0,.91-.63H58.05v.53H56.81v-5.39h4v4.43a12,12,0,0,0,1-1,30.24,30.24,0,0,1-.38-4h-5.1v-1.33h1.05a7.5,7.5,0,0,0-.34-1.79l1.11-.24a6.35,6.35,0,0,1,.41,1.8l-.94.23h2.27l-.73-.16c.11-.54.24-1.35.29-1.91H56.55v-1.25H58V188h1.53v1.37H61v1.25H59.47l1.26.19c-.18.67-.35,1.37-.49,1.88h1.08c0-1.4,0-3,0-4.69h1.42v1.29l1.17-.45a8.72,8.72,0,0,1,1.25,2.5l-1.33.55a8.67,8.67,0,0,0-1.09-2.48c0,1.18,0,2.27,0,3.28H65V194H62.72c0,.85.08,1.61.14,2.28a13.58,13.58,0,0,0,.7-1.69Zm-6.74.51v.7h1.38v-.7Zm1.38,2.56v-.74H58.05v.74Z"/><path class="cls-7" d="M6.05,138.48c.68.52,2.07,1.71,2.45,2l-1,1.43c-.34-.43-.92-1.06-1.48-1.64v4.83H4.43v-5a14,14,0,0,1-2.14,3.29,9.2,9.2,0,0,0-.84-1.62,13.51,13.51,0,0,0,2.66-4H1.77V136.2H4.43v-1.74c-.79.15-1.59.28-2.35.38a5.06,5.06,0,0,0-.48-1.31,23.35,23.35,0,0,0,5.64-1.44l1.17,1.29a18.29,18.29,0,0,1-2.36.73v2.09h2.4v1.52H6.05Zm4.69,3.09H9.11v-7.83h1.63Zm3.33-9.25V143.1c0,1-.19,1.43-.77,1.7a7,7,0,0,1-2.79.32,6.32,6.32,0,0,0-.57-1.72c.91,0,1.81,0,2.1,0s.38-.1.38-.35V132.32Z"/><path class="cls-7" d="M13.71,157.16c0,.89-.2,1.34-.76,1.59a6.55,6.55,0,0,1-2.69.3,6.14,6.14,0,0,0-.53-1.6c.78,0,1.71,0,2,0s.36-.08.36-.34V155h-3V159H7.42V155H4.56A8,8,0,0,1,2.8,159.2a6.29,6.29,0,0,0-1.32-1.08C3,156.44,3.13,154,3.13,152v-5H13.71Zm-6.29-3.69v-1.72H4.78V152c0,.45,0,1,0,1.47Zm-2.64-4.9v1.63H7.42v-1.63Zm7.27,0h-3v1.63h3Zm0,4.9v-1.72h-3v1.72Z"/><path class="cls-7" d="M7.39,164.24a18.94,18.94,0,0,1-1.15,4.07,13.87,13.87,0,0,1,1.44,2.27l-1.33,1.14A11.89,11.89,0,0,0,5.4,170a9.25,9.25,0,0,1-2.87,3,7.38,7.38,0,0,0-1.12-1.3,7.81,7.81,0,0,0,3-3.18c-.74-1-1.57-2-2.34-2.85l1.19-.93c.61.64,1.24,1.35,1.85,2.1A15.64,15.64,0,0,0,5.76,164Zm7.23.52h-1.5v6.3c0,.94-.17,1.43-.7,1.69a5.48,5.48,0,0,1-2.52.37,6.9,6.9,0,0,0-.54-1.79c.79,0,1.55,0,1.78,0s.34-.07.34-.29v-6.3H8v-1H1.8v-1.54H4.24v-2.15h1.6v2.15H8.43v.95h3.05v-3.11h1.64v3.11h1.5Zm-5.46,1.1a11.14,11.14,0,0,1,1.55,3l-1.44.74a11.88,11.88,0,0,0-1.44-3.05Z"/><path class="cls-7" d="M14.32,181.4a24.16,24.16,0,0,1-3,1.64,7,7,0,0,0,3.25,2.27,7.64,7.64,0,0,0-1.07,1.4c-2.66-1.09-4.2-3.28-5.08-6.26-.37.22-.76.43-1.16.63,2.85,1.92,2.85,4.75,1.43,5.66a2.72,2.72,0,0,1-1.63.46l-1.12,0a3.08,3.08,0,0,0-.48-1.48,18.9,18.9,0,0,1-2.84,1.05,8.93,8.93,0,0,0-.95-1.2,17.12,17.12,0,0,0,5.78-2.41,2.55,2.55,0,0,0-.29-.38,16.4,16.4,0,0,1-4.36,1.78A6.84,6.84,0,0,0,2,183.41,16.61,16.61,0,0,0,6.33,182l-.45-.3a29.06,29.06,0,0,1-3.13.94,7.75,7.75,0,0,0-.84-1.17,21.77,21.77,0,0,0,4-1.06H3.3v-2.17a3.94,3.94,0,0,1-.48.31,5.59,5.59,0,0,0-1.1-1.18A10.09,10.09,0,0,0,5.51,174l1.74.34-.42.59H9.3l.25-.07,1.13.74a10,10,0,0,1-.94,1.3h3.38v3.5H9.94a10.08,10.08,0,0,0,.71,1.6A17.14,17.14,0,0,0,13,180.42Zm-9.45-2.21H7.26v-1.08H4.87Zm.89-3a7.31,7.31,0,0,1-.74.73H7.81a5.87,5.87,0,0,0,.56-.73Zm2.29,8.1a15.91,15.91,0,0,1-2.51,1.42,12.3,12.3,0,0,0,1.29,0,1.29,1.29,0,0,0,.85-.21A1.13,1.13,0,0,0,8.05,184.26Zm3.45-6.15H8.89v1.08H11.5Z"/><path class="cls-7" d="M3.09,192.32a12,12,0,0,1-.87.88,5.23,5.23,0,0,0-.92-1.26A10,10,0,0,0,4,188.06H5.29A14.9,14.9,0,0,1,8,190.71l-1,1.47a13.49,13.49,0,0,0-2.06-2.44,13.16,13.16,0,0,1-1.28,2h3v1.39H3.09Zm4.17,5.58c0,.63-.08,1-.49,1.27a3.05,3.05,0,0,1-1.59.25A4.93,4.93,0,0,0,4.8,198a6,6,0,0,0,.87,0c.12,0,.15,0,.15-.17v-2.39H4.66v5.64H3.18v-5.64H2V194H7.26Zm3.32,1.33a10.62,10.62,0,0,1-3.16,1.94,10.57,10.57,0,0,0-1.12-1.09,8.62,8.62,0,0,0,2.93-1.74Zm-.67-8.31c.06-.31.1-.62.14-.92H7.39v-1.4h7.1V190H11.87c-.1.32-.19.63-.29.92H14.1v7.41H7.87v-7.41Zm2.59,1.23H9.38V193H12.5Zm0,2H9.38v.9H12.5Zm0,2.05H9.38v.89H12.5Zm0,2.22a19,19,0,0,1,2.38,1.8l-1.32.93a16.84,16.84,0,0,0-2.29-1.9Z"/><path class="cls-7" d="M5.89,211.34c-1.23.72-2.59,1.49-3.74,2.11l-.63-1.68,1.39-.63V207H1.65v-1.6H2.91v-3.14H4.46v3.14h1V207h-1v3.37l1-.47Zm8.42-4.65a17.89,17.89,0,0,1-1.86,4.87c.23,1.25.56,2,.89,2s.31-.52.35-1.76a3.76,3.76,0,0,0,1.12.92c-.23,1.87-.64,2.4-1.69,2.4-.78,0-1.37-.74-1.81-1.93a9.48,9.48,0,0,1-2,1.84A7.25,7.25,0,0,0,8.16,214,9.16,9.16,0,0,0,10,212.5l-4.26,1.12-.39-1.56c1.22-.22,3.06-.64,4.82-1l.13,1.1c.21-.25.4-.5.59-.77a38.76,38.76,0,0,1-.59-5.88H5.72V204h4.47c0-.65,0-1.28,0-1.92h1.59c0,.64,0,1.27,0,1.92h1.48A11.74,11.74,0,0,0,12,202.86l.94-.81a8.42,8.42,0,0,1,1.54,1.36l-.6.56h.62v1.51H11.79c.06,1.28.14,2.47.26,3.53a17.58,17.58,0,0,0,.78-2.6Zm-4.58-.27v4.26H6.13v-4.26Zm-1.3,1.27H7.35v1.71H8.43Z"/><path class="cls-7" d="M256.17,361h2.07v10.38h-2.07Z"/><path class="cls-7" d="M262.85,362.72h-2.92V361h7.93v1.74h-2.94v8.64h-2.07Z"/><path class="cls-7" d="M284.73,360.1v12.53H283V372h-8.49v.62h-1.67V360.1ZM283,370.47v-8.83h-8.49v8.83Zm-3.46-5.75v1.14h2.32v3.68h-6.09v-3.68H278v-1.14h-2.83v-1.31H278v-1.35h1.57v1.35h2.9v1.31Zm.78,2.37h-3.09v1.22h3.09Z"/><path class="cls-7" d="M291.51,362.75c-.17.38-.35.74-.56,1.11h6.48v6.92c0,.82-.15,1.27-.73,1.52a6.07,6.07,0,0,1-2.48.28,7,7,0,0,0-.5-1.61c.71,0,1.53,0,1.76,0s.33-.08.33-.28v-.84h-5.06v2.68H289.1v-6.09a10.6,10.6,0,0,1-1.85,1.63,10,10,0,0,0-1.09-1.27,10.9,10.9,0,0,0,3.48-4.09h-3.06v-1.57h3.76a12.78,12.78,0,0,0,.55-1.69l1.72.39c-.14.43-.28.87-.45,1.3H299v1.57Zm4.3,2.56h-5.06v.9h5.06Zm0,3.2v-.91h-5.06v.91Z"/><path class="cls-7" d="M313.24,370.55v1.58h-8.71v-1.58h3.74v-2.8h-2.71V366.2h2.71v-2.3h-1.55a9.68,9.68,0,0,1-.78,1.93,13.67,13.67,0,0,0-1.48-.75c.14-.26.28-.52.42-.82l-.8.37a11.07,11.07,0,0,0-.53-1.61v9.56h-1.67v-10a18.41,18.41,0,0,1-.63,3.71l-1.24-.45a16.45,16.45,0,0,0,.69-3.64l1.18.17V359.5h1.67v2.65l.81-.34a16.94,16.94,0,0,1,.77,1.77,17.11,17.11,0,0,0,.74-3.42l1.63.22c-.1.66-.21,1.32-.36,1.95h1.13v-2.75h1.66v2.75h2.86v1.57h-2.86v2.3h2.57v1.55h-2.57v2.8Z"/><path class="cls-7" d="M132.84,127.36v2h-1.07v-2h-2.62v-1h2.62v-.89h-2.19v-4.32h5.48v4.32h-2.22v.89h2.58v1ZM130,121a6.85,6.85,0,0,0-.78-2l.91-.29a6.31,6.31,0,0,1,.84,1.94Zm.55,2h1.33V122H130.5Zm0,1.72h1.33v-.91H130.5Zm1.36-4a9.49,9.49,0,0,0-.51-2l.94-.21a8.21,8.21,0,0,1,.56,2ZM134.1,122h-1.32v.9h1.32Zm0,1.71h-1.32v.91h1.32Zm1.44-4.94c-.41.81-.9,1.72-1.28,2.3l-.9-.3a12.46,12.46,0,0,0,1-2.33Zm4.31,4.58a12.55,12.55,0,0,1-1.68,3.25c.27.9.58,1.44.94,1.46s.39-.6.47-1.71a3.65,3.65,0,0,0,.81.62c-.27,1.91-.78,2.41-1.28,2.39-.75,0-1.32-.68-1.74-1.79a9.09,9.09,0,0,1-2.26,1.8,3.58,3.58,0,0,0-.81-.79,8.11,8.11,0,0,0,2.73-2.15,28.28,28.28,0,0,1-.56-3.63l-1.17.14-.13-1,1.22-.15c-.07-1-.13-2.14-.17-3.32h1.07c0,1.12.06,2.18.13,3.19l2.68-.32.13,1-2.71.33a23.58,23.58,0,0,0,.35,2.62,11.13,11.13,0,0,0,1.14-2.42Zm-.72-2.31a8.53,8.53,0,0,0-1.26-2l.84-.45a8.56,8.56,0,0,1,1.31,2Z"/><path class="cls-7" d="M151.55,120.93s0,.4,0,.56c-.26,4.85-.49,6.63-1,7.24a1.46,1.46,0,0,1-1.1.55,13.37,13.37,0,0,1-1.91,0,2.86,2.86,0,0,0-.39-1.15c.79.07,1.52.07,1.82.07a.65.65,0,0,0,.55-.18c.41-.38.66-2,.86-6h-3.75a8.69,8.69,0,0,1-4.4,7.39,4.93,4.93,0,0,0-.87-.9,7.69,7.69,0,0,0,4.08-6.49h-3.71v-1.14h3.77v-2.51h1.18v2.51Z"/><path class="cls-7" d="M163.62,158.34a13.87,13.87,0,0,0,5.19,4.51,5.5,5.5,0,0,0-.74,1,16.63,16.63,0,0,1-5-4.39,15.43,15.43,0,0,1-4.84,4.44,4.92,4.92,0,0,0-.71-.9,13.65,13.65,0,0,0,4.93-4.66Zm.2,9.72h4.42v1H158.11v-1h1.42v-4.31h1.09v4.31h2v-6.42h1.17v2.69h3.33v1h-3.33Z"/><path class="cls-7" d="M180.45,159.15v1h-4.77v1.17H178v5.37H172.3v-5.37h2.26v-1.17h-4.68v-1Zm-1.44,2h1.1v8.17H179v-.7h-7.67v.72h-1.09V161.2h1.09v6.42H179Zm-5.78,2.39h1.41v-1.31h-1.41Zm0,2.2h1.41v-1.32h-1.41Zm3.79-3.51h-1.41v1.31H177Zm0,2.19h-1.41v1.32H177Z"/><path class="cls-7" d="M200.26,208.37a6,6,0,0,0,4.3,2.08,4.24,4.24,0,0,0-.67,1,6.19,6.19,0,0,1-4.79-3c-.64,1.15-2,2.19-4.6,2.95a4.46,4.46,0,0,0-.69-.89c2.21-.56,3.4-1.32,4-2.13H194v-1h4.38a4.15,4.15,0,0,0,.18-1h-3.2v-.93h3.21v-.91h-3.4v-.69h-1v-2.4h4.45V200.4h1.15v1.11h4.46v2.4h-.92v.69h-3.59v.91h3.39v.93h-3.4a6.38,6.38,0,0,1-.15,1h4.9v1Zm-1.71-4.69v-.85h1.13v.85h3.37v-1.19h-7.83v1.19Z"/><path class="cls-7" d="M216,208.24a14.4,14.4,0,0,1-2.1,1.17,7.78,7.78,0,0,0,2.88,1.12,3.23,3.23,0,0,0-.65.91,6.93,6.93,0,0,1-5-3.85h0a8.57,8.57,0,0,1-1.59,1v1.43l2.56-.35.05.92c-1.73.26-3.58.52-4.88.69l-.18-.95,1.39-.18v-1.08a12.56,12.56,0,0,1-2.2.65,3.27,3.27,0,0,0-.61-.8,12.2,12.2,0,0,0,4-1.37h-3.79v-.88h4.77v-.88h1.11v.88h4.83v.88h-4.36a4.76,4.76,0,0,0,1,1.27,16.17,16.17,0,0,0,2-1.21Zm-7.7-3.81c-.77.35-1.56.74-2.24,1l-.39-.93c.63-.24,1.51-.61,2.4-1Zm-.86-1.51a7.26,7.26,0,0,0-1.46-1.28l.66-.65a7,7,0,0,1,1.49,1.23Zm2,3.11h-1v-5.64h1Zm3.25-3.14h-2.71v-1h2.71v-1.53h1.12v1.53h2.8v1h-2.8v1.68h2.47v1h-6v-1h2.37Z"/><path class="cls-7" d="M228.78,244.94H231v1h-2.17v.8c.59.43,1.85,1.51,2.17,1.79l-.63.95c-.34-.38-1-1-1.54-1.58v4.45h-1.09v-4.76a12.47,12.47,0,0,1-2.08,3.2,7.48,7.48,0,0,0-.58-1.08,11.73,11.73,0,0,0,2.43-3.77h-2.17v-1h2.4v-1.78c-.73.14-1.48.26-2.17.34a3.5,3.5,0,0,0-.34-.86,21.65,21.65,0,0,0,4.88-1.19l.81.85a14.9,14.9,0,0,1-2.09.63Zm4,4.48h-1.08v-6.6h1.08Zm2.9-7.8V251c0,.69-.17,1-.59,1.21a7.21,7.21,0,0,1-2.25.2,4.93,4.93,0,0,0-.4-1.15c.82,0,1.57,0,1.81,0s.32-.08.32-.29v-9.37Z"/><path class="cls-7" d="M239.4,246.91a24.26,24.26,0,0,0-2.21-1.28l.62-.83A24.31,24.31,0,0,1,240,246Zm-2,4.59a35.11,35.11,0,0,0,2.26-3.79l.8.75c-.61,1.23-1.41,2.67-2.12,3.79Zm2.54-7.83c-.5-.35-1.49-.92-2.2-1.32l.62-.79c.7.34,1.72.88,2.24,1.21Zm5,2.27v1.77h2.48v4.62h-1.06v-.44h-4v.5h-1v-4.68h2.52v-1.77h-3.34v-1.07h3.34v-1.7c-.84.13-1.7.22-2.5.29a3.6,3.6,0,0,0-.32-.94,27.77,27.77,0,0,0,5.7-1.09l.87.86a15.54,15.54,0,0,1-2.7.7v1.88h3.18v1.07Zm1.42,2.78h-4v2.16h4Z"/><path class="cls-7" d="M259.33,251c0,.65-.16,1-.59,1.15a6.61,6.61,0,0,1-2.24.19,4.93,4.93,0,0,0-.37-1.08c.76,0,1.56,0,1.78,0s.3-.08.3-.3v-2.15h-2.9v3.43H254.2v-3.43h-2.76a6.89,6.89,0,0,1-1.5,3.63,4.17,4.17,0,0,0-.88-.73c1.31-1.45,1.43-3.57,1.43-5.26v-4.27h8.84Zm-5.13-3.21V246h-2.61v.48c0,.41,0,.85,0,1.3Zm-2.61-4.51V245h2.61v-1.69Zm6.62,0h-2.9V245h2.9Zm0,4.51V246h-2.9v1.78Z"/><path class="cls-7" d="M260.21,284.26a8.44,8.44,0,0,1-3,3.84,13.69,13.69,0,0,0,4.46,1.25,4.76,4.76,0,0,0-.7,1.08,13,13,0,0,1-4.86-1.64,16.12,16.12,0,0,1-4.87,1.6,4.5,4.5,0,0,0-.62-1.07,16.19,16.19,0,0,0,4.47-1.24,8.74,8.74,0,0,1-2.27-2.85l.83-.28h-2v-1.11h3.88V282.2h-4.44v-1.1h4.44v-1.71h1.15v1.71h4.48v1.1H256.7v1.64h2.53l.2,0Zm-6.3.69a7.09,7.09,0,0,0,2.28,2.54A7.15,7.15,0,0,0,258.6,285Z"/><path class="cls-7" d="M265.12,286.24v2.93c0,.55-.11.85-.43,1a3.42,3.42,0,0,1-1.56.21,4,4,0,0,0-.3-1h1.05c.16,0,.22,0,.22-.2v-2.62l-1.33.42-.18-1.1,1.51-.41v-2.7h-1.39v-1h1.39V279.4h1v2.33h1.2v1h-1.2v2.39l1.14-.34.15,1Zm7.68-.14a5.85,5.85,0,0,1-1.52,2.6,8.69,8.69,0,0,0,2.51.79,4.26,4.26,0,0,0-.68.94,8.6,8.6,0,0,1-2.67-1,8.36,8.36,0,0,1-2.44,1,3.65,3.65,0,0,0-.62-.84,8.36,8.36,0,0,0,2.21-.8,7.29,7.29,0,0,1-1.19-1.29,6,6,0,0,1-2.29,2.88,2.72,2.72,0,0,0-.73-.79,6,6,0,0,0,2.57-4.38H266.4v-.92h1.68c0-.28.05-.53.07-.78h-1.5v-.89h.83a12.07,12.07,0,0,0-.49-1.42l.85-.23a9.12,9.12,0,0,1,.56,1.41l-.68.24h3.15a10.51,10.51,0,0,0,1-2l1.06.32c-.34.56-.71,1.16-1.06,1.65h1.31v.89h-4c0,.26-.05.51-.08.78h4.4v.92H269c0,.23-.09.43-.12.66H272l.19,0Zm.28-5.81a39.3,39.3,0,0,1-6.37.6,3.3,3.3,0,0,0-.25-.85,41.8,41.8,0,0,0,6-.58ZM269,286.71a5.19,5.19,0,0,0,1.43,1.49,4.31,4.31,0,0,0,1.12-1.49Zm.39-4.16c-.05-.4-.18-1.07-.3-1.58l.88-.15a15.39,15.39,0,0,1,.34,1.51Z"/><path class="cls-7" d="M276.9,284.91a24.26,24.26,0,0,0-2.21-1.28l.62-.83a24.31,24.31,0,0,1,2.2,1.19Zm-2,4.59a35.11,35.11,0,0,0,2.26-3.79l.8.75c-.61,1.23-1.41,2.67-2.12,3.79Zm2.54-7.83c-.5-.35-1.49-.92-2.2-1.32l.62-.79c.7.34,1.72.88,2.24,1.21Zm5,2.27v1.77h2.48v4.62h-1.06v-.44h-4v.5h-1v-4.68h2.52v-1.77h-3.34v-1.07h3.34v-1.7c-.84.13-1.7.22-2.5.29a3.6,3.6,0,0,0-.32-.94,27.77,27.77,0,0,0,5.7-1.09l.87.86a15.54,15.54,0,0,1-2.7.7v1.88h3.18v1.07Zm1.42,2.78h-4v2.16h4Z"/><path class="cls-7" d="M296.83,289c0,.65-.16,1-.59,1.15a6.61,6.61,0,0,1-2.24.19,4.93,4.93,0,0,0-.37-1.08c.76,0,1.56,0,1.78,0s.3-.08.3-.3v-2.15h-2.9v3.43H291.7v-3.43h-2.76a6.89,6.89,0,0,1-1.5,3.63,4.17,4.17,0,0,0-.88-.73c1.31-1.45,1.43-3.57,1.43-5.26v-4.27h8.84Zm-5.13-3.21V284h-2.61v.48c0,.41,0,.85,0,1.3Zm-2.61-4.51V283h2.61v-1.69Zm6.62,0h-2.9V283h2.9Zm0,4.51V284h-2.9v1.78Z"/><path class="cls-7" d="M156.13,60.59l-.7,1.07c-.63-.45-1.91-1.27-2.67-1.68l.68-1C154.2,59.35,155.56,60.2,156.13,60.59Zm1.21,2.82A12.29,12.29,0,0,0,161.93,59l.73,1.27A13.92,13.92,0,0,1,154,66l-.71-1.24A13.08,13.08,0,0,0,157.34,63.41Zm.59-5.47-.71,1c-.61-.45-1.9-1.3-2.64-1.72l.68-1C156,56.65,157.36,57.54,157.93,57.94Z"/><path class="cls-7" d="M173,58.12a16.22,16.22,0,0,1-2,3.42,32.62,32.62,0,0,1,3.43,3.52l-1.06.93a26.38,26.38,0,0,0-3.18-3.5,15.61,15.61,0,0,1-4.61,3.45l-1-1a13.32,13.32,0,0,0,4.93-3.51,9.79,9.79,0,0,0,1.91-3.17h-4.4c-.47,0-1.12.06-1.31.08V57a11.94,11.94,0,0,0,1.31.08h4.45a3.34,3.34,0,0,0,1-.12l.78.58A5.49,5.49,0,0,0,173,58.12Z"/><path class="cls-7" d="M177.8,59.66h7.84c.26,0,.71,0,1-.06v1.23c-.27,0-.69,0-1,0h-3.08a7.59,7.59,0,0,1-.74,3.2,5.77,5.77,0,0,1-2.39,2.23l-1.1-.8a5.14,5.14,0,0,0,2.22-1.79,5.65,5.65,0,0,0,.72-2.84H177.8c-.36,0-.77,0-1.09,0V59.6C177,59.63,177.43,59.66,177.8,59.66Zm1.49-3h4.84a9.84,9.84,0,0,0,1.2-.09v1.24c-.38,0-.83,0-1.2,0H179.3c-.4,0-.84,0-1.18,0V56.55A8.81,8.81,0,0,0,179.29,56.64Z"/><path class="cls-7" d="M193.59,57.8c-.36,1.14-1.45,4.53-2.05,6.12,1.63-.15,3.66-.38,4.94-.54A16,16,0,0,0,195.11,61l1.17-.51a35.8,35.8,0,0,1,2.64,4.93l-1.28.58c-.15-.42-.37-1-.62-1.5-1.91.23-5.74.65-7.3.79l-1.06.15-.22-1.4c.38,0,.84,0,1.2,0l.5,0c.67-1.72,1.81-5.31,2.14-6.52a7.7,7.7,0,0,0,.27-1.24l1.5.31C193.91,56.91,193.77,57.27,193.59,57.8Z"/><path class="cls-7" d="M203.51,61.68a9.36,9.36,0,0,1,1.48-5.1l.72.31a9.75,9.75,0,0,0,0,9.59l-.72.32A9.43,9.43,0,0,1,203.51,61.68Z"/><path class="cls-7" d="M213.72,61.92a5.68,5.68,0,0,0,2.11,1.36,3.76,3.76,0,0,0-.6.72,6.38,6.38,0,0,1-2.53-2.08h-3a5.83,5.83,0,0,1-.87,1h1.83v-.75h.93v.75h2v.74h-2v.89H215v.77h-7.52v-.77h3.23v-.89h-1.91V63a7,7,0,0,1-1.65,1.1,3.14,3.14,0,0,0-.6-.71,6,6,0,0,0,2.16-1.48h-2.06v-.77h1.94V58.06h-1.45v-.75h1.45v-.87h.93v.87h3.39v-.86h1v.86h1.43v.75h-1.43v3.09h1.88v.77Zm-4.23-3.86v.56h3.39v-.56Zm0,1.81h3.39V59.3h-3.39Zm0,1.28h3.39v-.6h-3.39Z"/><path class="cls-7" d="M218.07,64.31v.78h-.77V62.34a5,5,0,0,1-.33.55,6,6,0,0,0-.51-.85,10.57,10.57,0,0,0,1.23-4.24h-1V57h3.42v.83h-1.53a20.37,20.37,0,0,1-.4,2.17h1.67v4.34Zm1-3.53h-1V63.5h1Zm4.24,3.84a4.45,4.45,0,0,0,.65,0h1.93a3.05,3.05,0,0,0-.26.79h-1.72a2.6,2.6,0,0,1-2.69-1.35A3.24,3.24,0,0,1,220,65.6a2.41,2.41,0,0,0-.54-.62,3.57,3.57,0,0,0,1.32-3h.83c0,.36-.07.72-.13,1.06a2.13,2.13,0,0,0,.93,1.29V61.62h-2.34v-.76H225l.14,0,.6.19a15.72,15.72,0,0,1-.59,1.48l-.71-.26a6.5,6.5,0,0,0,.24-.61h-1.39v1h1.8v.76h-1.8Zm-2.17-5.41a5.65,5.65,0,0,1-.92,1.21,2.59,2.59,0,0,0-.4-.63,4.92,4.92,0,0,0,1.13-1.6h-.81v-.71h1v-1h.76v1h.82v.71h-.82v.17c.18.14.78.62.93.76l-.44.54c-.1-.14-.3-.37-.49-.59v1.52h-.76Zm2.69-.06a4.89,4.89,0,0,1-1,1.24,2.29,2.29,0,0,0-.39-.6,4.21,4.21,0,0,0,1.21-1.6h-.75v-.71h.93v-1h.77v1h1.15v.71h-1a4,4,0,0,0,1.13,1.62,2.86,2.86,0,0,0-.5.54,4,4,0,0,1-.81-1.17v1.41h-.77Z"/><path class="cls-7" d="M226.64,63.21l.82-.72a18.45,18.45,0,0,1,2.21,2.21l-.85.72A18.25,18.25,0,0,0,226.64,63.21Z"/><path class="cls-7" d="M237.55,62.43c-.13-.32-.42-.87-.68-1.34v4.5H236V61.36a9.33,9.33,0,0,1-1.07,2.4,4.71,4.71,0,0,0-.44-.8,10.67,10.67,0,0,0,1.43-3.57h-1.22v-.86H236v-2.1h.86v2.1h1.06v.86h-1.06V60c.28.37,1,1.5,1.18,1.77ZM243.84,64h-.59v.66c0,.42-.09.63-.38.77a4.45,4.45,0,0,1-1.38.12,3.48,3.48,0,0,0-.25-.75c.42,0,.85,0,1,0s.16,0,.16-.16V64h-3.13v1.55h-.85V64h-.64v-.7h.64V60.8h2v-.49h-2.43v-.69h1.31v-.56h-.88v-.65h.88v-.55h-1.08V57.2h1.08v-.77h.87v.77h1.37v-.77h.87v.77h1.19v.66h-1.19v.55h1v.65h-1v.56h1.39v.69H241.2v.49h2.05v2.5h.59Zm-4.59-2.53V62h1.11v-.57Zm0,1.83h1.11v-.62h-1.11Zm.86-4.89h1.37v-.55h-1.37Zm0,1.21h1.37v-.56h-1.37Zm1.09,1.85V62h1.18v-.57Zm1.18,1.83v-.62H241.2v.62Z"/><path class="cls-7" d="M250.27,63.24a9.86,9.86,0,0,0,3.54,1.29,3.52,3.52,0,0,0-.59.8,9.5,9.5,0,0,1-3.62-1.73v2h-.9v-2a9.5,9.5,0,0,1-3.59,1.76,3.62,3.62,0,0,0-.58-.77A9.68,9.68,0,0,0,248,63.24h-3.27V62.5h4V62a3.73,3.73,0,0,1-.6.3,3.64,3.64,0,0,0-.62-.62,4,4,0,0,0,.68-.32c-1.19.19-2.42.38-3.34.54l-.13-.76,1.55-.21V59.72H244.9v-.66h3.52v.66h-1.33v1.06l1.34-.21v.56a1.39,1.39,0,0,0,.49-1.14V59h3.55v1.89c0,.17,0,.28,0,.31a.16.16,0,0,0,.14,0h.21a.4.4,0,0,0,.17,0,.31.31,0,0,0,.09-.2c0-.12,0-.39,0-.74a1.71,1.71,0,0,0,.63.32,4.34,4.34,0,0,1-.12.95.57.57,0,0,1-.3.34,1.07,1.07,0,0,1-.49.1h-.47a.86.86,0,0,1-.59-.2c-.16-.15-.22-.32-.22-.9V59.63h-1.82V60A2.15,2.15,0,0,1,249,61.8h.64v.7h4v.74Zm-4.14-5.34a6.74,6.74,0,0,1-.82,1,5.34,5.34,0,0,0-.76-.52,5.25,5.25,0,0,0,1.45-2l.87.23a5.85,5.85,0,0,1-.28.56H249v.66a4.6,4.6,0,0,0,.91-1.45l.9.22a5,5,0,0,1-.28.57h3.16v.74h-2a3.65,3.65,0,0,1,.46.71l-.78.25a5.54,5.54,0,0,0-.61-1h-.68a6.18,6.18,0,0,1-.86,1,5.31,5.31,0,0,0-.81-.46,3.57,3.57,0,0,0,.54-.49h-1.65a5.13,5.13,0,0,1,.35.72l-.75.23a5.28,5.28,0,0,0-.45-1ZM250.3,60a6.24,6.24,0,0,1,1.28,1l-.57.54a6,6,0,0,0-1.24-1Z"/><path class="cls-7" d="M254.64,63.21l.82-.72a18.45,18.45,0,0,1,2.21,2.21l-.85.72A18.25,18.25,0,0,0,254.64,63.21Z"/><path class="cls-7" d="M265.6,59.38h1.8v.86h-1.8v.66c.49.36,1.53,1.26,1.8,1.5l-.53.79c-.27-.32-.81-.87-1.27-1.32v3.71h-.91v-4A10.35,10.35,0,0,1,263,64.28a6,6,0,0,0-.49-.9,9.84,9.84,0,0,0,2-3.14h-1.81v-.86h2V57.9c-.61.11-1.23.21-1.81.28a2.76,2.76,0,0,0-.28-.72,17.9,17.9,0,0,0,4.06-1l.67.71a12.74,12.74,0,0,1-1.73.52Zm3.29,3.73H268V57.62h.9Zm2.42-6.49v7.8c0,.58-.14.85-.49,1a6.08,6.08,0,0,1-1.88.17,4.21,4.21,0,0,0-.33-1c.68,0,1.31,0,1.51,0s.26-.06.26-.24v-7.8Z"/><path class="cls-7" d="M281.05,64.43c0,.54-.13.82-.49,1a5.47,5.47,0,0,1-1.87.16,3.84,3.84,0,0,0-.31-.9c.64,0,1.3,0,1.49,0s.25-.06.25-.25V62.63H277.7v2.86h-.93V62.63h-2.29a5.74,5.74,0,0,1-1.25,3,3.08,3.08,0,0,0-.73-.61c1.09-1.21,1.19-3,1.19-4.39V57.11h7.36Zm-4.28-2.68V60.27h-2.16v.4c0,.34,0,.71,0,1.08ZM274.61,58V59.4h2.16V58Zm5.51,0H277.7V59.4h2.42Zm0,3.76V60.27H277.7v1.48Z"/><path class="cls-7" d="M282.63,66.48a9.75,9.75,0,0,0,0-9.59l.72-.31a9.51,9.51,0,0,1,0,10.22Z"/><path class="cls-7" d="M326.76,56a20.84,20.84,0,0,1-1.17,2.43v8.18h-1.06V60a10.85,10.85,0,0,1-1.11,1.33,7,7,0,0,0-.62-1.12,12.88,12.88,0,0,0,2.92-4.6Zm4.51,6.4a9,9,0,0,0,3,2.88,5.08,5.08,0,0,0-.78.89,10.17,10.17,0,0,1-2.78-3v3.47h-1.12V63.21a9.77,9.77,0,0,1-2.93,2.91,4.64,4.64,0,0,0-.76-.89,8.79,8.79,0,0,0,3.1-2.86h-2.72v-1h3.31V60.06h-2.47V56.15h6.2v3.91h-2.61v1.31h3.23v1Zm-3.14-3.31h4.05V57.13h-4.05Z"/><path class="cls-7" d="M345.76,61.2h-3v4c0,.67-.17,1-.64,1.18a8.15,8.15,0,0,1-2.35.18,5.53,5.53,0,0,0-.39-1.12c.81,0,1.66,0,1.92,0s.32-.06.32-.26v-4h-6.4V60.11h6.4v-1.6h1.14v1.6h3Zm-9.16-1.7h-1.13V56.86h4.39V55.6H341v1.26h4.43V59.5h-1.18V57.91H336.6Zm.88,2.18a10.78,10.78,0,0,1,1.95,2.42l-1,.64a11.35,11.35,0,0,0-1.86-2.5Z"/><path class="cls-7" d="M353.87,61.1a1.39,1.39,0,1,1-1.39-1.39A1.39,1.39,0,0,1,353.87,61.1Z"/><path class="cls-7" d="M361.57,64.09a3.17,3.17,0,0,0,2.79,1.26c1.36.06,4.14,0,5.66-.09a5.07,5.07,0,0,0-.36,1.1c-1.38.06-3.92.08-5.31,0A4,4,0,0,1,361.1,65c-.5.49-1,1-1.62,1.49l-.55-1.1a16.14,16.14,0,0,0,1.57-1.23V61.28h-1.44v-1h2.51ZM361,58.52a8.47,8.47,0,0,0-1.85-2l.86-.62a9,9,0,0,1,1.89,1.92Zm4.37,5.54h-3.28v-.83h3.28v-.59h-2.51V59.21h2.51v-.6h-2.83V57.8h2.83v-.74h1.09v.74h2.88v.81h-2.88v.6H369v3.43h-2.59v.59h3.38v.83h-3.38v1h-1.09Zm-2.13-6.48h-1V56h7.4v1.59h-1v-.76h-5.39Zm.58,3h1.55v-.65h-1.55Zm1.55,1.34v-.67h-1.55v.67Zm1.09-2v.65H368v-.65ZM368,61.25h-1.59v.67H368Z"/><path class="cls-7" d="M381.15,65.2c0,.65-.16,1-.59,1.16a6.64,6.64,0,0,1-2.24.19,4.49,4.49,0,0,0-.38-1.08c.77,0,1.56,0,1.79,0s.3-.07.3-.3V63.05h-2.9v3.43H376V63.05h-2.75a7,7,0,0,1-1.5,3.63,3.64,3.64,0,0,0-.88-.73c1.31-1.45,1.43-3.58,1.43-5.27V56.41h8.84ZM376,62V60.22h-2.6v.47c0,.41,0,.86-.05,1.3Zm-2.6-4.51v1.69H376V57.48Zm6.62,0h-2.9v1.69H380ZM380,62V60.22h-2.9V62Z"/><path class="cls-7" d="M415.91,62.63a11.24,11.24,0,0,1-.81,3.05,5.17,5.17,0,0,0-.85-.42,9,9,0,0,0,.71-2.8Zm1.41-1v4.94h-1V61.74c-.69,0-1.32.07-1.88.11l-.09-1,.84,0c.23-.29.45-.6.69-.94a13.54,13.54,0,0,0-1.51-1.68l.54-.74.33.29a14.27,14.27,0,0,0,1-2.17l1,.36c-.44.81-.94,1.76-1.37,2.41a8.13,8.13,0,0,1,.59.69A21.89,21.89,0,0,0,417.67,57l.95.4a37.75,37.75,0,0,1-2.39,3.41l1.59-.06a9.66,9.66,0,0,0-.5-1l.8-.35a10,10,0,0,1,1.16,2.46l-.86.41a5.49,5.49,0,0,0-.21-.67Zm1.1.72a12.43,12.43,0,0,1,.78,2.26l-.88.32a13.21,13.21,0,0,0-.73-2.31Zm7.07,2.86v1h-7v-1h1.19v-9h4.92v9Zm-4.69-8v2h2.7v-2Zm2.7,3h-2.7v2h2.7Zm-2.7,5h2.7V63.2h-2.7Z"/><path class="cls-7" d="M429.18,64A3.26,3.26,0,0,0,432,65.3c1.33,0,4,0,5.49-.08a5.08,5.08,0,0,0-.37,1.14c-1.36.06-3.77.08-5.13,0A4.1,4.1,0,0,1,428.69,65c-.57.49-1.14,1-1.77,1.49l-.57-1.15a18.94,18.94,0,0,0,1.74-1.24V61.28h-1.54v-1h2.63Zm-.55-5.6a9.25,9.25,0,0,0-2-1.9l.83-.67a9.56,9.56,0,0,1,2.05,1.84Zm5.24-2.29c.24,3.54,1.08,6.38,3.5,7.62a4.7,4.7,0,0,0-.88.85,7,7,0,0,1-3-4.43,8.27,8.27,0,0,1-3,4.43,6.45,6.45,0,0,0-.88-.84,7.37,7.37,0,0,0,3.12-5.26l.41.06c-.07-.44-.12-.91-.17-1.38H430.8V56.15Z"/><path class="cls-7" d="M441.5,56.79c.65,0,2.1-.08,2.63-.11a3.08,3.08,0,0,0,.69-.15l.76.6a2.09,2.09,0,0,0-.36.45,28.38,28.38,0,0,0-1.3,2.73,10.71,10.71,0,0,1,3,.89,5.82,5.82,0,0,0,.07-.68,6.7,6.7,0,0,0,0-1.19l1.25.13a20.77,20.77,0,0,1-.24,2.28c.54.31,1,.61,1.37.87l-.56,1.3a14.41,14.41,0,0,0-1.15-.9,5.75,5.75,0,0,1-3.1,3.43l-1-.83a5.17,5.17,0,0,0,3.11-3.22,8.41,8.41,0,0,0-3.18-1,25.89,25.89,0,0,1-1.44,3,1.86,1.86,0,0,1-1.67.92,1.64,1.64,0,0,1-1.68-1.77c0-1.82,1.66-3.2,4-3.28.4-.87.81-1.81,1.13-2.47-.48,0-1.76.07-2.3.1a8.47,8.47,0,0,0-.94.09l-.05-1.23C440.87,56.77,441.25,56.79,441.5,56.79Zm-1.09,7.29a.81.81,0,0,0,.67-.41,13.39,13.39,0,0,0,1.16-2.34c-1.57.17-2.47,1.13-2.47,2A.64.64,0,0,0,440.41,64.08Z"/><path class="cls-7" d="M457.31,61.1a1.39,1.39,0,1,1-1.39-1.39A1.39,1.39,0,0,1,457.31,61.1Z"/><path class="cls-7" d="M467.19,58.46h-4.78v-.88h4.78ZM466.7,66h-2.77v.5h-1v-4h3.75ZM463,59.21h3.77v.86H463Zm0,1.59h3.77v.88H463Zm3.78-3.93H463V56h3.71Zm-2.82,6.45v1.73h1.78V63.32Zm9.62-2.59H471V66.6h-1.13V60.73h-2.67v-1.1h2.67v-4H471v4h2.59Z"/><path class="cls-7" d="M475,58.88A7.53,7.53,0,0,1,477,60l-.65.9a8.12,8.12,0,0,0-1.92-1.16Zm1.21,3.19.91.59c-.44,1.26-1,2.68-1.51,3.79l-1-.57A33.15,33.15,0,0,0,476.22,62.07Zm-.71-6.35a7.68,7.68,0,0,1,1.9,1.16l-.68.89a8.55,8.55,0,0,0-1.84-1.26Zm3.6,8.44a8.48,8.48,0,0,1-1.66,2.48,7.86,7.86,0,0,0-.87-.6,6.28,6.28,0,0,0,1.51-2.15Zm2.08-8.06v7.61h-3.52V56.1Zm-2.57,2.23h1.59V57.07h-1.59Zm0,2.21h1.59V59.26h-1.59Zm0,2.18h1.59V61.44h-1.59Zm2,1.11a14.92,14.92,0,0,1,1.32,1.82l-.9.55a12.35,12.35,0,0,0-1.27-1.91Zm2.35-7v6.83h-1V56.82ZM485,55.6v9.68c0,.62-.13.93-.51,1.11a5.09,5.09,0,0,1-1.92.21,3.82,3.82,0,0,0-.32-1.07c.67,0,1.28,0,1.48,0s.25-.06.25-.25V55.6Z"/><path class="cls-7" d="M493.31,61.1a1.39,1.39,0,1,1-1.39-1.39A1.39,1.39,0,0,1,493.31,61.1Z"/><path class="cls-7" d="M502.36,59.36h2.76v1h-2.76v1.07h2.4V64.6c0,.46-.07.75-.38.92a3,3,0,0,1-1.39.16,3,3,0,0,0-.3-.94c.43,0,.79,0,.91,0s.16,0,.16-.16V62.45h-1.4v4.16h-1.05V62.45H500v3.2h-1v-4.2h2.3V60.38h-2.82v-1h.83a8,8,0,0,0-.94-.38,9,9,0,0,0,1.15-3.12l1.05.22-.31,1.18h1V55.67h1.05v1.59h2.3v1h-2.3Zm-1.05,0V58.27h-1.4a6.52,6.52,0,0,1-.53,1.09Zm5.58,3.93h-1V56.65h1Zm2.16-7.52v9.41c0,.67-.15,1-.54,1.18a5.19,5.19,0,0,1-2,.21,5,5,0,0,0-.36-1.14c.67,0,1.32,0,1.52,0s.26-.06.26-.25V55.77Z"/><path class="cls-7" d="M517.89,64.34l0,.94c-1.63.26-3.36.54-4.62.7l-.24-1,.62-.08V61.31h.87V64.8l.82-.11V60.53h-1.94v-1h1.94V57.84h-.72a7.59,7.59,0,0,1-.7,1.37,6.94,6.94,0,0,0-.69-.45c-.18.35-.37.7-.58,1.05V66.6h-1V61.28a10.46,10.46,0,0,1-.88,1,9.06,9.06,0,0,0-.62-1A11.68,11.68,0,0,0,512.51,58l.84.3a9.36,9.36,0,0,0,1-2.73l1,.2a10.37,10.37,0,0,1-.28,1.06h2.69v1h-1.34v1.67h1.4v1h-1.4v1.26h1.33v1h-1.33v1.81ZM513.29,56a12,12,0,0,1-2.43,2.8c-.13-.22-.41-.64-.57-.85a8.9,8.9,0,0,0,2-2.32Zm7.93,7.79c0,.45-.05.77-.33,1a1.94,1.94,0,0,1-1.2.2,3.47,3.47,0,0,0-.3-1h.71c.09,0,.14,0,.14-.17V57.49h-1.13v9.12h-1V56.5h3.11Z"/><path class="cls-7" d="M459.46,245.59h9.18a9.83,9.83,0,0,0,1.27-.09v1.82c-.35,0-.88,0-1.27,0h-3.38a8.9,8.9,0,0,1-.89,3.6,6.69,6.69,0,0,1-2.82,2.69l-1.64-1.19a5.82,5.82,0,0,0,2.54-2,6,6,0,0,0,.86-3.1h-3.85c-.42,0-.95,0-1.34.06V245.5C458.54,245.54,459,245.59,459.46,245.59Zm1.78-3.58h5.63a11.07,11.07,0,0,0,1.52-.09v1.8c-.48,0-1-.05-1.52-.05h-5.61c-.5,0-1.08,0-1.52.05v-1.8A10.79,10.79,0,0,0,461.24,242Z"/><path class="cls-7" d="M478.1,243.16a.43.43,0,0,1,0,.07h2.81a4.38,4.38,0,0,0,1.22-.17l1.43.89a5.57,5.57,0,0,0-.46,1,14.63,14.63,0,0,1-2.44,4.67,12.94,12.94,0,0,1-5.66,4l-1.65-1.48a11.11,11.11,0,0,0,5.64-3.46,9.77,9.77,0,0,0,2-3.82H477a16.06,16.06,0,0,1-3.53,3.39L471.91,247a12.31,12.31,0,0,0,4.37-4.51,6.85,6.85,0,0,0,.63-1.47l2,.67C478.63,242.22,478.27,242.86,478.1,243.16Z"/><path class="cls-7" d="M496,244a19.69,19.69,0,0,1-2.63,5.14,14,14,0,0,1-5.31,4.06l-1.6-1.64a12.11,12.11,0,0,0,5.33-3.64,14.2,14.2,0,0,0,2.64-6.05l2.19.56C496.36,242.91,496.16,243.53,496,244Z"/><path class="cls-7" d="M502.18,242.76h7.7c.35,0,.88,0,1.39,0,0,.42,0,.94,0,1.36V251c0,.55,0,1.89,0,2h-1.94s0-.35,0-.76H502.6c0,.39,0,.72,0,.76h-1.93c0-.07,0-1.29,0-2v-6.85c0-.39,0-1,0-1.36Zm.42,7.59h6.76v-5.81H502.6Z"/><path class="cls-7" d="M518.11,246.8l-1,1.57c-.8-.56-2.26-1.49-3.2-2l1-1.54A37.63,37.63,0,0,1,518.11,246.8Zm1.12,3.2a14.23,14.23,0,0,0,5.45-5.25l1.08,1.9a16.89,16.89,0,0,1-5.56,5,17.86,17.86,0,0,1-4.68,1.73l-1-1.84A14.83,14.83,0,0,0,519.23,250Zm1-6.36-1,1.54c-.79-.55-2.25-1.48-3.17-2l1-1.54C518,242.14,519.52,243.12,520.25,243.64Zm4.18.43-1.22.52a13.54,13.54,0,0,0-1.23-2.2l1.17-.49A24.71,24.71,0,0,1,524.43,244.07Zm2-.75-1.19.53a13.58,13.58,0,0,0-1.32-2.13l1.19-.49A17.49,17.49,0,0,1,526.39,243.32Z"/><path class="cls-7" d="M105.15,92.63a21.19,21.19,0,0,1-1.88,3.81,35.28,35.28,0,0,1,3.36,3.09l-1.44,1.6a28.44,28.44,0,0,0-3.11-3.1,17.38,17.38,0,0,1-5.21,4.33L95.3,101a15.39,15.39,0,0,0,5.32-4.14,40.27,40.27,0,0,0-3.78-2.66L98,92.72c1.12.69,2.59,1.7,3.73,2.54a14.47,14.47,0,0,0,1.55-3.34,8.65,8.65,0,0,0,.34-1.28l2.09.72C105.55,91.69,105.29,92.3,105.15,92.63Z"/><path class="cls-7" d="M113.47,95.29l-1.84,1a31.69,31.69,0,0,0-2.37-4.23l1.79-.93A46.33,46.33,0,0,1,113.47,95.29ZM116.14,97a11.12,11.12,0,0,0,1.65-4.23,8.15,8.15,0,0,0,.18-1.7l2.27.31c-.17.55-.32,1.23-.42,1.64A14.71,14.71,0,0,1,117.87,98a11.9,11.9,0,0,1-4.86,4.3l-1.66-1.43A10.69,10.69,0,0,0,116.14,97Z"/><path class="cls-7" d="M125.89,92.47a9.64,9.64,0,0,0-.14-1.69h2.19a14.18,14.18,0,0,0-.13,1.69v2a49.16,49.16,0,0,1,5.86,2.18l-.79,2a38.69,38.69,0,0,0-5.07-2.09v4c0,.39.07,1.37.14,1.94h-2.2a14.07,14.07,0,0,0,.14-1.94Zm6.87.88-1.22.55a12.28,12.28,0,0,0-1.24-2.17l1.18-.49C131.87,91.83,132.43,92.72,132.76,93.35Zm1.87-.81-1.17.58A12.89,12.89,0,0,0,132.15,91l1.16-.54A17.72,17.72,0,0,1,134.63,92.54Z"/><path class="cls-7" d="M139.18,91.76h7.7c.35,0,.88,0,1.39,0,0,.42,0,.94,0,1.36V100c0,.55,0,1.89,0,2h-1.94s0-.35,0-.76H139.6c0,.39,0,.72,0,.76h-1.93c0-.07,0-1.29,0-2V93.09c0-.39,0-1,0-1.36Zm.42,7.59h6.76V93.54H139.6Z"/><path class="cls-7" d="M155.11,95.81l-1,1.56c-.8-.56-2.26-1.49-3.2-2l1-1.54A35.22,35.22,0,0,1,155.11,95.81ZM156.23,99a14.23,14.23,0,0,0,5.45-5.25l1.08,1.9a16.89,16.89,0,0,1-5.56,5,17.86,17.86,0,0,1-4.68,1.73l-1.05-1.84A14.83,14.83,0,0,0,156.23,99Zm1-6.36-1,1.54c-.79-.55-2.25-1.48-3.17-2l1-1.54C155,91.14,156.52,92.12,157.25,92.64Zm4.18.43-1.22.52a13.54,13.54,0,0,0-1.23-2.2l1.17-.49A24.71,24.71,0,0,1,161.43,93.07Zm2-.75-1.19.53a13.58,13.58,0,0,0-1.32-2.13l1.19-.49A17.49,17.49,0,0,1,163.39,92.32Z"/><path class="cls-7" d="M454.07,213.68v1.09H443.29v-1.09H446v-2.59h-2.22V210H446v-2.32h1.15V210h3.09v-2.32h1.16V210h2.31v1.08h-2.31v2.59Zm-6.39,2.13a13.42,13.42,0,0,1-3.37,2.8,8.39,8.39,0,0,0-.9-.78,10.56,10.56,0,0,0,3.1-2.47Zm-.56-2.13h3.09v-2.59h-3.09Zm3.48,1.64a40.33,40.33,0,0,1,3.31,2.63l-1.08.65a35.53,35.53,0,0,0-3.22-2.7Z"/><path class="cls-7" d="M459.51,210.14c-.19.41-.41.82-.62,1.2h5.65v6c0,.6-.12.94-.55,1.11a6.22,6.22,0,0,1-2.09.18,4.12,4.12,0,0,0-.35-1.08c.71,0,1.43,0,1.63,0s.27-.06.27-.24v-1h-4.69v2.34h-1.11v-5.5a8.88,8.88,0,0,1-1.8,1.66,5.37,5.37,0,0,0-.73-.86,10,10,0,0,0,3.16-3.77h-2.83v-1h3.28a14,14,0,0,0,.51-1.5l1.14.26c-.14.41-.27.83-.42,1.24h6v1Zm3.94,2.17h-4.69v1h4.69Zm0,3v-1h-4.69v1Z"/><path class="cls-7" d="M471.2,213.77l-1.37.4v3.15c0,.58-.12.88-.46,1.05a4.16,4.16,0,0,1-1.71.19,4.75,4.75,0,0,0-.33-1h1.17c.17,0,.24-.06.24-.23v-2.84l-1.32.36-.28-1.07,1.6-.38V211h-1.47v-1h1.47v-2.34h1.09V210h1.26v1h-1.26v2.11l1.23-.32Zm6.47-1.46a8.76,8.76,0,0,1-2.34,4,8.39,8.39,0,0,0,2.95,1.39,3.67,3.67,0,0,0-.72,1,8.57,8.57,0,0,1-3.1-1.62,10.32,10.32,0,0,1-3.28,1.6,4.9,4.9,0,0,0-.6-1,9.31,9.31,0,0,0,3.08-1.37,9.72,9.72,0,0,1-1.86-3.09l.16,0h-.48v-1H474v-1.64h-2.69v-1H474v-1.8h1.1v1.8h2.77v1h-2.77v1.64h1.7l.2,0Zm-4.78.77a7.82,7.82,0,0,0,1.61,2.47,7,7,0,0,0,1.75-2.47Z"/><path class="cls-7" d="M485.08,211.21v7.22h-1v-7.22h-1.69v-.64a13.11,13.11,0,0,1-.88,1.53v6.51h-1v-5.16a8.81,8.81,0,0,1-.91.92,8.76,8.76,0,0,0-.62-1,9.67,9.67,0,0,0,2.53-3.35l.91.3v-.15H484v-2.4h1v2.4h1.71v1ZM482.15,208a11.81,11.81,0,0,1-2.49,2.82,9.86,9.86,0,0,0-.6-.84,7.87,7.87,0,0,0,2.07-2.34Zm1.34,4.69a13.46,13.46,0,0,1-.89,4.4,4.76,4.76,0,0,0-.75-.53,12.52,12.52,0,0,0,.73-4Zm2.72-2.76a7.78,7.78,0,0,0-.89-1.66l.73-.33a7.47,7.47,0,0,1,.94,1.62Zm.14,2.66a22.4,22.4,0,0,1,.6,3.54l-.87.16a27.89,27.89,0,0,0-.55-3.54Zm3.82,0h-1v4.77c0,.55-.08.87-.46,1.07a4.84,4.84,0,0,1-1.74.18,4.66,4.66,0,0,0-.31-1.08c.57,0,1.08,0,1.25,0s.2-.05.2-.21v-4.74h-1.22v-1h3.3Zm-.18-3.32h-2.83v-1H490Z"/><path class="cls-7" d="M6.89,1.3A15.61,15.61,0,0,1,5.7,3,9.2,9.2,0,0,1,6.42,7.1c0,1.69-.13,3.31-.68,4.05a1.32,1.32,0,0,1-.78.5,5.47,5.47,0,0,1-1.6.11A2.8,2.8,0,0,0,3,10.38a7.24,7.24,0,0,0,1.32,0,.48.48,0,0,0,.38-.22,6.67,6.67,0,0,0,.39-2.89A12.19,12.19,0,0,1,3.51,8.9a4.4,4.4,0,0,0-.95-1.07A8.13,8.13,0,0,0,5,5.27a5.4,5.4,0,0,0-.28-1.12,9.06,9.06,0,0,1-1.15,1,6.62,6.62,0,0,0-1-.93A8.81,8.81,0,0,0,4.1,2.85,7.17,7.17,0,0,0,2.73,1.38l1-.78A7.27,7.27,0,0,1,4.92,1.81,7.88,7.88,0,0,0,5.63.67Zm4.2,6.17a5.36,5.36,0,0,0,2.94,3,6.41,6.41,0,0,0-.94,1.28,6.34,6.34,0,0,1-2.85-3.19,6.82,6.82,0,0,1-3.15,3.23,6.35,6.35,0,0,0-1-1.13,5.18,5.18,0,0,0,3.1-3.21H6.73V6.14H9.42a12.6,12.6,0,0,0,.06-1.36V3.51H7V2.19H9.48V.57H11V2.19h2.62V3.51H11v1.3a12.31,12.31,0,0,1-.08,1.33h2.89V7.47ZM8.34,3.62A9.31,9.31,0,0,1,9,5.73L7.8,6.11A8.55,8.55,0,0,0,7.2,4Zm3,2.16a16.75,16.75,0,0,0,.76-2.2l1.33.36c-.33.79-.66,1.62-.94,2.17Z"/><path class="cls-7" d="M5.13,340.12c0,1.89-.2,4.82-1.32,6.63A5.49,5.49,0,0,0,2.58,346c1-1.69,1.12-4.15,1.12-5.84v-3H7.92v-1.51H9.41v1.51h4.33v1.37H5.13Zm7.4,6.68a7.84,7.84,0,0,0-.41-1c-2.53.2-5.22.39-7.08.5l-.13-1.48,1.4,0A37.49,37.49,0,0,0,7.89,339l1.63.32a53.18,53.18,0,0,1-1.67,5.32c1.14,0,2.4-.1,3.63-.18a23.09,23.09,0,0,0-1.4-2.21l1.33-.58A19.05,19.05,0,0,1,14,346.14Z"/><path class="cls-7" d="M45.52,359a19,19,0,0,1-1.15,2.47v8.24H43v-6.13a11.35,11.35,0,0,1-.81,1,9.33,9.33,0,0,0-.76-1.47,12.77,12.77,0,0,0,2.72-4.5Zm5,4.84c.26,2.33.75,4.11,1.21,4.11.19,0,.28-.52.31-1.62a3.59,3.59,0,0,0,1.11.74c-.19,1.85-.62,2.26-1.56,2.26-1.37,0-2.14-2.44-2.48-5.49H47v2.34c.69-.09,1.44-.21,2.16-.32l.07,1.27c-1.41.24-2.94.48-4.11.66l-.28-1.32.77-.09v-6.79l.92.3a26.21,26.21,0,0,0,4.79-1l1,1.09a19.46,19.46,0,0,1-2.1.53c0,.69,0,1.39.08,2.06h2.5v1.28Zm-5.2,4.39h4.8v1.26H45.3ZM49,362.6c0-.59-.07-1.2-.09-1.8-.63.1-1.25.18-1.85.25v1.55Z"/><path class="cls-7" d="M535.53,358.57v1.21H525.05v-1.21h4.44v-1h1.45v1Zm-.38,8.69c0,.66-.13,1.05-.6,1.26a4.69,4.69,0,0,1-1.94.23,4.28,4.28,0,0,0-.28-1h-3.09v.54H528V365.1h4.58v2.33h.91c.18,0,.23-.05.23-.19v-2.68h-6.79v4.21h-1.39v-5.39h9.62Zm-1.58-7v2.64H527v-2.64Zm-1.45.95h-3.75v.73h3.75Zm-.81,4.87h-2.07v.78h2.07Z"/><path class="cls-7" d="M342.34,131.17v6.44h-1.1V127.08h4.45v4.09Zm0-3.27v.81h2.3v-.81Zm2.3,2.45v-.87h-2.3v.87Zm3.18,4.46v2.58h-1v-2.58h-1.46a3.8,3.8,0,0,1-1.57,2.76,3.82,3.82,0,0,0-.72-.66,2.88,2.88,0,0,0,1.32-2.1H343v-.92h1.4v-1.14h-1.19v-.89h5.82v.89h-1.25v1.14h1.49v.92Zm-1-.92v-1.14H345.4v1.14Zm4.33,2.35c0,.61-.12.94-.52,1.13a4.74,4.74,0,0,1-1.88.2,3.63,3.63,0,0,0-.36-1.1h1.41c.18,0,.24-.07.24-.25v-5h-3.44v-4.11h4.55Zm-3.48-8.34v.81h2.37v-.81Zm2.37,2.48v-.9h-2.37v.9Z"/><path class="cls-7" d="M360.17,131.79v1.58h2.71v1h-2.71v1.64c0,.41.06.47.44.47h1.17c.34,0,.4-.24.45-1.43a3.06,3.06,0,0,0,1,.43c-.1,1.55-.41,2-1.35,2h-1.46c-1.13,0-1.4-.32-1.4-1.46v-1.64h-1.91c-.23,1.27-1,2.47-3.25,3.25a3.52,3.52,0,0,0-.71-.88c1.85-.61,2.56-1.48,2.81-2.37h-2.54v-1h2.67v-1.58h-1.16v-.43a10.57,10.57,0,0,1-1.7,1,3.69,3.69,0,0,0-.68-.84,8.33,8.33,0,0,0,2.23-1.42,11.7,11.7,0,0,0-1.32-1.15l.7-.59a10.68,10.68,0,0,1,1.32,1,7.51,7.51,0,0,0,1-1.37H353.7v-1H357l.2,0,.74.35a8.35,8.35,0,0,1-2.24,3.35h5a11.07,11.07,0,0,1-2.44-3.83l1-.29A9.78,9.78,0,0,0,360,128a11.19,11.19,0,0,0,1.29-1.29l.84.59a18.61,18.61,0,0,1-1.65,1.4c.21.28.43.54.66.8a13.73,13.73,0,0,0,1.55-1.43l.83.57a16.48,16.48,0,0,1-1.75,1.44,7.46,7.46,0,0,0,2.07,1.26,4.51,4.51,0,0,0-.77,1,7.72,7.72,0,0,1-1.6-1v.43Zm-1.15,0h-1.83v1.58H359Z"/><path class="cls-7" d="M442.64,135.11l-1.25.22a5.71,5.71,0,0,1-3.07,3.41,5.19,5.19,0,0,0-.79-.84,4.91,4.91,0,0,0,2.56-2.34l-2.73.47-.22-1.1,3.34-.48a6,6,0,0,0,.13-1.25V133h-2.88v-1h2.88v-1.66h-3v-1h3v-1.64h1.12v5.54a7.12,7.12,0,0,1-.09,1.07l.95-.15Zm5.5.67H444.6v2.82h-1.12V127.66h1.12v1.64h3.33v1H444.6V132h3.07v1H444.6v1.7h3.54Z"/><path class="cls-7" d="M459.41,135a6.26,6.26,0,0,1-1.38,1.89c.3.52.65.79,1,.79s.44-.26.5-1.27a2.57,2.57,0,0,0,.74.49c-.17,1.35-.48,1.73-1.32,1.73a2,2,0,0,1-1.69-1.12,8.41,8.41,0,0,1-1.95,1.1,4.41,4.41,0,0,0-.6-.72,7.42,7.42,0,0,0,2.14-1.2,10.59,10.59,0,0,1-.59-2.14h-1.64c0,.21,0,.4-.07.59a10.82,10.82,0,0,1,1.54,1.13l-.59.76a10.86,10.86,0,0,0-1.14-.93,4.17,4.17,0,0,1-1.57,2.49,2.86,2.86,0,0,0-.66-.73,4.19,4.19,0,0,0,1.5-3.31h-.81v-.6l-.4.58c-.15-.37-.45-1-.73-1.59v5.67h-1v-5a12.55,12.55,0,0,1-1.15,2.83,6,6,0,0,0-.52-.94,13.91,13.91,0,0,0,1.57-4.29H449.3v-1h1.42V127.6h1v2.53h1.18v1h-1.18v.51c.3.44,1,1.57,1.23,2h3.19a45.52,45.52,0,0,1-.36-6h1c0,.7,0,1.38,0,2l.38-.53.24.18a12,12,0,0,0,.67-1.61l.87.33c-.34.58-.7,1.26-1,1.74a4.21,4.21,0,0,1,.42.44c.27-.46.51-.9.69-1.28l.79.37c-.49.81-1.11,1.77-1.66,2.52l1-.07c-.08-.21-.17-.41-.26-.59l.65-.27a6.39,6.39,0,0,1,.68,1.75l-.68.32c0-.15-.08-.32-.12-.48l-1.22.13a5.79,5.79,0,0,1,1.12.81l-.25.24h1v.89h-2.83a9.12,9.12,0,0,0,.37,1.42,5.78,5.78,0,0,0,.84-1.32Zm-6.28-3c.25-.32.5-.7.77-1.11a8.78,8.78,0,0,0-1.24-1.18l.44-.61.25.19a17.47,17.47,0,0,0,.67-1.62l.85.34c-.33.59-.67,1.26-1,1.74.15.14.3.3.42.43.26-.46.5-.9.68-1.28l.79.37c-.51.86-1.16,1.88-1.75,2.67l.92-.06c-.07-.22-.16-.45-.25-.66l.65-.22a6.11,6.11,0,0,1,.61,1.75l-.69.28a3.56,3.56,0,0,0-.09-.39c-.83.09-1.61.18-2.31.24l-.16-.85Zm4.16-.15c.22-.28.44-.61.67-1a8.94,8.94,0,0,0-1.16-1.13,32.3,32.3,0,0,0,.31,3.87h1.36a5.7,5.7,0,0,0-.81-.58l.51-.47-1.08.12-.17-.83Z"/><path class="cls-7" d="M465.54,128.41a11.19,11.19,0,0,1,1.5,2.7l-1,.41c-.06-.19-.16-.42-.26-.67l-4.52.27-.1-1.06.91,0a17.18,17.18,0,0,0,1-2.46l1.16.27c-.3.71-.66,1.48-1,2.14l2-.09a10.93,10.93,0,0,0-.68-1.11Zm.68,9c0,.52-.11.81-.46,1a4.24,4.24,0,0,1-1.63.18,4.12,4.12,0,0,0-.37-1c.5,0,1,0,1.17,0s.19-.05.19-.2v-1.13h-2.21v2.33h-1v-6.74h4.35Zm-3.31-4.62v.85h2.21v-.85Zm2.21,2.61v-.91h-2.21v.91Zm3.7-2.53c-1.26,0-1.57-.31-1.57-1.45v-3.79h1.12v1.87a19.89,19.89,0,0,0,2.49-1.05l.72.8a25.59,25.59,0,0,1-3.21,1.16v1c0,.4.08.47.58.47h1.64c.43,0,.5-.19.55-1.31a2.86,2.86,0,0,0,1,.41c-.12,1.5-.44,1.89-1.46,1.89Zm1.85,4.67c.47,0,.55-.23.6-1.51a3.93,3.93,0,0,0,1,.42c-.13,1.63-.44,2.06-1.49,2.06h-1.93c-1.26,0-1.59-.32-1.59-1.44v-3.9h1.1v1.78a13.57,13.57,0,0,0,2.63-1.2l.72.81a16.7,16.7,0,0,1-3.35,1.31v1.19c0,.41.1.48.63.48Z"/><path class="cls-7" d="M481.77,135a5.11,5.11,0,0,1-1.33,1.75c1.26.34,2.4.7,3.26,1l-.66.91a35.68,35.68,0,0,0-3.7-1.22,15.09,15.09,0,0,1-5.47,1.19,2.94,2.94,0,0,0-.42-1,17.44,17.44,0,0,0,4.29-.63c-.56-.14-1.14-.26-1.73-.39l-.19.26-1.07-.35c.34-.43.75-1,1.16-1.57h-2.65v-.91h3.27c.22-.32.43-.65.61-1h-3.06v-3.19h2.62v-.86h-3.19v-1h10.28v1h-3.3v.86h2.85v3.19h-5.13l.18.05c-.18.29-.37.59-.58.9h6.28V135Zm-6.64-2.76h1.57v-1.39h-1.57ZM477.2,135l-.6.85c.85.17,1.72.36,2.54.57a4.07,4.07,0,0,0,1.38-1.42Zm.56-5.05h1.67v-.86h-1.67Zm1.67,2.29v-1.39h-1.67v1.39Zm1.06-1.39v1.39h1.75v-1.39Z"/><path class="cls-7" d="M488.83,128a18.16,18.16,0,0,1-1.18,2.59v8h-1v-6.35a12.78,12.78,0,0,1-.94,1.16,8.38,8.38,0,0,0-.61-1.13,13.48,13.48,0,0,0,2.74-4.61Zm7.28,6.57h-3.18v4.07h-1.11v-4.07h-3.33v-1.09h3.33v-2.38h-1.71a8.33,8.33,0,0,1-.8,1.69,7.38,7.38,0,0,0-1-.53,10.83,10.83,0,0,0,1.43-4l1.08.22c-.11.51-.24,1-.39,1.53h1.35v-2.23h1.11V130h2.64v1.09h-2.64v2.38h3.18Z"/></g></g></svg>