<svg xmlns="http://www.w3.org/2000/svg" viewBox="0 0 429.99 406.82"><defs><style>.cls-1,.cls-2,.cls-3{fill:none;stroke-miterlimit:10;stroke-width:6.82px;}.cls-1{stroke:#f4d770;}.cls-2{stroke:#27a5b8;}.cls-3{stroke:#bfcf45;}.cls-4{fill:#262626;}.cls-5{fill:#eda420;}.cls-6{fill:#fcfcfc;}</style></defs><g id="レイヤー_2" data-name="レイヤー 2"><g id="レイヤー_1-2" data-name="レイヤー 1"><circle class="cls-1" cx="219.74" cy="155.71" r="152.3"/><circle class="cls-2" cx="274.28" cy="250.42" r="152.3"/><circle class="cls-3" cx="155.71" cy="251.11" r="152.3"/><path class="cls-4" d="M341.11,304.41h-6.64v-1.75l1.78-.82v-9.45l-1.78-.82v-1.76h6.64v1.76l-1.78.82v9.45l1.78.82Z"/><path class="cls-4" d="M349.25,304.41h-3.1v-12h-4v-2.58h11v2.58h-4Z"/><path class="cls-4" d="M377.46,291.81s0,.84-.06,1.17c-.41,8.14-.82,11.21-1.72,12.28a2.78,2.78,0,0,1-2.09,1.14,21.27,21.27,0,0,1-3.27,0,5.71,5.71,0,0,0-.84-2.52c1.29.11,2.49.11,3,.11a1.2,1.2,0,0,0,1-.33c.61-.63,1-3.31,1.35-9.39h-5.73c-.33,4.23-1.76,9.21-7.51,12.46a9.94,9.94,0,0,0-1.9-2,12.48,12.48,0,0,0,6.79-10.47h-6.16v-2.5h6.26V287.6h2.6v4.21Z"/><path class="cls-4" d="M28.7,291.19v3.23a43.65,43.65,0,0,0,5.9-1.9,10.25,10.25,0,0,0,1.85-.92l.92,2.17c-.66.27-1.43.59-2,.8a60.4,60.4,0,0,1-6.68,2.08v3.15c0,.74.34.92,1.11,1.08a15.58,15.58,0,0,0,2,.1,28.57,28.57,0,0,0,5.94-.6v2.49a48.34,48.34,0,0,1-6.07.36,19,19,0,0,1-2.87-.19,2.46,2.46,0,0,1-2.33-2.56v-9.29a13.32,13.32,0,0,0-.14-1.77h2.52A13.67,13.67,0,0,0,28.7,291.19Zm8.85-.17-1.39.58a20.56,20.56,0,0,0-1.32-2.37l1.34-.54C36.61,289.32,37.22,290.39,37.55,291Zm2-.78-1.34.58a19,19,0,0,0-1.38-2.35l1.34-.55A18.58,18.58,0,0,1,39.57,290.24Z"/><path class="cls-4" d="M47,295.37l-1.24,1.91c-1-.68-2.75-1.82-3.89-2.44L43.06,293C44.21,293.58,46.09,294.76,47,295.37Zm1.36,3.89a17.2,17.2,0,0,0,6.63-6.4l1.32,2.32a20.58,20.58,0,0,1-6.77,6.14,21.77,21.77,0,0,1-5.69,2.1l-1.28-2.24A18.19,18.19,0,0,0,48.32,299.26Zm1.25-7.74-1.26,1.87c-1-.66-2.73-1.8-3.86-2.43l1.23-1.88C46.81,289.69,48.68,290.89,49.57,291.52Zm5.08.53-1.49.63a14.58,14.58,0,0,0-1.5-2.68l1.44-.6A30.11,30.11,0,0,1,54.65,292.05Zm2.38-.92-1.45.64a16.54,16.54,0,0,0-1.6-2.59l1.45-.59A21.66,21.66,0,0,1,57,291.13Z"/><path class="cls-4" d="M67.44,290.14V291h2a5.12,5.12,0,0,0,1.42-.17l1.41,1.38c-.44.43-1,1-1.33,1.42A25.17,25.17,0,0,1,67.4,297c0,1.36,0,3.22,0,4.3,0,.68.06,1.65.11,2.18H65.05a19.17,19.17,0,0,0,.14-2.18v-2.92a29.54,29.54,0,0,1-5.24,2.1l-1.31-2a21.37,21.37,0,0,0,7-2.85,11.14,11.14,0,0,0,2.86-2.54H62.29c-.62,0-1.69,0-2.22.07V290.9a14.93,14.93,0,0,0,2.18.12h3v-.88a10.82,10.82,0,0,0-.1-1.57h2.44A14.31,14.31,0,0,0,67.44,290.14Zm1,7.79,1.41-1.64A38,38,0,0,1,74,298.76l-1.43,1.88A26.63,26.63,0,0,0,68.48,297.93Z"/><path class="cls-4" d="M88.37,292a25,25,0,0,1-2.67,4.68,47.09,47.09,0,0,1,4.75,4.88l-1.94,1.69a38,38,0,0,0-4.3-4.83,22.41,22.41,0,0,1-6.4,4.79l-1.76-1.84a19.09,19.09,0,0,0,7-4.89,13.43,13.43,0,0,0,2.54-4.18H79.8c-.72,0-1.65.1-2,.12V290a18.56,18.56,0,0,0,2,.12h6a6.06,6.06,0,0,0,1.75-.22l1.4,1A8,8,0,0,0,88.37,292Z"/><path class="cls-4" d="M107.4,291.6s0,.7-.05,1c-.34,6.78-.68,9.34-1.43,10.22a2.29,2.29,0,0,1-1.74,1,18.27,18.27,0,0,1-2.73,0,4.52,4.52,0,0,0-.7-2.09c1.08.08,2.08.08,2.53.08a1,1,0,0,0,.8-.27c.51-.53.85-2.76,1.12-7.83h-4.77c-.27,3.53-1.47,7.67-6.26,10.38a8.22,8.22,0,0,0-1.58-1.65,10.38,10.38,0,0,0,5.66-8.73H93.12V291.6h5.21v-3.51h2.17v3.51Z"/><path class="cls-4" d="M191.62,57.25c0-4.16,1.68-6.33,4.27-6.33s4.27,2.18,4.27,6.33-1.67,6.44-4.27,6.44S191.62,61.42,191.62,57.25Zm6.17,0c0-3.41-.8-4.37-1.9-4.37s-1.9,1-1.9,4.37.81,4.48,1.9,4.48S197.79,60.67,197.79,57.25Z"/><path class="cls-4" d="M211.38,53.77l1.53-.85a19.83,19.83,0,0,0,4.45,4A20.12,20.12,0,0,0,212.91,61l-1.53-.85a11.49,11.49,0,0,1,2.26-2.34h-12V56.1h12A11.42,11.42,0,0,1,211.38,53.77Z"/><path class="cls-4" d="M219.36,61.42h2.71V53.77h-2.29V52.22a8.34,8.34,0,0,0,2.94-1.06h1.85V61.42h2.37v2h-7.58Z"/><path class="cls-4" d="M247.86,52.56s0,.7-.05,1c-.34,6.78-.68,9.34-1.43,10.23a2.3,2.3,0,0,1-1.74.95,16.83,16.83,0,0,1-2.73,0,4.56,4.56,0,0,0-.7-2.1c1.08.08,2.08.08,2.53.08a1,1,0,0,0,.8-.27c.51-.53.85-2.76,1.12-7.82h-4.77c-.27,3.53-1.47,7.67-6.26,10.38a8.27,8.27,0,0,0-1.58-1.66,10.38,10.38,0,0,0,5.66-8.72h-5.13V52.56h5.21V49.05H241v3.51Z"/><path class="cls-5" d="M214.14,120.17c74.53,35.47,92.21,107.08,82.63,154.53C249.12,304.32,183,304.32,133.17,273,124.93,222.48,146.13,152.91,214.14,120.17Z"/><path class="cls-6" d="M186.74,206.28v3.19H162.22v-3.19h10.52v-5.49h-7.39v-3.13h7.39v-4.8H167.1a22.25,22.25,0,0,1-2.54,3.95,25.51,25.51,0,0,0-2.92-1.94,23.44,23.44,0,0,0,4.83-9.76l3.36.74c-.39,1.3-.82,2.59-1.29,3.84h4.2v-4.91h3.41v4.91h9.2v3.17h-9.2v4.8h8.16v3.13h-8.16v5.49Z"/><path class="cls-6" d="M196.15,187.35c1.56,0,4.45-.14,5.73-.25a6.05,6.05,0,0,0,1.86-.38l2.18,1.69a6.52,6.52,0,0,0-.93,1.15,59,59,0,0,0-2.73,5.86,24.32,24.32,0,0,1,5.92,1.75c0-.33.06-.63.08-.93a16.3,16.3,0,0,0,0-3l3.58.4a45.2,45.2,0,0,1-.52,5.05c1.14.65,2.13,1.28,2.92,1.83l-1.58,3.79a27.4,27.4,0,0,0-2.35-1.91,13.63,13.63,0,0,1-6.93,7.39l-2.89-2.37c4.12-1.77,6-4.37,6.93-6.85a19.07,19.07,0,0,0-6.47-2.21,52.53,52.53,0,0,1-3.08,6.55,4.74,4.74,0,0,1-4.25,2.4,4.08,4.08,0,0,1-4.2-4.42c0-4.23,3.84-7.45,9.32-7.69.77-1.8,1.56-3.66,2.19-4.94-1.09.06-3.44.14-4.7.22-.54,0-1.49.11-2.2.22l-.14-3.52C194.63,187.29,195.55,187.35,196.15,187.35Zm-2.4,16.42c.55,0,.93-.28,1.42-1a30.45,30.45,0,0,0,2.21-4.44c-3,.46-4.77,2.31-4.77,4C192.61,203.3,193.13,203.77,193.75,203.77Z"/><path class="cls-6" d="M239.94,198.67V210.2h-3.39v-1.55H221.44v1.58h-3.3V198.67h3.3v6.79h5.7v-8.24h-7.91v-9.9h3.22v6.74h4.69v-9h3.33v9h5v-6.74h3.41v9.9h-8.38v8.24h6.08v-6.79Z"/><path class="cls-6" d="M260.24,188.22c0,.22,0,.52,0,.84,2.75,0,6.49-.05,7.91,0l0,3.22c-1.64-.09-4.17-.14-7.88-.14,0,1.39,0,2.89,0,4.09a7,7,0,0,1,1,3.74c0,3.54-2.08,8.07-8.73,9.93L249.57,207c2.76-.58,5.16-1.48,6.66-3.11A6.1,6.1,0,0,1,255,204a4.81,4.81,0,0,1-4.69-5,5.14,5.14,0,0,1,5.45-5.1,7.66,7.66,0,0,1,1.09.08c0-.6,0-1.22,0-1.82-4.12,0-8.38.21-11.73.41l-.08-3.3c3.1,0,8.07-.11,11.78-.17,0-.35,0-.63-.06-.84a20.2,20.2,0,0,0-.27-2.38h4C260.37,186.31,260.26,187.78,260.24,188.22ZM255.68,201c1.15,0,2.16-.87,1.77-3.27a2,2,0,0,0-1.77-1,2.11,2.11,0,0,0,0,4.22Z"/><path class="cls-6" d="M153.51,223.08h14.84c.82,0,1.77-.08,2.57-.16v3.74c-.82-.06-1.78-.11-2.57-.11H162.6v11.13h7.22a16.54,16.54,0,0,0,2.57-.22v3.95a21.66,21.66,0,0,0-2.57-.13h-18a22.48,22.48,0,0,0-2.67.13v-3.95a17.07,17.07,0,0,0,2.67.22h6.93V226.55h-5.27c-.73,0-1.91,0-2.59.11v-3.74C151.63,223,152.75,223.08,153.51,223.08Z"/><path class="cls-6" d="M188,235.82A25.64,25.64,0,0,0,198,225.21l2.13,3.85A29,29,0,0,1,190,239.15,29.82,29.82,0,0,1,179.87,243l-2.29-3.6A28.1,28.1,0,0,0,188,235.82Zm0-8.81-2.78,2.84a56.61,56.61,0,0,0-6.82-5.89l2.57-2.73A55.67,55.67,0,0,1,188,227Z"/><path class="cls-6" d="M211.79,230.56l-2,3.05c-1.55-1.09-4.39-2.92-6.22-3.9l2-3C207.39,227.69,210.39,229.58,211.79,230.56Zm2.18,6.22a27.69,27.69,0,0,0,10.61-10.23l2.1,3.71a32.88,32.88,0,0,1-10.83,9.82,34.2,34.2,0,0,1-9.11,3.35l-2.05-3.57A29.48,29.48,0,0,0,214,236.78Zm2-12.39-2,3c-1.53-1.06-4.36-2.89-6.16-3.9l2-3C211.54,221.48,214.54,223.38,216,224.39Zm8.13.85-2.38,1a23.94,23.94,0,0,0-2.4-4.28l2.29-1A45.55,45.55,0,0,1,224.09,225.24Zm3.82-1.47-2.32,1a26.38,26.38,0,0,0-2.57-4.14l2.32-1A35.25,35.25,0,0,1,227.91,223.77Z"/><path class="cls-6" d="M234.73,236.94h15.66a27.54,27.54,0,0,0,3-.16V241a29.51,29.51,0,0,0-3-.16H234.73c-1.06,0-2.4.08-3.41.16v-4.17C232.38,236.86,233.67,236.94,234.73,236.94Zm2.07-13.34h11.29c1.1,0,2.27-.08,3-.16v3.95c-.79,0-2.07-.11-3-.11H236.83c-1,0-2.29.06-3.22.11v-3.95A31.69,31.69,0,0,0,236.8,223.6Z"/><path class="cls-6" d="M281.24,224.91a27.64,27.64,0,0,1-6.55,7.48l-2.83-2.27a16.15,16.15,0,0,0,5-5.07H262.67c-1.15,0-2.05.08-3.33.19v-3.79a22,22,0,0,0,3.33.27h14.7a14.4,14.4,0,0,0,2.78-.24l2.15,2A15,15,0,0,0,281.24,224.91Zm-17.62,18.58-3.19-2.59a11,11,0,0,0,2.86-1.5c3.47-2.4,4.12-5.3,4.12-9.77a14.69,14.69,0,0,0-.19-2.45h4C271.18,233.94,271,239.51,263.62,243.49Z"/></g></g></svg>