<svg xmlns="http://www.w3.org/2000/svg" viewBox="0 0 822.77 548.5"><defs><style>.cls-1,.cls-7{fill:none;}.cls-1{stroke:#f4d770;stroke-width:30px;}.cls-1,.cls-4,.cls-7{stroke-miterlimit:10;}.cls-2{fill:#eda420;}.cls-3{fill:#fcfcfc;}.cls-4{fill:#f1eee7;stroke:#b7b7b7;opacity:0.95;}.cls-5{fill:#262626;}.cls-6{fill:#f4d770;}.cls-7{stroke:#bebebe;stroke-width:14.49px;}.cls-8{fill:#bebebe;}</style></defs><g id="レイヤー_2" data-name="レイヤー 2"><g id="レイヤー_4" data-name="レイヤー 4"><path class="cls-1" d="M257,461.5c39.42,29.55,107.45,25.5,160.5,25.5,163.5,0,236-105.66,236-236S547.8,15,417.46,15s-236,105.66-236,236c0,0,2.67,126.85,110.09,120.68"/><circle class="cls-2" cx="417.8" cy="250.5" r="175"/><path class="cls-3" d="M386.4,162.22a23,23,0,0,1-4.52,5.8,16.92,16.92,0,0,0-3-3.28,23.86,23.86,0,0,0,6.8-8.92h-5.8v-4h6.56v-5.63h4.52v5.63h5.64v4h-5.64v1.48a76.59,76.59,0,0,1,6.32,4.4l-2.49,3.8c-.92-1-2.39-2.44-3.83-3.76v8.36H386.4Zm-7.28,16.88a27.37,27.37,0,0,0,3.48-8.24l4.24,1.68a39.1,39.1,0,0,1-3.36,8.72Zm22.83-.64c1.88,0,2.16-.56,2.4-4.6a11.56,11.56,0,0,0,4.28,1.68c-.6,5.72-1.92,7.12-6.32,7.12h-7.19c-5.44,0-6.84-1.32-6.84-5.48V171.7H393v5.4c0,1.2.4,1.36,2.56,1.36Zm-4.63-9.92.79.72V148.1h16.24v21.52H398.51a58.09,58.09,0,0,1,4.24,4.24l-3.43,2.88a62.37,62.37,0,0,0-5.28-5.56Zm5.11-14.36h7.36v-2.32h-7.36Zm0,5.84h7.36V157.7h-7.36Zm0,5.88h7.36v-2.4h-7.36Zm9.24,4.44c1.6,2.48,3.92,5.88,5,8l-4.44,2.28c-1-2.12-3.16-5.64-4.72-8.32Z"/><path class="cls-3" d="M427.72,156.26c0,2.6,0,5.6.24,8.48.56,5.76,1.76,9.72,4.28,9.72,1.88,0,3.48-4.68,4.24-7.88l4,4.88c-2.64,7-5.15,9.4-8.35,9.4-4.4,0-8.2-4-9.32-14.68-.4-3.68-.44-8.36-.44-10.8a24.31,24.31,0,0,0-.32-4.08l6.16.08A32.36,32.36,0,0,0,427.72,156.26ZM455.47,173l-5.24,2c-.64-6.44-2.76-16.16-7.12-21.12l5.08-1.64C452,156.9,455,166.9,455.47,173Z"/><path class="cls-3" d="M295.87,255.19c-.42-.56-1.1-1.36-1.78-2.1v7.54h-2.36v-6.9a16.55,16.55,0,0,1-2.48,1.92,9.53,9.53,0,0,0-1.12-2.26,14.94,14.94,0,0,0,5.58-5.58h-4.82v-2.16h2.84V242h2.36v3.68h.9l.42-.1,1.34.86a19.41,19.41,0,0,1-2.36,4.28c1,.78,2.5,2.16,2.92,2.56Zm11.46,2.54v2.32H296v-2.32h4.62v-7.32h-3.8v-2.3h3.8v-6h2.44v6h3.78v2.3h-3.78v7.32Z"/><path class="cls-3" d="M313.15,248.67a23.09,23.09,0,0,1-3.38,2,9.29,9.29,0,0,0-1.4-2,19.86,19.86,0,0,0,8.08-6.7h2.48a18.29,18.29,0,0,0,8.46,6.34,12.33,12.33,0,0,0-1.54,2.18,24.17,24.17,0,0,1-3.36-1.94v1.58h-9.34Zm-3.54,3.12h16.54V254h-9c-.58,1.18-1.24,2.42-1.84,3.54,1.92-.06,4-.14,6-.22a23.84,23.84,0,0,0-2-2l2.1-1.1a26.9,26.9,0,0,1,4.58,5.14l-2.22,1.34a10.6,10.6,0,0,0-.8-1.24c-4.7.26-9.64.46-13,.62l-.32-2.32,3-.1a38.41,38.41,0,0,0,1.52-3.62h-4.64Zm12-3.84a19.46,19.46,0,0,1-3.84-3.7,18.18,18.18,0,0,1-3.66,3.7Z"/><path class="cls-3" d="M333.19,245.35a53,53,0,0,0-1,7.34,9.65,9.65,0,0,0,.08,1.3c.3-.68.62-1.38.9-2l1.24,1c-.56,1.66-1.22,3.84-1.44,4.9a6,6,0,0,0-.1.94c0,.22,0,.54,0,.82l-2.32.16a25.57,25.57,0,0,1-.78-6.54,55.77,55.77,0,0,1,.84-7.92c.06-.56.18-1.32.2-2l2.8.24C333.53,244,333.27,245,333.19,245.35Zm4.94,9.78c0,.88.76,1.42,2.8,1.42a23.64,23.64,0,0,0,5-.52l0,2.7a28.32,28.32,0,0,1-5.16.38c-3.44,0-5.1-1.22-5.1-3.28a12.22,12.22,0,0,1,.34-2.6l2.3.22A6.79,6.79,0,0,0,338.13,255.13Zm7.24-10.24v2.58a53.68,53.68,0,0,1-8.6,0v-2.56A41.13,41.13,0,0,0,345.37,244.89Z"/><path class="cls-3" d="M356.77,247.93a27.33,27.33,0,0,1-1.64,5.82,19.81,19.81,0,0,1,2.06,3.24l-1.9,1.62a18.67,18.67,0,0,0-1.36-2.46,13.45,13.45,0,0,1-4.1,4.32,10.43,10.43,0,0,0-1.6-1.86,11.1,11.1,0,0,0,4.26-4.54c-1.06-1.42-2.24-2.84-3.34-4.06l1.7-1.34c.86.92,1.76,1.94,2.64,3a23.44,23.44,0,0,0,1-4Zm10.32.74H365v9c0,1.34-.24,2-1,2.42a8,8,0,0,1-3.6.52,9.8,9.8,0,0,0-.76-2.56c1.12.06,2.2,0,2.54,0s.48-.1.48-.42v-9h-5v-1.44h-8.8V245h3.48V242h2.28V245h3.7v1.36h4.36V242H365v4.44h2.14Zm-7.8,1.58a15.7,15.7,0,0,1,2.22,4.22l-2.06,1.06a16.66,16.66,0,0,0-2.06-4.36Z"/><path class="cls-3" d="M375,245.69c-.08,2.16-.24,6.64-.24,9.12,0,2,1.2,2.68,2.76,2.68,3.3,0,5.4-1.9,6.84-4.08l1.82,2.2a10.35,10.35,0,0,1-8.68,4.6c-3.28,0-5.4-1.44-5.4-4.86,0-2.68.2-7.94.2-9.66A12.76,12.76,0,0,0,372,243l3.22,0C375.11,243.87,375,244.89,375,245.69Z"/><path class="cls-3" d="M391.21,245l8.62-.76c2.06-.16,4.26-.3,5.66-.34l0,2.56a22.63,22.63,0,0,0-3.86.26,6.08,6.08,0,0,0-4.22,5.62c0,3.28,3.08,4.48,6.46,4.66l-.94,2.74c-4.18-.28-8.14-2.54-8.14-6.86a8.05,8.05,0,0,1,3-6.18c-1.88.2-6,.64-8.28,1.14l-.26-2.74C390,245.11,390.81,245.07,391.21,245Z"/><path class="cls-3" d="M414.59,242.67a34.71,34.71,0,0,1-1.8,3.94v14h-2.24V250.17a15.52,15.52,0,0,1-1.22,1.48,18.1,18.1,0,0,0-1.22-2.4,20.76,20.76,0,0,0,4.34-7.26Zm8.78,3.36v2.5h3.38v11.54h-2.28v-1h-7.92v1.14h-2.2V248.53h3.22V246h-3.42v-2.12h12.7V246Zm-6.82,11h1.24v-6.42h-1.24Zm3.24-6.42V257h1.34v-6.42Zm1.34-4.56h-1.32v2.5h1.32Zm3.34,4.56h-1.34V257h1.34Z"/><path class="cls-3" d="M434.85,242.73a31.88,31.88,0,0,1-1.92,4.12v13.74h-2.26V250.37a18.38,18.38,0,0,1-1.36,1.6,15.07,15.07,0,0,0-1.26-2.46,21.26,21.26,0,0,0,4.54-7.5Zm12.18,17h-10.2v.9h-2.2V248.07h2.2v9.6H447ZM440,246.91c0-.34.08-.72.12-1.1h-5v-2h5.14c0-.62.08-1.24.1-1.8l2.38.1c0,.54-.1,1.12-.16,1.7h4.36v2h-4.58c-.06.38-.1.76-.16,1.1h3.92v9.72H438v-9.72Zm3.84,1.72h-3.56v1h3.56Zm0,2.62h-3.56v1h3.56Zm0,2.62h-3.56v1h3.56Z"/><path class="cls-3" d="M452.85,253.19v4.66c0,1.1-.18,1.68-.78,2a4.94,4.94,0,0,1-2.76.46,7.82,7.82,0,0,0-.62-2.18c.74,0,1.42,0,1.66,0s.34-.08.34-.34v-4l-1.84.52-.54-2.3c.68-.14,1.48-.36,2.38-.58v-3.54h-2.16v-2.2h2.16V242h2.16v3.78h2v2.2h-2v3l1.8-.48.32,2.14Zm9.1,5c.46,0,.9.06,1.4.06.68,0,3.16,0,4,0a7,7,0,0,0-.64,2.08h-3.48c-2.62,0-4.64-.48-6-2.9a8.8,8.8,0,0,1-2.08,3.14,13.65,13.65,0,0,0-1.76-1.42c1.66-1.32,2.48-3.54,2.78-6.26l2.16.26a18.18,18.18,0,0,1-.38,2,4.49,4.49,0,0,0,1.74,2.34v-5.22H455v-1.92h11.82v1.92H462v1.76h3.82v1.86H462Zm3.88-8.76H456v-6.9h9.86Zm-2.28-5.22h-5.4v1h5.4Zm0,2.52h-5.4v1h5.4Z"/><path class="cls-3" d="M474.93,242.69a36.68,36.68,0,0,1-1.9,4.16v13.76h-2.34V250.47c-.42.54-.84,1-1.26,1.48a13.92,13.92,0,0,0-1.28-2.48,20.91,20.91,0,0,0,4.56-7.48Zm4.66,13.24a18.46,18.46,0,0,1-4,4.64,13.28,13.28,0,0,0-1.86-1.5,12.43,12.43,0,0,0,3.62-3.82Zm7.54-3.82v2.32h-13v-2.32h2.68v-4h-2.18v-2.28h2.18v-3.74h2.32v3.74h2.9v-3.76h2.32v3.76H487v2.28h-2.6v4Zm-8,0h2.9v-4h-2.9Zm4.48,3.12a24.76,24.76,0,0,1,3.4,4.12l-2,1.26a22.88,22.88,0,0,0-3.3-4.34Z"/><path class="cls-3" d="M495,245.69c-.08,2.16-.24,6.64-.24,9.12,0,2,1.2,2.68,2.76,2.68,3.3,0,5.4-1.9,6.84-4.08l1.82,2.2a10.35,10.35,0,0,1-8.68,4.6c-3.28,0-5.4-1.44-5.4-4.86,0-2.68.2-7.94.2-9.66A12.76,12.76,0,0,0,492,243l3.22,0C495.11,243.87,495,244.89,495,245.69Z"/><path class="cls-3" d="M516.87,244.81c0,.22-.1.48-.16.76,1.12-.16,2.24-.38,3.34-.64v2.5a36.82,36.82,0,0,1-3.9.66c-.18.86-.38,1.74-.6,2.56a62.15,62.15,0,0,1-3.18,9.26l-2.78-.94a43.3,43.3,0,0,0,3.46-9c.14-.54.3-1.1.42-1.68-.46,0-.9,0-1.32,0-1,0-1.72,0-2.42-.08l-.06-2.5a19.79,19.79,0,0,0,2.52.16q.87,0,1.8-.06.12-.66.18-1.14a10.25,10.25,0,0,0,.06-2l3.06.24C517.13,243.47,517,244.37,516.87,244.81Zm2.4,10.86c0,.88.6,1.54,2.74,1.54a23.47,23.47,0,0,0,4.16-.42l-.1,2.56a32.11,32.11,0,0,1-4.08.28c-3.36,0-5.18-1.16-5.18-3.18a14,14,0,0,1,.36-2.68l2.38.24A6.85,6.85,0,0,0,519.27,255.67Zm3-6.9a35.17,35.17,0,0,1,3.52.18l-.06,2.4a29.32,29.32,0,0,0-3.44-.24,34.36,34.36,0,0,0-3.86.2V249C519.59,248.87,521,248.77,522.31,248.77Z"/><path class="cls-3" d="M532.77,247c0,1.3,0,2.8.12,4.24.28,2.88.88,4.86,2.14,4.86.94,0,1.74-2.34,2.12-3.94l2,2.44c-1.32,3.48-2.58,4.7-4.18,4.7-2.2,0-4.1-2-4.66-7.34-.2-1.84-.22-4.18-.22-5.4a12.16,12.16,0,0,0-.16-2l3.08,0A16.18,16.18,0,0,0,532.77,247Zm13.88,8.38-2.62,1c-.32-3.22-1.38-8.08-3.56-10.56l2.54-.82C544.91,247.35,546.43,252.35,546.65,255.41Z"/><path class="cls-3" d="M356.91,278.49c1.64-1,3.38-1.82,4.32-2.36a12.5,12.5,0,0,0,1.86-1.22l1.38,2.32c-.6.36-1.24.7-2,1.08a59.2,59.2,0,0,0-5.58,3c-1.66,1.1-2.78,2.24-2.78,3.64s1.38,2.2,4.16,2.2a30.88,30.88,0,0,0,6.54-.74l0,2.88a37.14,37.14,0,0,1-6.42.5c-4,0-7-1.1-7-4.54,0-2.2,1.4-3.86,3.32-5.28-.92-1.7-1.88-3.84-2.78-6l2.5-1A47.51,47.51,0,0,0,356.91,278.49Z"/><path class="cls-3" d="M372.77,277c0,1.3,0,2.8.12,4.24.28,2.88.88,4.86,2.14,4.86.94,0,1.74-2.34,2.12-3.94l2,2.44c-1.32,3.48-2.58,4.7-4.18,4.7-2.2,0-4.1-2-4.66-7.34-.2-1.84-.22-4.18-.22-5.4a12.16,12.16,0,0,0-.16-2l3.08,0A16.18,16.18,0,0,0,372.77,277Zm13.88,8.38-2.62,1c-.32-3.22-1.38-8.08-3.56-10.56l2.54-.82C384.91,277.35,386.43,282.35,386.65,285.41Z"/><path class="cls-3" d="M398.59,280a17.84,17.84,0,0,0-5.2,1c-.58.16-1.36.48-1.94.7l-.76-2.86a20.13,20.13,0,0,0,2.2-.34,26.37,26.37,0,0,1,6-.92c3.16,0,5.38,1.8,5.38,4.94,0,4.28-4,6.94-9.52,7.7l-1.44-2.48c5-.56,8.16-2.2,8.16-5.32C401.51,281,400.47,280,398.59,280Zm4-6.3-.4,2.46c-2.34-.16-6.68-.56-9-1l.4-2.4A59.38,59.38,0,0,0,402.63,273.65Z"/><path class="cls-3" d="M409,273h6v6.46h-3.78c-.06.6-.1,1.2-.16,1.78h3.94s0,.6,0,.9c-.2,4.84-.42,6.86-1,7.58a2.2,2.2,0,0,1-1.52.8,17.42,17.42,0,0,1-2.42.06,6.13,6.13,0,0,0-.72-2.34c.86.08,1.68.08,2.08.08a.74.74,0,0,0,.7-.24c.32-.32.52-1.64.68-4.8h-1.9l-.12,1-2.08-.32c.28-1.74.52-4.44.64-6.6h3.46v-2.22H409Zm16.4,17.7a8.47,8.47,0,0,0-.5-1.3c-3.42.3-7,.56-9.56.74l-.28-2.3c1.32,0,3-.14,4.78-.26V285h-4v-5.74h4v-1.56c-1.54.12-3,.2-4.2.28l-.32-2.22,1.76-.08a24.65,24.65,0,0,0,1.78-3.78l2.56.58c-.56,1-1.22,2.12-1.84,3.08,1.22-.06,2.5-.12,3.78-.2-.3-.42-.64-.86-1-1.24l2-.88a18,18,0,0,1,2.94,4.28l-2.14,1a7.52,7.52,0,0,0-.56-1.16l-2.52.2v1.72h4.2V285h-4.2v2.42l1.64-.12c-.28-.46-.58-.9-.88-1.32l1.92-.8a17.08,17.08,0,0,1,2.68,4.6Zm-5.56-7.64v-1.84h-1.88v1.84Zm2.28-1.84v1.84H424v-1.84Z"/><path class="cls-3" d="M432.77,277c0,1.3,0,2.8.12,4.24.28,2.88.88,4.86,2.14,4.86.94,0,1.74-2.34,2.12-3.94l2,2.44c-1.32,3.48-2.58,4.7-4.18,4.7-2.2,0-4.1-2-4.66-7.34-.2-1.84-.22-4.18-.22-5.4a12.16,12.16,0,0,0-.16-2l3.08,0A16.18,16.18,0,0,0,432.77,277Zm13.88,8.38-2.62,1c-.32-3.22-1.38-8.08-3.56-10.56l2.54-.82C444.91,277.35,446.43,282.35,446.65,285.41Z"/><path class="cls-3" d="M452.11,280a11.5,11.5,0,0,1-2.26,2.9,8.46,8.46,0,0,0-1.52-1.64,11.93,11.93,0,0,0,3.4-4.46h-2.9v-2h3.28V272h2.26v2.82h2.82v2h-2.82v.74a38.3,38.3,0,0,1,3.16,2.2l-1.24,1.9c-.46-.5-1.2-1.22-1.92-1.88V284h-2.26Zm-3.64,8.44a13.68,13.68,0,0,0,1.74-4.12l2.12.84a19.55,19.55,0,0,1-1.68,4.36Zm11.42-.32c.94,0,1.08-.28,1.2-2.3a5.78,5.78,0,0,0,2.14.84c-.3,2.86-1,3.56-3.16,3.56h-3.6c-2.72,0-3.42-.66-3.42-2.74v-2.74h2.36v2.7c0,.6.2.68,1.28.68Zm-2.32-5,.4.36V273h8.12v10.76h-7.92c.78.72,1.64,1.56,2.12,2.12l-1.72,1.44a29.8,29.8,0,0,0-2.64-2.78Zm2.56-7.18h3.68v-1.16h-3.68Zm0,2.92h3.68v-1.16h-3.68Zm0,2.94h3.68v-1.2h-3.68Zm4.62,2.22c.8,1.24,2,2.94,2.5,4L465,289.19c-.48-1.06-1.58-2.82-2.36-4.16Z"/><path class="cls-3" d="M472.77,277c0,1.3,0,2.8.12,4.24.28,2.88.88,4.86,2.14,4.86.94,0,1.74-2.34,2.12-3.94l2,2.44c-1.32,3.48-2.58,4.7-4.18,4.7-2.2,0-4.1-2-4.66-7.34-.2-1.84-.22-4.18-.22-5.4a12.16,12.16,0,0,0-.16-2l3.08,0A16.18,16.18,0,0,0,472.77,277Zm13.88,8.38-2.62,1c-.32-3.22-1.38-8.08-3.56-10.56l2.54-.82C484.91,277.35,486.43,282.35,486.65,285.41Z"/><rect class="cls-4" x="537.46" y="67" width="250" height="100"/><path class="cls-5" d="M563.93,100.06v3a39.76,39.76,0,0,0,5.54-1.78,10.36,10.36,0,0,0,1.74-.86l.87,2c-.63.26-1.35.56-1.88.75a56.39,56.39,0,0,1-6.27,2v3c0,.69.32.86,1,1a16,16,0,0,0,1.86.09,27.35,27.35,0,0,0,5.57-.56V111a46.35,46.35,0,0,1-5.7.34,18.06,18.06,0,0,1-2.69-.18,2.31,2.31,0,0,1-2.19-2.4v-8.73a13.24,13.24,0,0,0-.13-1.66h2.37A12.07,12.07,0,0,0,563.93,100.06Zm8.31-.16-1.3.55a19.71,19.71,0,0,0-1.25-2.23l1.27-.51C571.36,98.3,571.93,99.31,572.24,99.9Zm1.9-.73-1.26.54a17.52,17.52,0,0,0-1.3-2.21l1.26-.51A16.44,16.44,0,0,1,574.14,99.17Z"/><path class="cls-5" d="M581.07,104l-1.17,1.79c-.92-.64-2.58-1.71-3.65-2.29l1.15-1.76C578.49,102.31,580.25,103.41,581.07,104Zm1.28,3.65a16.16,16.16,0,0,0,6.22-6l1.23,2.18a19.19,19.19,0,0,1-6.35,5.76,20,20,0,0,1-5.35,2l-1.2-2.1A17,17,0,0,0,582.35,107.64Zm1.16-7.27-1.18,1.76c-.9-.63-2.56-1.7-3.62-2.29l1.15-1.76C580.92,98.66,582.68,99.78,583.51,100.37Zm4.77.5-1.39.59a14.1,14.1,0,0,0-1.41-2.52l1.35-.56A25.65,25.65,0,0,1,588.28,100.87Zm2.24-.87-1.36.61a15.25,15.25,0,0,0-1.5-2.43l1.36-.56A19.78,19.78,0,0,1,590.52,100Z"/><path class="cls-5" d="M600.28,99.07v.83h1.92a4.49,4.49,0,0,0,1.33-.16l1.33,1.3c-.42.4-.9.95-1.25,1.33a24.27,24.27,0,0,1-3.36,3.14c0,1.28,0,3,0,4,0,.64.07,1.55.12,2H598a17.11,17.11,0,0,0,.13-2V106.8a28,28,0,0,1-4.91,2L592,106.88a19.68,19.68,0,0,0,6.53-2.67,10.49,10.49,0,0,0,2.69-2.38h-5.79c-.58,0-1.59,0-2.08.06v-2.1a14.47,14.47,0,0,0,2,.11h2.77v-.83a11,11,0,0,0-.1-1.47h2.29A12.59,12.59,0,0,0,600.28,99.07Zm1,7.32,1.33-1.54a37.74,37.74,0,0,1,3.84,2.32l-1.35,1.76A25.56,25.56,0,0,0,601.26,106.39Z"/><path class="cls-5" d="M619.93,100.82a23.33,23.33,0,0,1-2.51,4.4,43.51,43.51,0,0,1,4.46,4.58l-1.82,1.58a37.09,37.09,0,0,0-4-4.53,21.23,21.23,0,0,1-6,4.5l-1.65-1.73a17.87,17.87,0,0,0,6.56-4.59,12.49,12.49,0,0,0,2.39-3.93h-5.43c-.67,0-1.55.1-1.89.12V98.94a16.38,16.38,0,0,0,1.89.12h5.65a5.8,5.8,0,0,0,1.65-.21l1.31,1A8.54,8.54,0,0,0,619.93,100.82Z"/><path class="cls-5" d="M637.8,100.67a16.22,16.22,0,0,1-3.84,4.39l-1.66-1.33a9.34,9.34,0,0,0,2.94-3H626.9c-.67,0-1.2,0-1.95.12V98.64a12.22,12.22,0,0,0,1.95.16h8.63a8.69,8.69,0,0,0,1.63-.14l1.27,1.18A8.62,8.62,0,0,0,637.8,100.67Zm-10.34,10.9-1.87-1.52a6.21,6.21,0,0,0,1.68-.88c2-1.41,2.42-3.1,2.42-5.73a8.9,8.9,0,0,0-.11-1.44h2.32C631.9,106,631.82,109.24,627.46,111.57Z"/><path class="cls-5" d="M647.13,101.58a20.43,20.43,0,0,0,4.51-3.88l1.73,1.64a29.53,29.53,0,0,1-4.3,3.48v6.46a11.22,11.22,0,0,0,.14,2.1h-2.53a16.7,16.7,0,0,0,.11-2.1v-5.12a31.94,31.94,0,0,1-5.65,2.31l-1-2A25.82,25.82,0,0,0,647.13,101.58Z"/><path class="cls-5" d="M657.83,102.79h10.49a12.94,12.94,0,0,0,1.45-.1v2.08c-.4,0-1,0-1.45,0h-3.86a10.18,10.18,0,0,1-1,4.12,7.59,7.59,0,0,1-3.21,3.07l-1.88-1.36a6.54,6.54,0,0,0,2.9-2.29,6.79,6.79,0,0,0,1-3.54h-4.4c-.46,0-1.09,0-1.54.07v-2.1A13.27,13.27,0,0,0,657.83,102.79Zm2-4.07h5.24a12.71,12.71,0,0,0,1.73-.13v2.07c-.55,0-1.17,0-1.73,0h-5.24c-.54,0-1.23,0-1.71,0V98.59A12,12,0,0,0,659.86,98.72Zm9.19,1-1.28.56A18.65,18.65,0,0,0,666.51,98l1.28-.53A24.56,24.56,0,0,1,669.05,99.68Zm1.92-.74-1.28.56a18.67,18.67,0,0,0-1.28-2.21l1.27-.52C670.09,97.38,670.68,98.38,671,98.94Z"/><path class="cls-5" d="M685.8,100.67a16.22,16.22,0,0,1-3.84,4.39l-1.66-1.33a9.34,9.34,0,0,0,2.94-3H674.9c-.67,0-1.2,0-1.95.12V98.64a12.22,12.22,0,0,0,1.95.16h8.63a8.69,8.69,0,0,0,1.63-.14l1.27,1.18A8.62,8.62,0,0,0,685.8,100.67Zm-10.34,10.9-1.87-1.52a6.21,6.21,0,0,0,1.68-.88c2-1.41,2.42-3.1,2.42-5.73a8.9,8.9,0,0,0-.11-1.44h2.32C679.9,106,679.82,109.24,675.46,111.57Z"/><path class="cls-5" d="M694.52,99.44a40.6,40.6,0,0,0,4.53-.46v1.85a46.91,46.91,0,0,1-5.22.4,13.13,13.13,0,0,1-.91,1.64,5.19,5.19,0,0,1,1.8-.32,2.16,2.16,0,0,1,2.13,1.23c.83-.39,1.51-.66,2.16-1s1.19-.52,1.78-.83l.8,1.86c-.51.14-1.36.46-1.9.67-.72.29-1.64.64-2.61,1.09,0,.89,0,2.08.06,2.82h-1.92c0-.48.06-1.25.08-2-1.2.69-1.84,1.32-1.84,2.12s.75,1.12,2.32,1.12a26.46,26.46,0,0,0,4.55-.45l-.07,2.06a38.38,38.38,0,0,1-4.53.28c-2.51,0-4.37-.61-4.37-2.68s1.92-3.33,3.75-4.27a1.23,1.23,0,0,0-1.12-.55,3.92,3.92,0,0,0-2.5,1.11A19.9,19.9,0,0,0,690,107l-1.71-1.28a15.71,15.71,0,0,0,3.54-4.42h-.21c-.66,0-1.83,0-2.71-.1V99.31a20.55,20.55,0,0,0,2.82.19h.77a8.47,8.47,0,0,0,.32-1.84l2.11.18A14.7,14.7,0,0,1,694.52,99.44Z"/><path class="cls-5" d="M715.66,106.2a9.56,9.56,0,0,0,3.12,1.85,6.77,6.77,0,0,0-1.26,1.47,10.16,10.16,0,0,1-2.52-1.68V109h-2.91v1h5.23v1.57H705.13v-1.57h5v-1h-2.83v-1a10.64,10.64,0,0,1-2.54,1.63,7.75,7.75,0,0,0-1.22-1.46,9.72,9.72,0,0,0,3.23-2h-3.07v-1.56h3V99.87h-2.21V98.34h2.21v-1.2h1.91v1.2h5v-1.2h2v1.2h2.19v1.53h-2.19v4.77h3v1.56Zm-1,1.32a9.46,9.46,0,0,1-1.15-1.32H709a10.08,10.08,0,0,1-1.14,1.32h2.3v-1h1.94v1Zm-6-7.65v.71h5v-.71Zm0,2.72h5v-.7h-5Zm0,2h5v-.72h-5Z"/><path class="cls-5" d="M723.45,99.84a42,42,0,0,0-.77,5.87,9.2,9.2,0,0,0,.06,1c.24-.54.5-1.1.72-1.63l1,.79c-.45,1.33-1,3.07-1.16,3.92a6,6,0,0,0-.08.75c0,.18,0,.43,0,.66l-1.86.13a20.57,20.57,0,0,1-.62-5.24,44.11,44.11,0,0,1,.67-6.34c0-.45.14-1.05.16-1.57l2.24.2A12.83,12.83,0,0,0,723.45,99.84Zm3.95,7.83c0,.7.61,1.13,2.24,1.13a18.79,18.79,0,0,0,4-.41l0,2.16a22.91,22.91,0,0,1-4.13.3c-2.75,0-4.08-1-4.08-2.62a10.06,10.06,0,0,1,.27-2.08l1.84.17A5.9,5.9,0,0,0,727.4,107.67Zm5.8-8.2v2.07a44,44,0,0,1-6.89,0V99.49A33,33,0,0,0,733.2,99.47Z"/><path class="cls-5" d="M740.87,100.11c-.06,1.73-.19,5.32-.19,7.3a1.94,1.94,0,0,0,2.21,2.15,6.39,6.39,0,0,0,5.47-3.27l1.46,1.76a8.28,8.28,0,0,1-7,3.68c-2.62,0-4.32-1.15-4.32-3.89,0-2.14.16-6.35.16-7.73A9.84,9.84,0,0,0,738.5,98l2.58,0C741,98.66,740.91,99.47,740.87,100.11Z"/><path class="cls-5" d="M758.39,99.41c0,.17-.08.38-.12.61.89-.13,1.79-.31,2.67-.52v2a26.33,26.33,0,0,1-3.12.53c-.15.69-.31,1.4-.48,2a49.59,49.59,0,0,1-2.55,7.41l-2.22-.75a35.1,35.1,0,0,0,2.77-7.2c.11-.43.24-.88.33-1.35-.37,0-.72,0-1,0-.77,0-1.38,0-1.94-.07l0-2a15.22,15.22,0,0,0,2,.13c.46,0,.94,0,1.44-.05.06-.35.11-.66.14-.91a7.68,7.68,0,0,0,0-1.62l2.45.19C758.6,98.34,758.46,99.06,758.39,99.41Zm1.92,8.69c0,.7.48,1.23,2.2,1.23a19.65,19.65,0,0,0,3.33-.33l-.08,2a24.32,24.32,0,0,1-3.27.23c-2.69,0-4.14-.93-4.14-2.55a11.9,11.9,0,0,1,.28-2.14l1.91.19A5.46,5.46,0,0,0,760.31,108.1Zm2.44-5.52c.91,0,1.87,0,2.81.14l0,1.92a24.94,24.94,0,0,0-2.76-.19,28,28,0,0,0-3.09.16v-1.87C760.57,102.66,761.72,102.58,762.75,102.58Z"/><path class="cls-5" d="M587.93,124.06v3a39.76,39.76,0,0,0,5.54-1.78,10.36,10.36,0,0,0,1.74-.86l.87,2c-.63.26-1.35.56-1.88.75a56.39,56.39,0,0,1-6.27,2v3c0,.69.32.86,1,1a16,16,0,0,0,1.86.09,27.35,27.35,0,0,0,5.57-.56V135a46.35,46.35,0,0,1-5.7.34,18.06,18.06,0,0,1-2.69-.18,2.31,2.31,0,0,1-2.19-2.4v-8.73a13.24,13.24,0,0,0-.13-1.66h2.37A12.07,12.07,0,0,0,587.93,124.06Zm8.31-.16-1.3.55a19.71,19.71,0,0,0-1.25-2.23l1.27-.51C595.36,122.3,595.93,123.31,596.24,123.9Zm1.9-.73-1.26.54a17.52,17.52,0,0,0-1.3-2.21l1.26-.51A16.44,16.44,0,0,1,598.14,123.17Z"/><path class="cls-5" d="M605.07,128l-1.17,1.79c-.92-.64-2.58-1.71-3.65-2.29l1.15-1.76C602.49,126.31,604.25,127.41,605.07,128Zm1.28,3.65a16.16,16.16,0,0,0,6.22-6l1.23,2.18a19.19,19.19,0,0,1-6.35,5.76,20,20,0,0,1-5.35,2l-1.2-2.1A17,17,0,0,0,606.35,131.64Zm1.16-7.27-1.18,1.76c-.9-.63-2.56-1.7-3.62-2.29l1.15-1.76C604.92,122.66,606.68,123.78,607.51,124.37Zm4.77.5-1.39.59a14.1,14.1,0,0,0-1.41-2.52l1.35-.56A25.65,25.65,0,0,1,612.28,124.87Zm2.24-.87-1.36.61a15.25,15.25,0,0,0-1.5-2.43l1.36-.56A19.78,19.78,0,0,1,614.52,124Z"/><path class="cls-5" d="M624.28,123.07v.83h1.92a4.49,4.49,0,0,0,1.33-.16l1.33,1.3c-.42.4-.9.95-1.25,1.33a24.27,24.27,0,0,1-3.36,3.14c0,1.28,0,3,0,4,0,.64.07,1.55.12,2.05H622a17.11,17.11,0,0,0,.13-2.05V130.8a28,28,0,0,1-4.91,2L616,130.88a19.68,19.68,0,0,0,6.53-2.67,10.49,10.49,0,0,0,2.69-2.38h-5.79c-.58,0-1.59,0-2.08.06v-2.1a14.47,14.47,0,0,0,2,.11h2.77v-.83a11,11,0,0,0-.1-1.47h2.29A12.59,12.59,0,0,0,624.28,123.07Zm1,7.32,1.33-1.54a37.74,37.74,0,0,1,3.84,2.32l-1.35,1.76A25.56,25.56,0,0,0,625.26,130.39Z"/><path class="cls-5" d="M643.93,124.82a23.33,23.33,0,0,1-2.51,4.4,43.51,43.51,0,0,1,4.46,4.58l-1.82,1.58a37.09,37.09,0,0,0-4-4.53,21.23,21.23,0,0,1-6,4.5l-1.65-1.73a17.87,17.87,0,0,0,6.56-4.59,12.49,12.49,0,0,0,2.39-3.93h-5.43c-.67,0-1.55.1-1.89.12v-2.28a16.38,16.38,0,0,0,1.89.12h5.65a5.8,5.8,0,0,0,1.65-.21l1.31,1A8.54,8.54,0,0,0,643.93,124.82Z"/><path class="cls-5" d="M651.45,123h7.7a11.6,11.6,0,0,0,1.44-.08v2c-.42,0-.87,0-1.44,0h-3.76v2.72h4.83c.34,0,1.14,0,1.55-.07l0,2c-.45,0-1.17,0-1.52,0h-4.88V132c0,.88.54,1.2,1.82,1.2a41.21,41.21,0,0,0,4.13-.22l-.14,2.16c-1,.06-2.85.13-4.36.13-2.93,0-3.65-1-3.65-2.63v-3.09h-2.61c-.46,0-1.26,0-1.74.08v-2.09c.45,0,1.25.08,1.74.08h2.61v-2.72h-1.74c-.58,0-1.09,0-1.55,0v-2C650.36,122.94,650.87,123,651.45,123Z"/><path class="cls-5" d="M665.83,126.79h10.49a12.94,12.94,0,0,0,1.45-.1v2.08c-.4,0-1-.05-1.45-.05h-3.86a10.18,10.18,0,0,1-1,4.12,7.59,7.59,0,0,1-3.21,3.07l-1.88-1.36a6.54,6.54,0,0,0,2.9-2.29,6.79,6.79,0,0,0,1-3.54h-4.4c-.46,0-1.09,0-1.54.07v-2.1A13.27,13.27,0,0,0,665.83,126.79Zm2-4.07h5.24a12.71,12.71,0,0,0,1.73-.13v2.07c-.55,0-1.17,0-1.73,0h-5.24c-.54,0-1.23,0-1.71,0v-2.07A12,12,0,0,0,667.86,122.72Zm9.19,1-1.28.56a18.65,18.65,0,0,0-1.26-2.22l1.28-.53A24.56,24.56,0,0,1,677.05,123.68Zm1.92-.74-1.28.56a18.67,18.67,0,0,0-1.28-2.21l1.27-.52C678.09,121.38,678.68,122.38,679,122.94Z"/><path class="cls-5" d="M682.5,130.26a27.47,27.47,0,0,0,.47-6.34,5.82,5.82,0,0,0-.15-1.47h2.36a9.93,9.93,0,0,0-.11,1.45,34.78,34.78,0,0,1-.49,6.89,9.37,9.37,0,0,1-2.84,4.59l-2-1.3A7.47,7.47,0,0,0,682.5,130.26Zm4.82,2.88v-9.33a6.76,6.76,0,0,0-.13-1.38h2.39a7.78,7.78,0,0,0-.11,1.39v8.38a10.19,10.19,0,0,0,3.95-3.38l1.23,1.76a17.6,17.6,0,0,1-5.42,4.37,3,3,0,0,0-.69.48l-1.35-1.11A5.59,5.59,0,0,0,687.32,133.14Z"/><path class="cls-5" d="M703.88,135.43l-1.2-1.91a12.73,12.73,0,0,0,1.49-.25,4.34,4.34,0,0,0,3.65-4.29,4,4,0,0,0-3.36-4.23,33.89,33.89,0,0,1-1,4.34c-1,3.23-2.34,5.22-4.08,5.22s-3.25-1.95-3.25-4.66a7.11,7.11,0,0,1,7.34-6.85A6.1,6.1,0,0,1,710,129C710,132.42,707.92,134.8,703.88,135.43Zm-4.4-3.59c.67,0,1.3-1,1.95-3.17a23,23,0,0,0,.85-3.87,5,5,0,0,0-4.06,4.64C698.22,131.06,698.86,131.84,699.48,131.84Z"/><path class="cls-5" d="M717,121.76a24.31,24.31,0,0,1-1.53,3.33v11h-1.92v-8c-.34.4-.68.8-1,1.15a13.11,13.11,0,0,0-1.05-2,16.69,16.69,0,0,0,3.65-6Zm5.08,3.78v1.68h4.14V129h-4.14v1.8h4.35v1.77h-4.35v3.55h-2V125.54h-.6a17.81,17.81,0,0,1-2.1,3.1,14.43,14.43,0,0,0-1.46-1.33,15.85,15.85,0,0,0,3.4-6l1.84.46a18.71,18.71,0,0,1-.79,2h6.21v1.81Z"/><path class="cls-5" d="M741.61,126.69a18.47,18.47,0,0,1-2.75,5.49c.46,1.15,1,1.82,1.49,1.82s.57-.8.65-2.8a5.34,5.34,0,0,0,1.62,1.08c-.3,3-.94,3.66-2.43,3.66-1.12,0-2-.8-2.71-2.11a13.06,13.06,0,0,1-2.7,2.17,12.54,12.54,0,0,0-1.38-1.56,12.51,12.51,0,0,0,3.27-2.6,32.65,32.65,0,0,1-1.11-6.45h-4.64v1.72h4s0,.49,0,.72c-.05,3.36-.15,4.78-.51,5.25a1.55,1.55,0,0,1-1.11.64,12.74,12.74,0,0,1-1.84,0,4.23,4.23,0,0,0-.53-1.77c.58,0,1.12.06,1.38.06a.52.52,0,0,0,.48-.19c.16-.22.22-1,.27-3h-2.08c-.06,2.34-.4,5.46-1.71,7.41a8.72,8.72,0,0,0-1.62-1.3c1.22-1.92,1.33-4.7,1.33-6.78V123.5h6.53c0-.78-.06-1.56-.06-2.36h2c0,.8,0,1.58,0,2.36h2.45a19.4,19.4,0,0,0-2-1.39L739,121a13,13,0,0,1,2.61,1.71l-.77.81h1.67v1.89h-5a37.47,37.47,0,0,0,.64,4.39,16.77,16.77,0,0,0,1.54-3.55Z"/><rect class="cls-4" x="47.46" y="67" width="250" height="100"/><path class="cls-5" d="M100.26,88.63h3.25a5.15,5.15,0,0,0,1.39-.18l1.63,1A8.73,8.73,0,0,0,106,90.6a18.24,18.24,0,0,1-2.37,4.61c.69.49,1.32,1,1.78,1.34l-1.52,1.81c-.43-.4-1-.9-1.68-1.43a15.11,15.11,0,0,1-5.73,3.8l-1.86-1.62a13.63,13.63,0,0,0,5.88-3.47c-1-.77-2.1-1.49-2.92-2L99,92.18c.85.48,1.86,1.14,2.86,1.81a11,11,0,0,0,1.76-3.54H99.06a19.17,19.17,0,0,1-4.23,4.15L93.1,93.27a14.93,14.93,0,0,0,5.09-5.33,6.39,6.39,0,0,0,.74-1.67l2.32.73A15.84,15.84,0,0,0,100.26,88.63Z"/><path class="cls-5" d="M112.19,92.36h8.6c.75,0,1.45-.07,1.87-.1v2.51c-.38,0-1.2-.08-1.87-.08h-8.6c-.91,0-2,0-2.57.08V92.26C110.19,92.31,111.36,92.36,112.19,92.36Z"/><path class="cls-5" d="M130.66,88.82c-.13.34-.28.74-.45,1.15h6.9a10,10,0,0,0,1.66-.11v2.19c-.59,0-1.29-.06-1.66-.06h-2.24c-.29,4.26-2,7.11-4.85,8.93l-2.16-1.44a7.24,7.24,0,0,0,1.52-.88A8.59,8.59,0,0,0,132.64,92h-3.38a13.8,13.8,0,0,1-2.59,3.38l-2-1.22a12.71,12.71,0,0,0,2.77-3.3,11.33,11.33,0,0,0,.93-2.19A6.21,6.21,0,0,0,128.7,87l2.47.48C131,87.91,130.79,88.47,130.66,88.82Zm7.1.11-1.28.55a21.5,21.5,0,0,0-1.26-2.23l1.28-.51A22,22,0,0,1,137.76,88.93Zm1.92-.75-1.28.56a17.38,17.38,0,0,0-1.28-2.21l1.27-.53A24.74,24.74,0,0,1,139.68,88.18Z"/><path class="cls-5" d="M146,94.66l-1.95.74a31,31,0,0,0-1.46-3.7l1.92-.69C144.91,91.83,145.68,93.77,146,94.66Zm7.75-2.16a12.94,12.94,0,0,1-2.18,4.69,12.49,12.49,0,0,1-5.36,4l-1.68-1.71a10.78,10.78,0,0,0,5.31-3.35,10.91,10.91,0,0,0,2-5.49l2.24.72C153.94,91.84,153.84,92.18,153.75,92.5Zm-4.21,1.17-1.92.67a26.49,26.49,0,0,0-1.3-3.55l1.91-.63C148.53,90.85,149.31,92.93,149.54,93.67Z"/><path class="cls-5" d="M161.17,88.93A11.31,11.31,0,0,0,161,87h2.5a16.1,16.1,0,0,0-.15,1.92V91.3a51.26,51.26,0,0,1,6.69,2.48L169.14,96a46.55,46.55,0,0,0-5.78-2.38v4.53c0,.46.08,1.58.15,2.24H161a18.74,18.74,0,0,0,.16-2.24Z"/><path class="cls-5" d="M176.45,88.84a42,42,0,0,0-.77,5.87,9.33,9.33,0,0,0,.06,1c.24-.54.5-1.1.72-1.63l1,.78c-.45,1.33-1,3.08-1.16,3.92a6.16,6.16,0,0,0-.08.76c0,.17,0,.43,0,.65l-1.86.13a20.48,20.48,0,0,1-.62-5.23,44,44,0,0,1,.67-6.34c.05-.45.14-1.06.16-1.57l2.24.19A13.62,13.62,0,0,0,176.45,88.84Zm4,7.82c0,.71.61,1.14,2.24,1.14a18.8,18.8,0,0,0,4-.42l0,2.16a21.88,21.88,0,0,1-4.13.31c-2.75,0-4.08-1-4.08-2.63a10.23,10.23,0,0,1,.27-2.08l1.84.18A5.82,5.82,0,0,0,180.4,96.66Zm5.8-8.19v2.06a42.84,42.84,0,0,1-6.89,0v-2A32.34,32.34,0,0,0,186.2,88.47Z"/><path class="cls-5" d="M195.43,91.35c1.31-.77,2.7-1.46,3.45-1.89a9,9,0,0,0,1.49-1l1.11,1.86c-.48.29-1,.56-1.59.86a48.86,48.86,0,0,0-4.46,2.37c-1.33.88-2.23,1.8-2.23,2.92s1.1,1.76,3.33,1.76a24.77,24.77,0,0,0,5.23-.59l0,2.3a29.77,29.77,0,0,1-5.14.4c-3.18,0-5.6-.88-5.6-3.63,0-1.76,1.12-3.09,2.66-4.23-.74-1.36-1.51-3.07-2.23-4.77l2-.81A38.39,38.39,0,0,0,195.43,91.35Z"/><path class="cls-5" d="M208.13,92.47a22.41,22.41,0,0,1,5.74-1.25c2.53,0,4.23,1.5,4.23,3.92,0,2.9-2.54,4.87-7.64,5.19l-.84-2c3.66-.1,6.35-1.07,6.35-3.25a2,2,0,0,0-2.29-2c-1.85,0-5.06,1.33-6.42,1.9l-.83-2.08C206.91,92.8,207.65,92.61,208.13,92.47Z"/><path class="cls-5" d="M222.86,88.58l6.9-.61c1.65-.13,3.41-.24,4.53-.27l0,2a16.78,16.78,0,0,0-3.09.21,4.86,4.86,0,0,0-3.38,4.49c0,2.63,2.47,3.59,5.17,3.73l-.75,2.2c-3.35-.23-6.51-2-6.51-5.49a6.46,6.46,0,0,1,2.36-5c-1.5.16-4.77.51-6.62.91l-.21-2.19C221.92,88.64,222.54,88.61,222.86,88.58Z"/><path class="cls-5" d="M244.88,100.42l-1.2-1.9a10.78,10.78,0,0,0,1.49-.26A4.34,4.34,0,0,0,248.82,94a4,4,0,0,0-3.36-4.22,34.27,34.27,0,0,1-1,4.34c-1,3.23-2.34,5.21-4.08,5.21s-3.25-2-3.25-4.65a7.11,7.11,0,0,1,7.34-6.86A6.1,6.1,0,0,1,251,94C251,97.42,248.92,99.8,244.88,100.42Zm-4.4-3.58c.67,0,1.3-1,2-3.17a23.25,23.25,0,0,0,.85-3.87,5,5,0,0,0-4.06,4.64C239.22,96.05,239.86,96.84,240.48,96.84Z"/><path class="cls-5" d="M81.55,119.77c.58.4,1.91,1.45,2.28,1.74l-1.11,1.36a15,15,0,0,0-1.17-1.25V125H79.71v-3.21a11.24,11.24,0,0,1-2,2.25,7.12,7.12,0,0,0-1.23-1.34,10.58,10.58,0,0,0,2.88-3.09H76.89V118h2.82V116.8H76.85v-1.56h1.47a7.34,7.34,0,0,0-.48-1.76l1-.23H77V111.7h2.69v-1.46h1.84v1.46h2.66v1.55H82.56l.93.18c-.29.69-.54,1.33-.77,1.81h1.62v1.56H81.55V118h2.64v1.6H81.55Zm-2.21-6.52a6.33,6.33,0,0,1,.55,1.76l-.8.23h3.13l-1-.23a11.72,11.72,0,0,0,.59-1.76Zm12.26,3.89H90.08V125H88.24v-7.83H86.61c0,2.39-.35,5.76-2.46,8a4.33,4.33,0,0,0-1.36-1.3c1.84-2,2-4.67,2-6.88v-5.54l1.1.3A18.71,18.71,0,0,0,90,110.27l1.52,1.4a25.88,25.88,0,0,1-4.91,1.47v2.24h5Z"/><path class="cls-5" d="M97.87,113.11c-.06,1.73-.19,5.31-.19,7.3a1.93,1.93,0,0,0,2.21,2.14,6.4,6.4,0,0,0,5.47-3.26l1.46,1.76a8.3,8.3,0,0,1-6.95,3.68c-2.62,0-4.32-1.15-4.32-3.89,0-2.15.16-6.36.16-7.73A9.84,9.84,0,0,0,95.5,111l2.58,0C98,111.65,97.91,112.47,97.87,113.11Z"/><path class="cls-5" d="M112.11,114.18c0,1,0,2.24.1,3.39.22,2.31.7,3.89,1.71,3.89.75,0,1.39-1.87,1.7-3.15l1.6,2c-1.06,2.79-2.07,3.76-3.35,3.76-1.76,0-3.28-1.58-3.73-5.87-.16-1.47-.17-3.35-.17-4.32a9.25,9.25,0,0,0-.13-1.63l2.46,0A13.06,13.06,0,0,0,112.11,114.18Zm11.11,6.71-2.1.81c-.25-2.57-1.1-6.46-2.85-8.45l2-.65C121.83,114.44,123,118.44,123.22,120.89Z"/><path class="cls-5" d="M129.57,110.69a27.8,27.8,0,0,1-1.44,3.15v11.21h-1.79v-8.36a12,12,0,0,1-1,1.19,13.94,13.94,0,0,0-1-1.92,16.72,16.72,0,0,0,3.48-5.81Zm7,2.69v2h2.7v9.24h-1.82v-.82h-6.34v.91h-1.76v-9.33H132v-2h-2.73v-1.7h10.16v1.7Zm-5.46,8.79h1V117h-1Zm2.59-5.14v5.14h1.07V117Zm1.07-3.65h-1.05v2h1.05Zm2.68,3.65H136.4v5.14h1.08Z"/><path class="cls-5" d="M145.78,110.74a27.23,27.23,0,0,1-1.54,3.3v11h-1.81v-8.18a12.81,12.81,0,0,1-1.09,1.28,10.73,10.73,0,0,0-1-2,17,17,0,0,0,3.64-6Zm9.74,13.59h-8.16v.72H145.6V115h1.76v7.69h8.16Zm-5.66-10.25c0-.27.06-.57.09-.88h-4v-1.63h4.11c0-.49.07-1,.08-1.44l1.91.08c0,.43-.08.9-.13,1.36h3.49v1.63h-3.67c0,.31-.08.61-.13.88h3.14v7.78h-6.45v-7.78Zm3.07,1.38h-2.85v.82h2.85Zm0,2.1h-2.85v.81h2.85Zm0,2.09h-2.85v.84h2.85Z"/><path class="cls-5" d="M167,117.32v1.81h3.41v1.74H167v1.73c0,.58.07.67.52.67h1.23c.41,0,.49-.32.56-1.82a4.72,4.72,0,0,0,1.71.75c-.19,2.11-.69,2.75-2.1,2.75h-1.74c-1.73,0-2.16-.56-2.16-2.33v-1.75H163c-.36,1.68-1.41,3.27-4.37,4.26a7.27,7.27,0,0,0-1.22-1.52c2.21-.67,3.17-1.67,3.57-2.74h-3.17v-1.74h3.42v-1.81h-1.34v-.53a12.42,12.42,0,0,1-2.13,1.26,7.91,7.91,0,0,0-1.15-1.44,9.71,9.71,0,0,0,2.66-1.65,18.45,18.45,0,0,0-1.59-1.36l1.2-1c.48.34,1.09.8,1.54,1.19a9.56,9.56,0,0,0,1-1.44h-3.27v-1.64h4.18l.33-.06,1.27.59a11.13,11.13,0,0,1-2.59,4.26h5.79a14.59,14.59,0,0,1-2.91-4.9l1.71-.48a10.65,10.65,0,0,0,.8,1.71,15,15,0,0,0,1.43-1.49l1.44,1c-.66.59-1.4,1.22-2.05,1.7.22.28.46.56.7.83a13.72,13.72,0,0,0,1.81-1.73l1.39,1a20.39,20.39,0,0,1-2.13,1.73,10,10,0,0,0,2.5,1.47,6.76,6.76,0,0,0-1.31,1.64,11,11,0,0,1-2-1.21v.52Zm-2,0h-2v1.81h2Z"/><path class="cls-5" d="M185.19,123.13c.54,0,.64-.27.72-2.13a6.28,6.28,0,0,0,1.74.75c-.21,2.53-.7,3.19-2.29,3.19h-2.11c-1.9,0-2.35-.58-2.35-2.37V120H179c-.34,2.54-1.28,4.22-5.23,5.12a6.14,6.14,0,0,0-1.06-1.7c3.28-.61,4-1.68,4.24-3.42H175v-9.4h10.47V120h-2.61v2.54c0,.51.1.58.7.58Zm-8.39-9.86h6.69v-1H176.8Zm0,2.53h6.69v-1H176.8Zm0,2.54h6.69v-1H176.8Z"/><path class="cls-5" d="M195.43,115.35c1.31-.77,2.7-1.46,3.45-1.89a9,9,0,0,0,1.49-1l1.11,1.86c-.48.29-1,.56-1.59.86a48.86,48.86,0,0,0-4.46,2.37c-1.33.88-2.23,1.8-2.23,2.92s1.1,1.76,3.33,1.76a24.77,24.77,0,0,0,5.23-.59l0,2.3a29.77,29.77,0,0,1-5.14.4c-3.18,0-5.6-.88-5.6-3.63,0-1.76,1.12-3.09,2.66-4.23-.74-1.36-1.51-3.07-2.23-4.77l2-.81A38.39,38.39,0,0,0,195.43,115.35Z"/><path class="cls-5" d="M208.93,113.06v3a39.81,39.81,0,0,0,5.54-1.77,10.45,10.45,0,0,0,1.74-.87l.87,2c-.63.25-1.35.56-1.88.75a54.43,54.43,0,0,1-6.27,2v3c0,.69.32.87,1,1a15.76,15.76,0,0,0,1.86.1,27.35,27.35,0,0,0,5.57-.56V124a44.46,44.46,0,0,1-5.7.34,16.81,16.81,0,0,1-2.69-.18,2.3,2.3,0,0,1-2.19-2.4v-8.72a13.53,13.53,0,0,0-.13-1.67h2.37A12.21,12.21,0,0,0,208.93,113.06Zm8.31-.16-1.3.54a19.59,19.59,0,0,0-1.25-2.22l1.27-.51C216.36,111.3,216.93,112.31,217.24,112.9Zm1.9-.74-1.26.55a17.52,17.52,0,0,0-1.3-2.21l1.26-.51A16.36,16.36,0,0,1,219.14,112.16Z"/><path class="cls-5" d="M226.07,117l-1.17,1.79c-.92-.64-2.58-1.71-3.65-2.28l1.15-1.77C223.49,115.3,225.25,116.41,226.07,117Zm1.28,3.65a16.14,16.14,0,0,0,6.22-6l1.23,2.17a19.21,19.21,0,0,1-6.35,5.77,20.33,20.33,0,0,1-5.35,2l-1.2-2.1A17.07,17.07,0,0,0,227.35,120.63Zm1.16-7.27-1.18,1.76c-.9-.62-2.56-1.69-3.62-2.28l1.15-1.76C225.92,111.65,227.68,112.77,228.51,113.36Zm4.77.5-1.39.59a14,14,0,0,0-1.41-2.51l1.35-.56A24.36,24.36,0,0,1,233.28,113.86Zm2.24-.86-1.36.6a15.72,15.72,0,0,0-1.5-2.43l1.36-.56A19.14,19.14,0,0,1,235.52,113Z"/><path class="cls-5" d="M245.28,112.07v.83h1.92a4.85,4.85,0,0,0,1.33-.16l1.33,1.3c-.42.4-.9.94-1.25,1.32a24.27,24.27,0,0,1-3.36,3.14c0,1.28,0,3,0,4,0,.64.07,1.55.12,2H243a16.8,16.8,0,0,0,.13-2V119.8a28.75,28.75,0,0,1-4.91,2L237,119.88a19.9,19.9,0,0,0,6.53-2.67,10.31,10.31,0,0,0,2.69-2.39h-5.79c-.58,0-1.59,0-2.08.06v-2.09a16.12,16.12,0,0,0,2,.11h2.77v-.83a11.12,11.12,0,0,0-.1-1.48h2.29A12.77,12.77,0,0,0,245.28,112.07Zm1,7.31,1.33-1.53a36,36,0,0,1,3.84,2.32l-1.35,1.76A24.9,24.9,0,0,0,246.26,119.38Z"/><path class="cls-5" d="M264.93,113.81a23.33,23.33,0,0,1-2.51,4.4,45.53,45.53,0,0,1,4.46,4.58l-1.82,1.59a36.37,36.37,0,0,0-4-4.53,21.19,21.19,0,0,1-6,4.49l-1.65-1.72a17.88,17.88,0,0,0,6.56-4.6,12.45,12.45,0,0,0,2.39-3.92h-5.43c-.67,0-1.55.1-1.89.11v-2.27c.43.06,1.41.11,1.89.11h5.65a5.46,5.46,0,0,0,1.65-.21l1.31,1A8.32,8.32,0,0,0,264.93,113.81Z"/><path class="cls-5" d="M130.8,137.67a16.18,16.18,0,0,1-3.84,4.38l-1.66-1.33a9.42,9.42,0,0,0,2.94-3H119.9c-.67,0-1.2.05-2,.11v-2.23a12.22,12.22,0,0,0,2,.16h8.63a7.92,7.92,0,0,0,1.63-.14l1.27,1.19A7.54,7.54,0,0,0,130.8,137.67Zm-10.34,10.9-1.87-1.52a6.5,6.5,0,0,0,1.68-.88c2-1.41,2.42-3.11,2.42-5.73a8.81,8.81,0,0,0-.11-1.44h2.32C124.9,143,124.82,146.23,120.46,148.57Z"/><path class="cls-5" d="M140.13,138.58a20.2,20.2,0,0,0,4.51-3.89l1.73,1.65a28.84,28.84,0,0,1-4.3,3.47v6.47a11.28,11.28,0,0,0,.14,2.1h-2.53a16.93,16.93,0,0,0,.11-2.1v-5.12a31.92,31.92,0,0,1-5.65,2.3l-1-2A25.82,25.82,0,0,0,140.13,138.58Z"/><path class="cls-5" d="M150.83,139.78h10.49a10.94,10.94,0,0,0,1.45-.1v2.09c-.4,0-1-.05-1.45-.05h-3.86a10.13,10.13,0,0,1-1,4.11,7.59,7.59,0,0,1-3.21,3.07l-1.88-1.36a6.47,6.47,0,0,0,2.9-2.29,6.78,6.78,0,0,0,1-3.53h-4.4c-.46,0-1.09,0-1.54.06v-2.1A11.38,11.38,0,0,0,150.83,139.78Zm2-4.07h5.24a12.68,12.68,0,0,0,1.73-.12v2.06c-.55,0-1.17-.05-1.73-.05h-5.24c-.54,0-1.23,0-1.71.05v-2.06A12,12,0,0,0,152.86,135.71Zm9.19,1-1.28.56a19.61,19.61,0,0,0-1.26-2.23l1.28-.53A24.7,24.7,0,0,1,162.05,136.68Zm1.92-.74-1.28.56a18.67,18.67,0,0,0-1.28-2.21l1.27-.53C163.09,134.37,163.68,135.38,164,135.94Z"/><path class="cls-5" d="M178.8,137.67a16.18,16.18,0,0,1-3.84,4.38l-1.66-1.33a9.42,9.42,0,0,0,2.94-3H167.9c-.67,0-1.2.05-2,.11v-2.23a12.22,12.22,0,0,0,2,.16h8.63a7.92,7.92,0,0,0,1.63-.14l1.27,1.19A7.54,7.54,0,0,0,178.8,137.67Zm-10.34,10.9-1.87-1.52a6.5,6.5,0,0,0,1.68-.88c2-1.41,2.42-3.11,2.42-5.73a8.81,8.81,0,0,0-.11-1.44h2.32C172.9,143,172.82,146.23,168.46,148.57Z"/><path class="cls-5" d="M188.88,148.42l-1.2-1.9a10.78,10.78,0,0,0,1.49-.26,4.34,4.34,0,0,0,3.65-4.29,4,4,0,0,0-3.36-4.22,34.27,34.27,0,0,1-1,4.34c-1,3.23-2.34,5.21-4.08,5.21s-3.25-2-3.25-4.65a7.11,7.11,0,0,1,7.34-6.86A6.1,6.1,0,0,1,195,142C195,145.42,192.92,147.8,188.88,148.42Zm-4.4-3.58c.67,0,1.3-1,2-3.17a23.25,23.25,0,0,0,.85-3.87,5,5,0,0,0-4.06,4.64C183.22,144.05,183.86,144.84,184.48,144.84Z"/><path class="cls-5" d="M199.52,141.61a12.5,12.5,0,0,0-2.88-1.69l1-1.42a11.25,11.25,0,0,1,3,1.52Zm1.84,2.12c-.8,1.7-1.73,3.54-2.62,5.11l-1.67-1.18a47.9,47.9,0,0,0,2.83-5.11Zm-1-6.4a11.06,11.06,0,0,0-2.83-1.73l1-1.41a12,12,0,0,1,2.9,1.57Zm7.32,5.72a7.53,7.53,0,0,0,4.08,4.38,7.19,7.19,0,0,0-1.33,1.67A9.05,9.05,0,0,1,206.1,144a8,8,0,0,1-4.15,5.14,7.18,7.18,0,0,0-1.58-1.34,7.21,7.21,0,0,0,4-4.72h-3.12v-1.8h3.41c0-.53,0-1.05,0-1.58v-1.31H202v-1.8h2.67v-2.43h1.89v2.43h3.84v4.69h1.2v1.8Zm-1.14-3.37c0,.53,0,1-.05,1.57h2v-2.89h-2Z"/><path class="cls-5" d="M221.12,146.9a15.31,15.31,0,0,0,1.83.1c.86,0,3.5,0,4.57-.05a7.42,7.42,0,0,0-.67,1.94h-4c-2.94,0-5.14-.48-6.61-2.75a8,8,0,0,1-2.13,3,11.42,11.42,0,0,0-1.57-1.3c1.73-1.28,2.52-3.48,2.8-6.22l2,.19c-.1.72-.21,1.39-.35,2a4.35,4.35,0,0,0,2.17,2.52v-5.66h-3.41v-1.8h8.81v1.8h-3.43v2h4.4v1.79h-4.4Zm-5.94-7.17h-1.87v-4h5.81v-1.6h2v1.6H227v4h-2v-2.19h-9.85Z"/><rect class="cls-4" x="47.46" y="329" width="250" height="100"/><path class="cls-5" d="M84.58,360.63h3.25a5.18,5.18,0,0,0,1.39-.17l1.63,1a8.09,8.09,0,0,0-.52,1.14A18.75,18.75,0,0,1,88,367.21c.68.5,1.31,1,1.77,1.35l-1.52,1.8c-.43-.4-1-.89-1.68-1.42a15,15,0,0,1-5.73,3.79L79,371.12a13.65,13.65,0,0,0,5.87-3.48c-1-.76-2.1-1.49-2.91-2l1.42-1.45c.85.48,1.86,1.13,2.87,1.8A11.38,11.38,0,0,0,88,362.46H83.38a19.13,19.13,0,0,1-4.23,4.14l-1.73-1.33a14.69,14.69,0,0,0,5.09-5.33,6.32,6.32,0,0,0,.74-1.66l2.32.72A17,17,0,0,0,84.58,360.63Z"/><path class="cls-5" d="M96.51,364.36h8.6c.75,0,1.46-.06,1.87-.09v2.51c-.38,0-1.2-.08-1.87-.08h-8.6c-.91,0-2,0-2.57.08v-2.51C94.51,364.31,95.68,364.36,96.51,364.36Z"/><path class="cls-5" d="M115,360.82c-.13.34-.27.74-.45,1.16h6.9a11.08,11.08,0,0,0,1.66-.11v2.19c-.59-.05-1.29-.07-1.66-.07h-2.24c-.29,4.26-2,7.11-4.85,8.93l-2.16-1.44a6.83,6.83,0,0,0,1.52-.88A8.55,8.55,0,0,0,117,364h-3.37a14.08,14.08,0,0,1-2.6,3.38l-2-1.22a12.67,12.67,0,0,0,2.77-3.29,11.66,11.66,0,0,0,.93-2.2A6.5,6.5,0,0,0,113,359l2.46.48C115.31,359.91,115.11,360.47,115,360.82Zm7.1.12-1.28.54a20.37,20.37,0,0,0-1.26-2.22l1.28-.52A22.17,22.17,0,0,1,122.08,360.94Zm1.93-.76-1.28.56a19.13,19.13,0,0,0-1.28-2.2l1.26-.53A24.84,24.84,0,0,1,124,360.18Z"/><path class="cls-5" d="M130.32,366.67l-1.95.73a30.82,30.82,0,0,0-1.46-3.69l1.92-.69C129.23,363.83,130,365.77,130.32,366.67Zm7.75-2.16a13,13,0,0,1-2.18,4.69,12.57,12.57,0,0,1-5.36,4l-1.68-1.72a10.76,10.76,0,0,0,5.31-3.34,10.91,10.91,0,0,0,2.05-5.49l2.24.72C138.26,363.85,138.17,364.19,138.07,364.51Zm-4.21,1.16-1.92.68a26.6,26.6,0,0,0-1.3-3.56l1.91-.62C132.85,362.86,133.64,364.94,133.86,365.67Z"/><path class="cls-5" d="M145.49,360.94a11.31,11.31,0,0,0-.16-1.92h2.5a15.93,15.93,0,0,0-.15,1.92v2.37a51.26,51.26,0,0,1,6.69,2.48l-.91,2.21a45.13,45.13,0,0,0-5.78-2.39v4.53c0,.46.08,1.58.15,2.24h-2.5a16.87,16.87,0,0,0,.16-2.24Z"/><path class="cls-5" d="M160.77,360.84a42,42,0,0,0-.77,5.87,7.37,7.37,0,0,0,.07,1l.72-1.63,1,.79c-.45,1.33-1,3.07-1.15,3.92a4.57,4.57,0,0,0-.08.75c0,.18,0,.43,0,.66l-1.86.13a20.57,20.57,0,0,1-.62-5.24,44.11,44.11,0,0,1,.67-6.34c0-.45.14-1.05.16-1.57l2.24.2A12.83,12.83,0,0,0,160.77,360.84Zm3.95,7.83c0,.7.61,1.13,2.24,1.13a18.79,18.79,0,0,0,4-.41l0,2.16a22.91,22.91,0,0,1-4.13.3c-2.75,0-4.08-1-4.08-2.62a10.06,10.06,0,0,1,.27-2.08l1.85.17A5.45,5.45,0,0,0,164.72,368.67Zm5.8-8.2v2.07a44,44,0,0,1-6.89,0v-2.05A33,33,0,0,0,170.52,360.47Z"/><path class="cls-5" d="M179.63,362.91a21.38,21.38,0,0,1-1.31,4.65,15.64,15.64,0,0,1,1.65,2.6l-1.52,1.29a15.13,15.13,0,0,0-1.09-2,10.86,10.86,0,0,1-3.28,3.46,8.26,8.26,0,0,0-1.28-1.49,8.85,8.85,0,0,0,3.41-3.63c-.85-1.14-1.79-2.27-2.67-3.25l1.36-1.07c.68.73,1.41,1.55,2.11,2.4a18.86,18.86,0,0,0,.77-3.23Zm8.26.59h-1.71v7.2c0,1.07-.19,1.63-.8,1.94a6.48,6.48,0,0,1-2.88.41,7.83,7.83,0,0,0-.61-2.05c.9.05,1.76,0,2,0s.39-.08.39-.34v-7.2h-4v-1.16h-7v-1.76H176v-2.44h1.83v2.44h3v1.09h3.49v-3.55h1.87v3.55h1.71Zm-6.24,1.26a12.9,12.9,0,0,1,1.78,3.38l-1.65.85a13.29,13.29,0,0,0-1.65-3.49Z"/><path class="cls-5" d="M198.8,360.15c0,.13,0,.31,0,.5,1.61,0,3.81,0,4.64,0l0,1.89c-1,0-2.45-.08-4.62-.08,0,.82,0,1.7,0,2.4a4,4,0,0,1,.58,2.2c0,2.08-1.22,4.73-5.12,5.82l-1.71-1.7a7.15,7.15,0,0,0,3.9-1.82,3.24,3.24,0,0,1-.72.08,2.82,2.82,0,0,1-2.75-2.95,3,3,0,0,1,3.2-3,4.48,4.48,0,0,1,.64,0c0-.35,0-.72,0-1.07-2.41,0-4.91.12-6.88.24l0-1.94c1.83,0,4.74-.06,6.92-.1,0-.2,0-.36,0-.49a9.62,9.62,0,0,0-.16-1.39h2.33C198.88,359,198.82,359.9,198.8,360.15Zm-2.67,7.49c.67,0,1.27-.51,1-1.92a1.17,1.17,0,0,0-1-.56,1.2,1.2,0,0,0-1.23,1.28A1.19,1.19,0,0,0,196.13,367.64Z"/><path class="cls-5" d="M209.44,359.56c.85,0,4.28-.06,5.19-.14a8,8,0,0,0,1.21-.18l1,1.42c-.36.24-.75.47-1.12.74-.86.61-2.54,2-3.55,2.82a6.18,6.18,0,0,1,1.52-.18c2.72,0,4.79,1.7,4.79,4,0,2.52-1.92,4.53-5.8,4.53-2.22,0-3.9-1-3.9-2.63a2.68,2.68,0,0,1,2.86-2.5,3.2,3.2,0,0,1,3.41,2.74,2.32,2.32,0,0,0,1.33-2.18c0-1.44-1.44-2.41-3.33-2.41-2.45,0-4.05,1.29-5.76,3.25l-1.46-1.51c1.14-.91,3.08-2.54,4-3.33s2.56-2.08,3.35-2.77c-.82,0-3,.11-3.88.16-.43,0-.94.08-1.31.13l-.06-2.08A11.64,11.64,0,0,0,209.44,359.56Zm2.88,11.22a8.85,8.85,0,0,0,.93,0c-.09-1-.69-1.71-1.55-1.71-.61,0-1,.37-1,.77C210.71,370.38,211.36,370.78,212.32,370.78Z"/><path class="cls-5" d="M235.78,366.11V368H221.2v-1.85h3.44V363h-2.88v-1.84h2.88v-3h2v3h3.68v-3h2v3h3V363h-3v3.08Zm-8.42,3.25a20.17,20.17,0,0,1-4.49,3.72,14.46,14.46,0,0,0-1.57-1.32,14.5,14.5,0,0,0,4-3.19Zm-.73-3.25h3.68V363h-3.68Zm4.69,2.41a49,49,0,0,1,4.35,3.44l-1.89,1.12a38.29,38.29,0,0,0-4.21-3.61Z"/><path class="cls-5" d="M240.05,362c0,2-.3,4.75-1.83,6.56a6.25,6.25,0,0,0-1.37-1.15c1.31-1.58,1.45-3.82,1.45-5.44v-2.4h6.81c-.05-.5-.08-1-.1-1.49h1.78c0,.5.05,1,.09,1.49h1.72a10.67,10.67,0,0,0-1.3-.59l.94-1a7.44,7.44,0,0,1,2.23,1l-.48.58h1.47v1.5h-4.35a18.12,18.12,0,0,0,.65,2.52,9.5,9.5,0,0,0,1-2.12l1.76.42a13,13,0,0,1-1.86,3.5c.44.64.89,1,1.33,1s.48-.54.56-1.92a4.59,4.59,0,0,0,1.44.83c-.27,2.28-.83,2.81-2.09,2.81a3.16,3.16,0,0,1-2.42-1.38A11.38,11.38,0,0,1,246,368a8.51,8.51,0,0,0-1-1v.29h-1a9.18,9.18,0,0,1,2.27,1.75L245,370.16a9.91,9.91,0,0,0-2.39-2l1.09-.91h-3.17v-3.46H245v2.63a9.33,9.33,0,0,0,1.51-1.23,16.15,16.15,0,0,1-1.2-4.12h-5.27ZM237,371.68a5.94,5.94,0,0,0,2-3.06l1.69.61a6.56,6.56,0,0,1-2.08,3.5Zm8.13-8.61h-4.7v-1.22h4.7Zm.9,8.09c.61,0,.72-.16.8-1.42a4.91,4.91,0,0,0,1.66.67c-.2,2-.73,2.45-2.28,2.45h-2.57c-2.06,0-2.54-.51-2.54-2.16v-2.06H243v2c0,.44.13.48.86.48Zm-2.56-6.11H242v1h1.46Zm5.94,3.33a10.72,10.72,0,0,1,2.56,3.33l-1.73.86a10.82,10.82,0,0,0-2.43-3.39Z"/><path class="cls-5" d="M259.84,360.44a40.6,40.6,0,0,0,4.53-.46v1.85a46.73,46.73,0,0,1-5.22.4,11,11,0,0,1-.91,1.64,5.2,5.2,0,0,1,1.81-.32,2.15,2.15,0,0,1,2.12,1.23c.84-.39,1.51-.66,2.16-.95s1.19-.52,1.78-.83l.8,1.86c-.51.14-1.36.46-1.9.67-.72.29-1.64.64-2.61,1.09,0,.89.05,2.08.06,2.82h-1.92c.05-.48.06-1.25.08-2-1.2.69-1.84,1.32-1.84,2.12s.75,1.12,2.32,1.12a26.46,26.46,0,0,0,4.55-.45l-.07,2.06a38.38,38.38,0,0,1-4.53.28c-2.51,0-4.37-.61-4.37-2.68s1.92-3.33,3.75-4.27a1.23,1.23,0,0,0-1.12-.55,3.92,3.92,0,0,0-2.5,1.11,19.9,19.9,0,0,0-1.49,1.76l-1.71-1.28a15.71,15.71,0,0,0,3.54-4.42h-.21c-.66,0-1.83,0-2.71-.1v-1.87a20.66,20.66,0,0,0,2.82.19h.77a8.47,8.47,0,0,0,.32-1.84l2.11.18A14.7,14.7,0,0,1,259.84,360.44Z"/><path class="cls-5" d="M72.88,393.44c.63,1.07,1.73,1.52,3.36,1.58,1.91.08,5.7,0,7.89-.14a8,8,0,0,0-.59,1.85c-2,.1-5.36.13-7.31,0S73,396.24,72.08,395c-.74.63-1.49,1.25-2.38,1.92l-.88-1.9a21.72,21.72,0,0,0,2.24-1.46v-3.49H69v-1.74h3.86Zm-.94-7.16a13.1,13.1,0,0,0-2.68-2.61l1.32-1.21a13.55,13.55,0,0,1,2.78,2.46Zm4.1,8.08h-1.8v-8.24h3.59c-.72-.33-1.49-.66-2.15-.91l1.24-1c.56.21,1.23.47,1.88.76a15,15,0,0,0,1.28-.85H74.39v-1.44h7.34l.37-.1,1.14.91a17.75,17.75,0,0,1-2.85,2.16c.35.18.69.34,1,.5h1.94v6.6c0,.76-.15,1.16-.66,1.42a4.84,4.84,0,0,1-2.16.27,5.4,5.4,0,0,0-.47-1.49c.5,0,1.06,0,1.22,0s.24-.08.24-.24V392H79.57v2.34H77.88V392H76Zm0-6.86v.86h1.84v-.86Zm1.84,3.09v-.9H76v.9Zm3.58-3.09H79.57v.86h1.89Zm0,3.09v-.9H79.57v.9Z"/><path class="cls-5" d="M90.19,385.11c-.06,1.73-.19,5.32-.19,7.3a1.94,1.94,0,0,0,2.21,2.15,6.42,6.42,0,0,0,5.48-3.27l1.45,1.76a8.27,8.27,0,0,1-6.94,3.68c-2.63,0-4.33-1.15-4.33-3.89,0-2.14.16-6.35.16-7.73a10.51,10.51,0,0,0-.2-2.16l2.57,0C90.31,383.66,90.23,384.47,90.19,385.11Z"/><path class="cls-5" d="M107.71,384.41c0,.17-.08.38-.12.61.89-.13,1.79-.31,2.67-.52v2a26.33,26.33,0,0,1-3.12.53c-.15.69-.31,1.4-.48,2.05a49.59,49.59,0,0,1-2.55,7.41l-2.22-.75a34.53,34.53,0,0,0,2.77-7.2c.11-.43.24-.88.33-1.35-.36,0-.72,0-1,0-.77,0-1.38,0-1.94-.07l0-2a15.22,15.22,0,0,0,2,.13c.46,0,.94,0,1.44-.05.06-.35.11-.66.14-.91a7.68,7.68,0,0,0,0-1.62l2.45.19C107.92,383.34,107.78,384.06,107.71,384.41Zm1.93,8.69c0,.7.48,1.23,2.19,1.23a19.65,19.65,0,0,0,3.33-.33l-.08,2a24.32,24.32,0,0,1-3.27.23c-2.69,0-4.14-.93-4.14-2.55a11.05,11.05,0,0,1,.29-2.14l1.9.19A5.41,5.41,0,0,0,109.64,393.1Zm2.43-5.52c.91,0,1.87.05,2.82.14l0,1.92a24.94,24.94,0,0,0-2.76-.19,27.82,27.82,0,0,0-3.08.16v-1.87C109.89,387.66,111,387.58,112.07,387.58Z"/><path class="cls-5" d="M121.89,382.7a29.5,29.5,0,0,1-1.44,3.15v11.2h-1.79V388.7a11.8,11.8,0,0,1-1,1.18,14.53,14.53,0,0,0-1-1.92,16.63,16.63,0,0,0,3.48-5.81Zm7,2.68v2h2.7v9.23H129.8v-.82h-6.34v.92H121.7v-9.33h2.58v-2h-2.74v-1.69H131.7v1.69Zm-5.46,8.79h1V389h-1Zm2.59-5.14v5.14h1.07V389Zm1.07-3.65h-1.05v2h1.05ZM129.8,389h-1.08v5.14h1.08Z"/><path class="cls-5" d="M138.1,382.74a25.89,25.89,0,0,1-1.54,3.3v11h-1.81v-8.18a15.55,15.55,0,0,1-1.09,1.28,11.42,11.42,0,0,0-1-2,17,17,0,0,0,3.63-6Zm9.75,13.59h-8.17v.72h-1.76V387h1.76v7.68h8.17Zm-5.67-10.24c0-.27.06-.58.1-.88h-4v-1.63h4.11c0-.5.07-1,.08-1.44l1.91.07c0,.44-.08.9-.13,1.37h3.49v1.63h-3.67c0,.3-.08.61-.12.88h3.13v7.78h-6.45v-7.78Zm3.07,1.38H142.4v.81h2.85Zm0,2.09H142.4v.82h2.85Zm0,2.1H142.4v.83h2.85Z"/><path class="cls-5" d="M156.18,383.64c-.05.27-.11.56-.16.88a28.58,28.58,0,0,0,5.44-.7l0,1.85a43.85,43.85,0,0,1-5.69.56c0,.48-.09,1-.11,1.46a10.7,10.7,0,0,1,2.39-.29h.29c.06-.32.12-.72.14-1l1.95.47c-.06.17-.19.51-.28.81a4.14,4.14,0,0,1,3.08,3.92c0,2.28-1.32,4.47-5.26,5.06L156.93,395c3.09-.34,4.34-1.9,4.34-3.47a2.38,2.38,0,0,0-1.67-2.24,12.25,12.25,0,0,1-3.36,4.86c.12.4.24.8.37,1.19l-1.84.56c-.06-.21-.14-.44-.21-.66a5.75,5.75,0,0,1-2.48.64,2.07,2.07,0,0,1-2.16-2.32c0-2.07,1.7-4.21,3.94-5.27,0-.68.08-1.36.14-2h-.51c-.83,0-2.08-.07-2.83-.1l0-1.86a21.81,21.81,0,0,0,2.94.23h.64c0-.31.07-.59.1-.87a7.82,7.82,0,0,0,0-1l2.08.05C156.31,383.11,156.24,383.4,156.18,383.64ZM152.55,394a3.41,3.41,0,0,0,1.6-.53,21.49,21.49,0,0,1-.34-3.2,4.18,4.18,0,0,0-2,2.94C151.81,393.68,152,394,152.55,394Zm3.26-1.86a9.93,9.93,0,0,0,2-3.06,7.79,7.79,0,0,0-2.21.36v0A16.62,16.62,0,0,0,155.81,392.09Z"/><path class="cls-5" d="M169.44,383.56c.85,0,4.28-.06,5.19-.14a8,8,0,0,0,1.21-.18l1,1.42c-.36.24-.75.47-1.12.74-.86.61-2.54,2-3.55,2.82a6.18,6.18,0,0,1,1.52-.18c2.72,0,4.79,1.7,4.79,4,0,2.52-1.92,4.53-5.8,4.53-2.22,0-3.9-1-3.9-2.63a2.68,2.68,0,0,1,2.86-2.5,3.2,3.2,0,0,1,3.41,2.74,2.32,2.32,0,0,0,1.33-2.18c0-1.44-1.44-2.41-3.33-2.41-2.45,0-4.05,1.29-5.76,3.25l-1.46-1.51c1.14-.91,3.08-2.54,4-3.33s2.56-2.08,3.35-2.77c-.82,0-3,.11-3.88.16-.43,0-.94.08-1.31.13l-.06-2.08A11.64,11.64,0,0,0,169.44,383.56Zm2.88,11.22a8.85,8.85,0,0,0,.93,0c-.09-1-.69-1.71-1.55-1.71-.61,0-1,.37-1,.77C170.71,394.38,171.36,394.78,172.32,394.78Z"/><path class="cls-5" d="M193.27,388.33c0,3.84.18,6.87,1.1,6.87.24,0,.31-.85.34-2.15a8.51,8.51,0,0,0,1.23,1.19c-.14,2-.48,2.84-1.71,2.84-2.34,0-2.8-3.05-2.9-7.15h-8.58V388.6l-.14.13a16,16,0,0,0-1.73-1.2,10.54,10.54,0,0,0,3.41-5.47l2,.41c-.12.4-.25.8-.4,1.19h9.46v1.58H185.17q-.19.39-.42.75h9.13v1.54h-9.24v-1.35a12.68,12.68,0,0,1-1.61,2.15Zm-3.2,2.29a13.47,13.47,0,0,1-1.7,2.46,20,20,0,0,1,2.53,2.05l-1.52,1.44a17.48,17.48,0,0,0-2.37-2.06,17.76,17.76,0,0,1-4.18,2.82,10.36,10.36,0,0,0-1.41-1.49,14.15,14.15,0,0,0,4.05-2.42c-.91-.61-1.84-1.17-2.68-1.65l1.36-1.25c.83.44,1.76,1,2.67,1.56a11,11,0,0,0,1.41-2.07Z"/><path class="cls-5" d="M202.63,382.81a31.32,31.32,0,0,1-1.52,3.23v11h-2v-8c-.36.46-.75.89-1.12,1.28a15.36,15.36,0,0,0-1.12-2,16.74,16.74,0,0,0,3.83-6.11Zm9.3,4.67h-1.76v7.27c0,1.23-.29,1.73-1.06,2a11.5,11.5,0,0,1-3.75.31,7.33,7.33,0,0,0-.73-1.88c1.23,0,2.64,0,3,0s.54-.13.54-.48v-7.27h-6.1v-1.92h6.1v-3.27h2v3.27h1.76Zm-7.05,5.78a38.88,38.88,0,0,0-2.08-3.84l1.7-.79c.72,1.17,1.71,2.74,2.19,3.7Z"/><path class="cls-5" d="M221.12,387.67c-.08-.19-.14-.38-.2-.56-.13-.36-.23-.67-.33-.94a36.37,36.37,0,0,1-5.39-.15l-.11-1.84a32.27,32.27,0,0,0,5,.24c-.16-.51-.32-1-.51-1.58l2.14-.24c.08.58.18,1.14.29,1.68a18,18,0,0,0,3.15-.69l.26,1.84a22.61,22.61,0,0,1-3,.59c.08.26.16.52.24.76s.18.46.28.72a20.24,20.24,0,0,0,3.05-.64l.32,1.89a22.1,22.1,0,0,1-2.56.49c.27.51.55,1,.83,1.43a5,5,0,0,0,.73.81l-1,1.48c-.9-.18-2.63-.39-3.8-.52l.16-1.52,2,.2c-.33-.57-.64-1.13-.89-1.67a58,58,0,0,1-7,0l-.11-1.88A40.42,40.42,0,0,0,221.12,387.67Zm-4,5.37c0,1.18,1.12,1.66,3.23,1.66a21.48,21.48,0,0,0,4-.35l-.11,2a24.83,24.83,0,0,1-3.89.31c-3.2,0-5.19-.95-5.22-3.24a5.28,5.28,0,0,1,.69-2.57l2,.38A3,3,0,0,0,217.17,393Z"/><path class="cls-5" d="M237.2,396.43l-1.2-1.91a12.73,12.73,0,0,0,1.49-.25,4.34,4.34,0,0,0,3.65-4.29,4,4,0,0,0-3.36-4.23,32.27,32.27,0,0,1-1,4.34c-1,3.23-2.34,5.22-4.08,5.22s-3.25-1.95-3.25-4.66a7.11,7.11,0,0,1,7.34-6.85A6.1,6.1,0,0,1,243.3,390C243.3,393.42,241.24,395.8,237.2,396.43Zm-4.4-3.59c.67,0,1.3-1,1.95-3.17a23,23,0,0,0,.85-3.87,5,5,0,0,0-4.06,4.64C231.54,392.06,232.18,392.84,232.8,392.84Z"/><path class="cls-5" d="M259.54,383.5a22,22,0,0,1-2.82,9.06,9.44,9.44,0,0,0,3.41,2.83,7.31,7.31,0,0,0-1.36,1.66,10.69,10.69,0,0,1-3.29-2.78A12.84,12.84,0,0,1,252.1,397a7.32,7.32,0,0,0-1.27-1.62v1.63H249v-4c-1.28.37-2.58.71-3.67,1l-.43-2,1.1-.22V384h1.78v7.47l1.22-.29v-9h1.85v13.16a10.13,10.13,0,0,0,3.46-2.89,24.3,24.3,0,0,1-2.38-7l1.82-.32a20.61,20.61,0,0,0,1.78,5.43,18.75,18.75,0,0,0,1.86-5.56h-6v-1.87h6.54l.32-.06Z"/><path class="cls-5" d="M270.92,393.42a19.13,19.13,0,0,0,5.12,1.94,7.53,7.53,0,0,0-1.19,1.52,17.82,17.82,0,0,1-5.49-2.63v2.8h-1.87v-2.73A17.9,17.9,0,0,1,262,397a10.18,10.18,0,0,0-1.22-1.57,19.48,19.48,0,0,0,5.3-2h-4.77V391.9h6.21v-.62h-4.4V387c-.29.28-.59.53-.91.79a6.05,6.05,0,0,0-1.35-1.28,12.79,12.79,0,0,0,3.8-4.36l2,.37a14.84,14.84,0,0,1-.86,1.38H268a13.79,13.79,0,0,0,.71-1.73l2.14.26c-.27.51-.57,1-.86,1.47h4.78v1.47h-5V386H274v1.25h-4.24v.67H274v1.25h-4.25v.68h5.49v1.45h-5.88v.62h6.29v1.52Zm-3-8.1h-3V386h3Zm0,1.91h-3v.67h3Zm-3,2.6h3v-.68h-3Z"/><rect class="cls-4" x="538.46" y="329" width="250" height="100"/><path class="cls-5" d="M572.25,361.89v3a39.76,39.76,0,0,0,5.54-1.78,10.36,10.36,0,0,0,1.74-.86l.87,2c-.63.26-1.35.56-1.88.75a56.39,56.39,0,0,1-6.27,2v3c0,.69.32.86,1,1a16,16,0,0,0,1.86.09,27.35,27.35,0,0,0,5.57-.56v2.34a46.42,46.42,0,0,1-5.7.33,18.22,18.22,0,0,1-2.69-.17,2.31,2.31,0,0,1-2.19-2.4v-8.73a13.24,13.24,0,0,0-.13-1.66h2.37A12.07,12.07,0,0,0,572.25,361.89Zm8.31-.16-1.3.55a19.71,19.71,0,0,0-1.25-2.23l1.27-.51C579.68,360.13,580.25,361.14,580.56,361.73Zm1.9-.73-1.26.54a17.52,17.52,0,0,0-1.3-2.21l1.27-.51A17.48,17.48,0,0,1,582.46,361Z"/><path class="cls-5" d="M589.39,365.82l-1.17,1.79c-.91-.64-2.58-1.71-3.65-2.29l1.15-1.76A41.22,41.22,0,0,1,589.39,365.82Zm1.28,3.64a16.14,16.14,0,0,0,6.22-6l1.24,2.18a19.43,19.43,0,0,1-6.36,5.76,20.33,20.33,0,0,1-5.35,2l-1.2-2.1A17.07,17.07,0,0,0,590.67,369.46Zm1.16-7.26L590.65,364c-.9-.63-2.56-1.7-3.62-2.29l1.16-1.76C589.24,360.49,591,361.61,591.83,362.2Zm4.78.49-1.4.6a14.1,14.1,0,0,0-1.41-2.52l1.35-.56A27.8,27.8,0,0,1,596.61,362.69Zm2.24-.86-1.36.61A16.15,16.15,0,0,0,596,360l1.36-.56A20.46,20.46,0,0,1,598.85,361.83Z"/><path class="cls-5" d="M608.6,360.9v.83h1.92a4.49,4.49,0,0,0,1.33-.16l1.33,1.3c-.41.4-.89.94-1.25,1.33a23.71,23.71,0,0,1-3.36,3.14c0,1.28,0,3,0,4,0,.64.06,1.55.11,2.05h-2.31a17.11,17.11,0,0,0,.13-2.05v-2.74a27.64,27.64,0,0,1-4.91,2l-1.24-1.89a20.06,20.06,0,0,0,6.54-2.67,10.41,10.41,0,0,0,2.68-2.39h-5.79c-.58,0-1.59,0-2.08.07v-2.1a14.47,14.47,0,0,0,2,.11h2.77v-.83a11,11,0,0,0-.1-1.47h2.29A12.59,12.59,0,0,0,608.6,360.9Zm1,7.32,1.33-1.54a36,36,0,0,1,3.84,2.32l-1.34,1.76A25.37,25.37,0,0,0,609.58,368.22Z"/><path class="cls-5" d="M628.25,362.65a23.65,23.65,0,0,1-2.51,4.4,44.73,44.73,0,0,1,4.47,4.58l-1.83,1.58a37.09,37.09,0,0,0-4-4.53,21.23,21.23,0,0,1-6,4.5l-1.65-1.73a17.87,17.87,0,0,0,6.56-4.59,12.31,12.31,0,0,0,2.39-3.93H620.2c-.67,0-1.55.1-1.89.12v-2.28a16.56,16.56,0,0,0,1.89.11h5.65a5.87,5.87,0,0,0,1.65-.2l1.31,1A10.29,10.29,0,0,0,628.25,362.65Z"/><path class="cls-5" d="M635.5,367.94v3.73c0,.88-.15,1.35-.63,1.64a3.92,3.92,0,0,1-2.21.36,6,6,0,0,0-.49-1.74c.59,0,1.13,0,1.33,0s.27-.06.27-.27v-3.2l-1.47.41-.44-1.84c.55-.11,1.19-.29,1.91-.46v-2.84H632V362h1.73v-3h1.73v3h1.6v1.76h-1.6v2.37l1.44-.38.25,1.71Zm7.28,4c.37,0,.72,0,1.12,0,.55,0,2.53,0,3.22,0a5.27,5.27,0,0,0-.51,1.66h-2.79c-2.1,0-3.71-.38-4.8-2.32a7.08,7.08,0,0,1-1.67,2.52,10.39,10.39,0,0,0-1.4-1.14c1.32-1.06,2-2.83,2.22-5l1.73.21a14,14,0,0,1-.31,1.61,3.65,3.65,0,0,0,1.4,1.88v-4.18h-3.76V365.7h9.46v1.54h-3.91v1.41h3.06v1.49h-3.06Zm3.11-7H638v-5.53h7.9Zm-1.83-4.18h-4.32v.8h4.32Zm0,2h-4.32v.81h4.32Z"/><path class="cls-5" d="M653.16,359.54a27.44,27.44,0,0,1-1.52,3.33v11h-1.87v-8.11c-.34.43-.67.81-1,1.18a11.63,11.63,0,0,0-1-2,16.88,16.88,0,0,0,3.65-6Zm3.73,10.6a14.83,14.83,0,0,1-3.18,3.71,12,12,0,0,0-1.49-1.2,10,10,0,0,0,2.9-3.06Zm6-3.06v1.86H652.54v-1.86h2.14v-3.19h-1.74v-1.82h1.74v-3h1.86v3h2.32v-3h1.86v3h2.08v1.82h-2.08v3.19Zm-6.39,0h2.32v-3.19h-2.32Zm3.58,2.5a19.59,19.59,0,0,1,2.73,3.29l-1.6,1a18.63,18.63,0,0,0-2.65-3.47Z"/><path class="cls-5" d="M668.89,359.52a28.77,28.77,0,0,1-1.44,3.16v11.2h-1.79v-8.35a11.8,11.8,0,0,1-1,1.18,13.94,13.94,0,0,0-1-1.92,16.63,16.63,0,0,0,3.48-5.81Zm7,2.69v2h2.7v9.24H676.8v-.82h-6.34v.92H668.7v-9.34h2.58v-2h-2.74v-1.69H678.7v1.69ZM670.46,371h1v-5.14h-1Zm2.59-5.14V371h1.07v-5.14Zm1.07-3.65h-1v2h1Zm2.68,3.65h-1.08V371h1.08Z"/><path class="cls-5" d="M685.1,359.57a25.89,25.89,0,0,1-1.54,3.3v11h-1.81v-8.18a15.55,15.55,0,0,1-1.09,1.28,11.42,11.42,0,0,0-1-2,17,17,0,0,0,3.63-6Zm9.75,13.59h-8.17v.72h-1.76v-10h1.76v7.68h8.17Zm-5.67-10.24c0-.27.06-.58.1-.88h-4v-1.63h4.11c0-.5.07-1,.08-1.45l1.91.08c0,.44-.08.9-.13,1.37h3.49V362h-3.67c0,.3-.08.61-.12.88h3.13v7.78h-6.45v-7.78Zm3.07,1.37H689.4v.82h2.85Zm0,2.1H689.4v.82h2.85Zm0,2.1H689.4v.83h2.85Z"/><path class="cls-5" d="M704.2,373.26l-1.2-1.91a12.73,12.73,0,0,0,1.49-.25,4.35,4.35,0,0,0,3.65-4.29,4,4,0,0,0-3.36-4.23,32.27,32.27,0,0,1-1,4.34c-1,3.23-2.34,5.22-4.08,5.22s-3.25-2-3.25-4.66a7.11,7.11,0,0,1,7.34-6.85,6.1,6.1,0,0,1,6.47,6.24C710.3,370.25,708.24,372.63,704.2,373.26Zm-4.4-3.59c.67,0,1.3-1,2-3.17a23,23,0,0,0,.85-3.87,5,5,0,0,0-4.06,4.64C698.54,368.89,699.18,369.67,699.8,369.67Z"/><path class="cls-5" d="M721.26,370c1.14,1.28,2.93,2,5.46,2.29a7.23,7.23,0,0,0-1.12,1.66c-3-.48-5-1.62-6.21-3.6-.95,1.42-2.72,2.69-6,3.57a7.72,7.72,0,0,0-1.18-1.54c2.69-.61,4.22-1.44,5.1-2.38H712.5v-1.65h5.75a7.07,7.07,0,0,0,.16-1h-4.1v-1.54h4.12v-1h-4.37v-1.05h-1.43v-3.41h5.84V359h2v1.4h5.86v3.41H725v1.05h-4.67v1h4.36v1.54h-4.37a5.82,5.82,0,0,1-.13,1h6.32V370Zm-2.83-6.69v-.92h1.9v.92h4V362h-9.8v1.27Z"/><path class="cls-5" d="M728,361.65h5.94v1.51H728Zm5.48,11.61H730.3v.62h-1.6v-5.46h4.77Zm-.12-7.89h-4.61v-1.43h4.61Zm-4.61.8h4.61v1.44h-4.61Zm4.61-5.29h-4.51v-1.44h4.51Zm-3.05,9.05v1.82h1.53v-1.82ZM743,371.56v1.78h-9v-1.78h1V364h1.77v7.59H738v-10h-3.52v-1.81h8.24v1.81h-2.85v3.78h2.77v1.79h-2.77v4.42Z"/><path class="cls-5" d="M750.75,364.18c1.31-.77,2.7-1.45,3.45-1.89a9.63,9.63,0,0,0,1.49-1l1.11,1.85c-.48.29-1,.56-1.59.87a44.32,44.32,0,0,0-4.46,2.37c-1.33.88-2.23,1.79-2.23,2.91s1.11,1.76,3.33,1.76a24.77,24.77,0,0,0,5.23-.59l0,2.3a29.64,29.64,0,0,1-5.13.4c-3.19,0-5.61-.88-5.61-3.63,0-1.76,1.12-3.09,2.66-4.23-.74-1.36-1.5-3.07-2.22-4.76l2-.82A36.82,36.82,0,0,0,750.75,364.18Z"/><path class="cls-5" d="M588.25,385.89v3a39.76,39.76,0,0,0,5.54-1.78,10.36,10.36,0,0,0,1.74-.86l.87,2c-.63.26-1.35.56-1.88.75a56.39,56.39,0,0,1-6.27,2v3c0,.69.32.86,1,1a16,16,0,0,0,1.86.09,27.35,27.35,0,0,0,5.57-.56v2.34a46.42,46.42,0,0,1-5.7.33,18.22,18.22,0,0,1-2.69-.17,2.31,2.31,0,0,1-2.19-2.4v-8.73a13.24,13.24,0,0,0-.13-1.66h2.37A12.07,12.07,0,0,0,588.25,385.89Zm8.31-.16-1.3.55a19.71,19.71,0,0,0-1.25-2.23l1.27-.51C595.68,384.13,596.25,385.14,596.56,385.73Zm1.9-.73-1.26.54a17.52,17.52,0,0,0-1.3-2.21l1.27-.51A17.48,17.48,0,0,1,598.46,385Z"/><path class="cls-5" d="M605.39,389.82l-1.17,1.79c-.91-.64-2.58-1.71-3.65-2.29l1.15-1.76A41.22,41.22,0,0,1,605.39,389.82Zm1.28,3.64a16.14,16.14,0,0,0,6.22-6l1.24,2.18a19.43,19.43,0,0,1-6.36,5.76,20.33,20.33,0,0,1-5.35,2l-1.2-2.1A17.07,17.07,0,0,0,606.67,393.46Zm1.16-7.26L606.65,388c-.9-.63-2.56-1.7-3.62-2.29l1.16-1.76C605.24,384.49,607,385.61,607.83,386.2Zm4.78.49-1.4.6a14.1,14.1,0,0,0-1.41-2.52l1.35-.56A27.8,27.8,0,0,1,612.61,386.69Zm2.24-.86-1.36.61A16.15,16.15,0,0,0,612,384l1.36-.56A20.46,20.46,0,0,1,614.85,385.83Z"/><path class="cls-5" d="M624.6,384.9v.83h1.92a4.49,4.49,0,0,0,1.33-.16l1.33,1.3c-.41.4-.89.94-1.25,1.33a23.71,23.71,0,0,1-3.36,3.14c0,1.28,0,3,0,4,0,.64.06,1.55.11,2.05h-2.31a17.11,17.11,0,0,0,.13-2.05v-2.74a27.64,27.64,0,0,1-4.91,2l-1.24-1.89a20.06,20.06,0,0,0,6.54-2.67,10.41,10.41,0,0,0,2.68-2.39h-5.79c-.58,0-1.59,0-2.08.07v-2.1a14.47,14.47,0,0,0,2,.11h2.77v-.83a11,11,0,0,0-.1-1.47h2.29A12.59,12.59,0,0,0,624.6,384.9Zm1,7.32,1.33-1.54a36,36,0,0,1,3.84,2.32l-1.34,1.76A25.37,25.37,0,0,0,625.58,392.22Z"/><path class="cls-5" d="M644.25,386.65a23.65,23.65,0,0,1-2.51,4.4,44.73,44.73,0,0,1,4.47,4.58l-1.83,1.58a37.09,37.09,0,0,0-4-4.53,21.23,21.23,0,0,1-6,4.5l-1.65-1.73a17.87,17.87,0,0,0,6.56-4.59,12.31,12.31,0,0,0,2.39-3.93H636.2c-.67,0-1.55.1-1.89.12v-2.28a16.56,16.56,0,0,0,1.89.11h5.65a5.87,5.87,0,0,0,1.65-.2l1.31,1A10.29,10.29,0,0,0,644.25,386.65Z"/><path class="cls-5" d="M651.77,384.82h7.7a11.6,11.6,0,0,0,1.44-.08v2c-.42,0-.87-.05-1.44-.05h-3.76v2.73h4.83c.34,0,1.14,0,1.55-.07l0,2c-.45,0-1.17,0-1.52,0h-4.88v2.45c0,.88.54,1.2,1.82,1.2a41.21,41.21,0,0,0,4.13-.22l-.14,2.16c-1,.06-2.85.13-4.36.13-2.93,0-3.65-1-3.65-2.63v-3.09h-2.6c-.47,0-1.27,0-1.75.08v-2.1c.45,0,1.25.09,1.75.09h2.6v-2.73h-1.74c-.58,0-1.09,0-1.55.05v-2C650.68,384.77,651.19,384.82,651.77,384.82Z"/><path class="cls-5" d="M666.15,388.61h10.49a12.79,12.79,0,0,0,1.45-.09v2.08c-.4,0-1-.05-1.45-.05h-3.86a10.22,10.22,0,0,1-1,4.12,7.53,7.53,0,0,1-3.21,3.07l-1.87-1.36a6.57,6.57,0,0,0,2.89-2.29,6.79,6.79,0,0,0,1-3.54h-4.4c-.46,0-1.09,0-1.53.07v-2.1A13,13,0,0,0,666.15,388.61Zm2-4.06h5.23a12.71,12.71,0,0,0,1.73-.13v2.07c-.55,0-1.17-.05-1.73-.05h-5.23c-.55,0-1.24,0-1.72.05v-2.07A12.1,12.1,0,0,0,668.19,384.55Zm9.18,1-1.28.56a19.61,19.61,0,0,0-1.26-2.23l1.28-.52A24.56,24.56,0,0,1,677.37,385.51Zm1.92-.74-1.28.56a17.38,17.38,0,0,0-1.28-2.21l1.27-.52A23.26,23.26,0,0,1,679.29,384.77Z"/><path class="cls-5" d="M682.83,392.09a28.08,28.08,0,0,0,.46-6.34,6.4,6.4,0,0,0-.14-1.47h2.35a9.93,9.93,0,0,0-.11,1.45,35.57,35.57,0,0,1-.48,6.89,9.43,9.43,0,0,1-2.85,4.59l-2-1.3A7.55,7.55,0,0,0,682.83,392.09Zm4.81,2.88v-9.33a6.76,6.76,0,0,0-.13-1.38h2.39a7.78,7.78,0,0,0-.11,1.39V394a10.15,10.15,0,0,0,4-3.37l1.23,1.76a17.48,17.48,0,0,1-5.42,4.37,3.23,3.23,0,0,0-.69.48l-1.35-1.11A5.59,5.59,0,0,0,687.64,395Z"/><path class="cls-5" d="M704.2,397.26l-1.2-1.91a12.73,12.73,0,0,0,1.49-.25,4.35,4.35,0,0,0,3.65-4.29,4,4,0,0,0-3.36-4.23,32.27,32.27,0,0,1-1,4.34c-1,3.23-2.34,5.22-4.08,5.22s-3.25-2-3.25-4.66a7.11,7.11,0,0,1,7.34-6.85,6.1,6.1,0,0,1,6.47,6.24C710.3,394.25,708.24,396.63,704.2,397.26Zm-4.4-3.59c.67,0,1.3-1,2-3.17a23,23,0,0,0,.85-3.87,5,5,0,0,0-4.06,4.64C698.54,392.89,699.18,393.67,699.8,393.67Z"/><path class="cls-5" d="M726.93,397.27h-6.1v.63H719v-7l-.36.28a11.23,11.23,0,0,0-.93-1.09V396h-2.89v1.25h-1.54v-4.05a8.92,8.92,0,0,1-.58.88,9.25,9.25,0,0,0-1-1.81,15.9,15.9,0,0,0,2.09-6.63h-1.55v-1.73H718v.55h3.25c.16-.48.3-1,.42-1.49l1.79.32c-.1.4-.21.78-.32,1.17h3.7v2.91h-1.68V386h-2.61a13,13,0,0,1-1,2h1.3a12.07,12.07,0,0,0,.56-1.62l1.73.37c-.19.43-.4.85-.61,1.25h2v1.57h-2.42v1.07h2.07v1.39h-2.07v1.14h2.07v1.37h-2.07v1.14h2.79Zm-10.78-7.06h-1.29v4.12h1.29Zm1.6-.7A9.53,9.53,0,0,0,720.6,386h-1.12v1.31h-1.61v-1.73h-2.26c-.14,1-.34,2-.56,3h2.7Zm4.65.1h-1.57v1.07h1.57Zm0,2.46h-1.57v1.14h1.57Zm-1.57,3.65h1.57v-1.14h-1.57Z"/><path class="cls-5" d="M736.44,395.74a17.8,17.8,0,0,0,1.83.09c.86,0,3.5,0,4.58,0a6.91,6.91,0,0,0-.68,1.93h-4c-2.94,0-5.14-.48-6.61-2.75a8,8,0,0,1-2.13,3,12.15,12.15,0,0,0-1.57-1.29c1.73-1.28,2.52-3.49,2.81-6.23l2,.19c-.1.72-.21,1.4-.35,2a4.3,4.3,0,0,0,2.17,2.51v-5.65h-3.4v-1.81h8.8v1.81h-3.43v2h4.41v1.79h-4.41Zm-5.94-7.17h-1.87v-4h5.81V383h2v1.61h5.86v4h-2v-2.2H730.5Z"/><rect class="cls-4" x="287.46" y="448" width="250" height="100"/><path class="cls-5" d="M382.26,490c1.14,1.28,2.93,2,5.46,2.29a7.23,7.23,0,0,0-1.12,1.66c-3-.48-5-1.62-6.21-3.6-.95,1.42-2.72,2.69-6,3.57a7.72,7.72,0,0,0-1.18-1.54c2.69-.61,4.22-1.44,5.1-2.38H373.5v-1.65h5.75a7.07,7.07,0,0,0,.16-1h-4.1v-1.54h4.12v-1h-4.37v-1.05h-1.43v-3.41h5.84V479h2v1.4h5.86v3.41H386v1.05h-4.67v1h4.36v1.54h-4.37a5.82,5.82,0,0,1-.13,1h6.32V490Zm-2.83-6.69v-.92h1.9v.92h4V482h-9.8v1.27Z"/><path class="cls-5" d="M389,481.65h5.94v1.51H389Zm5.48,11.61H391.3v.62h-1.6v-5.46h4.77Zm-.12-7.89h-4.61v-1.43h4.61Zm-4.61.8h4.61v1.44h-4.61Zm4.61-5.29h-4.51v-1.44h4.51Zm-3.05,9.05v1.82h1.53v-1.82ZM404,491.56v1.78h-9v-1.78h1V484h1.77v7.59H399v-10h-3.52v-1.81h8.24v1.81h-2.85v3.78h2.77v1.79h-2.77v4.42Z"/><path class="cls-5" d="M412.07,479.67l2.16-.26a19.46,19.46,0,0,0,.67,2.52,25.5,25.5,0,0,0,3.28-.74l.26,2a20.8,20.8,0,0,1-2.85.57,16.94,16.94,0,0,0,1.42,2.61,10.89,10.89,0,0,0,.87,1.07l-1,1.44c-.89-.17-2.91-.38-4.25-.49l.16-1.7,2.33.19a20.81,20.81,0,0,1-1.5-2.89,42.73,42.73,0,0,1-6.83-.07l0-2.05a33.61,33.61,0,0,0,6.15.23c-.13-.37-.23-.71-.32-1S412.28,480.2,412.07,479.67Zm-2.9,9.84c0,1.35,1.2,1.92,3.39,1.92a22.39,22.39,0,0,0,4.29-.38l-.11,2a23.11,23.11,0,0,1-4.3.38c-3.27,0-5.34-1.28-5.34-3.58a6.61,6.61,0,0,1,.85-3l2,.46A3.87,3.87,0,0,0,409.17,489.51Z"/><path class="cls-5" d="M424.75,479.52l2.34.08c-.1.45-.24,1.27-.35,2.26l.59.77c-.22.29-.54.82-.82,1.23,0,.11,0,.23,0,.35,1.27-1.1,3.11-2.4,4.66-2.4a2.24,2.24,0,0,1,2.51,2.37c0,1.67-.53,4-.53,5.67,0,.41.21.72.61.72a3.31,3.31,0,0,0,2.08-1.15l.26,2.25a4.26,4.26,0,0,1-3,1.19c-1.2,0-2-.87-2-2.42,0-1.73.58-4.08.58-5.54a1,1,0,0,0-1.09-1.18c-1.19,0-2.92,1.47-4.23,2.91,0,.45,0,.88,0,1.3,0,1.31,0,2.65.1,4.16,0,.29.06.86.11,1.23h-2.21c0-.37,0-.93,0-1.18,0-1.25.05-2.18.06-3.52-.67,1-1.45,2.17-2,2.93l-1.26-1.75c.91-1.12,2.51-3.23,3.43-4.58,0-.37.06-.75.08-1.13-.79.09-2,.25-2.92.38l-.21-2.05a13.22,13.22,0,0,0,1.4,0c.46,0,1.17-.12,1.85-.21,0-.61.07-1.06.07-1.24A8.9,8.9,0,0,0,424.75,479.52Z"/><path class="cls-5" d="M443.71,481.24c0,.17-.08.38-.12.61.89-.13,1.79-.31,2.67-.52v2a28.54,28.54,0,0,1-3.12.53c-.15.69-.31,1.39-.48,2.05a49.59,49.59,0,0,1-2.55,7.41l-2.22-.75a34.53,34.53,0,0,0,2.77-7.2c.11-.44.24-.88.33-1.35l-1.05,0c-.77,0-1.38,0-1.94-.06l-.05-2a15.22,15.22,0,0,0,2,.13c.46,0,.94,0,1.44-.05.06-.35.11-.66.14-.91a7.68,7.68,0,0,0,.05-1.62l2.45.19C443.92,480.17,443.78,480.88,443.71,481.24Zm1.93,8.69c0,.7.48,1.23,2.19,1.23a19.65,19.65,0,0,0,3.33-.33l-.08,2a24.32,24.32,0,0,1-3.27.23c-2.69,0-4.14-.93-4.14-2.55a11.05,11.05,0,0,1,.29-2.14l1.9.19A5.41,5.41,0,0,0,445.64,489.93Zm2.43-5.52c.91,0,1.87,0,2.82.14l-.05,1.92a24.94,24.94,0,0,0-2.76-.19,27.82,27.82,0,0,0-3.08.16v-1.87C445.89,484.49,447,484.41,448.07,484.41Z"/><path class="cls-5" d="M337.25,505.89v3a39.76,39.76,0,0,0,5.54-1.78,10.36,10.36,0,0,0,1.74-.86l.87,2c-.63.26-1.35.56-1.88.75a56.39,56.39,0,0,1-6.27,2v3c0,.69.32.86,1,1a16,16,0,0,0,1.86.09,27.35,27.35,0,0,0,5.57-.56v2.34a46.42,46.42,0,0,1-5.7.33,18.22,18.22,0,0,1-2.69-.17,2.31,2.31,0,0,1-2.19-2.4v-8.73a13.24,13.24,0,0,0-.13-1.66h2.37A12.07,12.07,0,0,0,337.25,505.89Zm8.31-.16-1.3.55a19.71,19.71,0,0,0-1.25-2.23l1.27-.51C344.68,504.13,345.25,505.14,345.56,505.73Zm1.9-.73-1.26.54a17.52,17.52,0,0,0-1.3-2.21l1.27-.51A17.48,17.48,0,0,1,347.46,505Z"/><path class="cls-5" d="M354.39,509.82l-1.17,1.79c-.91-.64-2.58-1.71-3.65-2.29l1.15-1.76A41.22,41.22,0,0,1,354.39,509.82Zm1.28,3.64a16.14,16.14,0,0,0,6.22-6l1.24,2.18a19.43,19.43,0,0,1-6.36,5.76,20.33,20.33,0,0,1-5.35,2l-1.2-2.1A17.07,17.07,0,0,0,355.67,513.46Zm1.16-7.26L355.65,508c-.9-.63-2.56-1.7-3.62-2.29l1.16-1.76C354.24,504.49,356,505.61,356.83,506.2Zm4.78.49-1.4.6a14.1,14.1,0,0,0-1.41-2.52l1.35-.56A27.8,27.8,0,0,1,361.61,506.69Zm2.24-.86-1.36.61A16.15,16.15,0,0,0,361,504l1.36-.56A20.46,20.46,0,0,1,363.85,505.83Z"/><path class="cls-5" d="M373.6,504.9v.83h1.92a4.49,4.49,0,0,0,1.33-.16l1.33,1.3c-.41.4-.89.94-1.25,1.33a23.71,23.71,0,0,1-3.36,3.14c0,1.28,0,3,0,4,0,.64.06,1.55.11,2h-2.31a17.11,17.11,0,0,0,.13-2v-2.74a27.64,27.64,0,0,1-4.91,2l-1.24-1.89a20.06,20.06,0,0,0,6.54-2.67,10.41,10.41,0,0,0,2.68-2.39h-5.79c-.58,0-1.59,0-2.08.07v-2.1a14.47,14.47,0,0,0,2.05.11h2.77v-.83a11,11,0,0,0-.1-1.47h2.29A12.59,12.59,0,0,0,373.6,504.9Zm1,7.32,1.33-1.54a36,36,0,0,1,3.84,2.32l-1.34,1.76A25.37,25.37,0,0,0,374.58,512.22Z"/><path class="cls-5" d="M393.25,506.65a23.65,23.65,0,0,1-2.51,4.4,44.73,44.73,0,0,1,4.47,4.58l-1.83,1.58a37.09,37.09,0,0,0-4-4.53,21.23,21.23,0,0,1-6,4.5l-1.65-1.73a17.87,17.87,0,0,0,6.56-4.59,12.31,12.31,0,0,0,2.39-3.93H385.2c-.67,0-1.55.1-1.89.12v-2.28a16.56,16.56,0,0,0,1.89.11h5.65a5.87,5.87,0,0,0,1.65-.2l1.31,1A10.29,10.29,0,0,0,393.25,506.65Z"/><path class="cls-5" d="M400.77,504.82h7.7a11.6,11.6,0,0,0,1.44-.08v2c-.42,0-.87-.05-1.44-.05h-3.76v2.73h4.83c.34,0,1.14,0,1.55-.07l0,2c-.45,0-1.17,0-1.52,0h-4.88v2.45c0,.88.54,1.2,1.82,1.2a41.21,41.21,0,0,0,4.13-.22l-.14,2.16c-1,.06-2.85.13-4.36.13-2.93,0-3.65-1-3.65-2.63v-3.09h-2.6c-.47,0-1.27,0-1.75.08v-2.1c.45,0,1.25.09,1.75.09h2.6v-2.73h-1.74c-.58,0-1.09,0-1.55.05v-2C399.68,504.77,400.19,504.82,400.77,504.82Z"/><path class="cls-5" d="M415.15,508.61h10.49a12.79,12.79,0,0,0,1.45-.09v2.08c-.4,0-1-.05-1.45-.05h-3.86a10.22,10.22,0,0,1-1,4.12,7.53,7.53,0,0,1-3.21,3.07l-1.87-1.36a6.57,6.57,0,0,0,2.89-2.29,6.79,6.79,0,0,0,1-3.54h-4.4c-.46,0-1.09,0-1.53.07v-2.1A13,13,0,0,0,415.15,508.61Zm2-4.06h5.23a12.71,12.71,0,0,0,1.73-.13v2.07c-.55,0-1.17-.05-1.73-.05h-5.23c-.55,0-1.24,0-1.72.05v-2.07A12.1,12.1,0,0,0,417.19,504.55Zm9.18,1-1.28.56a19.61,19.61,0,0,0-1.26-2.23l1.28-.52A24.56,24.56,0,0,1,426.37,505.51Zm1.92-.74-1.28.56a17.38,17.38,0,0,0-1.28-2.21l1.27-.52A23.26,23.26,0,0,1,428.29,504.77Z"/><path class="cls-5" d="M431.83,512.09a28.08,28.08,0,0,0,.46-6.34,6.4,6.4,0,0,0-.14-1.47h2.35a9.93,9.93,0,0,0-.11,1.45,35.57,35.57,0,0,1-.48,6.89,9.43,9.43,0,0,1-2.85,4.59l-2-1.3A7.55,7.55,0,0,0,431.83,512.09Zm4.81,2.88v-9.33a6.76,6.76,0,0,0-.13-1.38h2.39a7.78,7.78,0,0,0-.11,1.39V514a10.15,10.15,0,0,0,3.95-3.37l1.23,1.76a17.48,17.48,0,0,1-5.42,4.37,3.23,3.23,0,0,0-.69.48l-1.35-1.11A5.59,5.59,0,0,0,436.64,515Z"/><path class="cls-5" d="M453.2,517.26l-1.2-1.91a12.73,12.73,0,0,0,1.49-.25,4.35,4.35,0,0,0,3.65-4.29,4,4,0,0,0-3.36-4.23,32.27,32.27,0,0,1-1,4.34c-1,3.23-2.34,5.22-4.08,5.22s-3.25-2-3.25-4.66a7.11,7.11,0,0,1,7.34-6.85,6.1,6.1,0,0,1,6.47,6.24C459.3,514.25,457.24,516.63,453.2,517.26Zm-4.4-3.59c.67,0,1.3-1,1.95-3.17a23,23,0,0,0,.85-3.87,5,5,0,0,0-4.06,4.64C447.54,512.89,448.18,513.67,448.8,513.67Z"/><path class="cls-5" d="M475.19,514.07a18.41,18.41,0,0,1-2.08,1.27,8.84,8.84,0,0,0,2.82,1,6.26,6.26,0,0,0-1.12,1.56,8,8,0,0,1-4.25-2.43l.07,1.3c-2.08.33-4.31.64-6,.89L464.4,516l1.63-.2V513.3h-1.64v-1.6h2.44v-1.08h-2V509h2V508H464.5v.39c0,2.8-.26,7-1.94,9.59a7.92,7.92,0,0,0-1.7-1c1.59-2.47,1.72-6.07,1.72-8.61v-4.72H474.9V508h-2.18V509H475v1.59h-2.31v1.08h3v1.6h-1.68Zm-10.69-7.71H473v-1.12H464.5Zm3.28,9.17c.81-.11,1.68-.22,2.53-.35a8.28,8.28,0,0,1-1.12-1.88h-1.41Zm.8-6.5H471V508h-2.38Zm0,2.67H471v-1.08h-2.38Zm2.4,1.6a5.84,5.84,0,0,0,.88,1.09,15.92,15.92,0,0,0,1.63-1.09Z"/><path class="cls-5" d="M479.62,509.22v8.68h-1.86V503.56h6.16v5.66Zm0-4.3v.81h2.51v-.81Zm2.51,2.93V507h-2.51v.87Zm4.69,6.45v3.29h-1.66V514.3h-1.54a5.22,5.22,0,0,1-2.05,3.58,7.53,7.53,0,0,0-1.22-1.09A3.74,3.74,0,0,0,482,514.3h-1.62v-1.56h1.68v-1.2h-1.46V510h7.73v1.5h-1.5v1.2h1.76v1.56Zm-1.66-1.56v-1.2h-1.49v1.2Zm6.09,2.93c0,1-.17,1.51-.75,1.81a5.66,5.66,0,0,1-2.62.37,6.88,6.88,0,0,0-.58-1.89c.72,0,1.5,0,1.74,0s.34-.1.34-.32v-6.41H485v-5.69h6.27Zm-4.46-10.75v.81h2.59v-.81Zm2.59,3V507h-2.59v.9Z"/><polygon class="cls-6" points="212.31 430.38 237.7 487.95 274.87 437.17 212.31 430.38"/><path class="cls-7" d="M663.62,196.86a51.69,51.69,0,0,0-51.69,51.69s-3.16,34.66,27.59,50.77"/><path class="cls-7" d="M663.62,300.24c28.55,0,51.69-21,51.69-51.69,0,0,1.65-28.87-25.84-49.84"/><polygon class="cls-8" points="642.81 299.32 684.43 323.35 684.43 275.29 642.81 299.32"/><polygon class="cls-8" points="684.43 198.71 642.81 174.68 642.81 222.74 684.43 198.71"/><path class="cls-7" d="M167.62,196.86a51.69,51.69,0,0,0-51.69,51.69s-3.16,34.66,27.59,50.77"/><path class="cls-7" d="M167.62,300.24c28.55,0,51.69-21,51.69-51.69,0,0,.41-29.51-25.84-49.84"/><polygon class="cls-8" points="146.81 299.32 188.44 323.35 188.44 275.29 146.81 299.32"/><polygon class="cls-8" points="188.44 198.71 146.81 174.68 146.81 222.74 188.44 198.71"/><path d="M738.32,239.5a14.32,14.32,0,0,1-2.1,5.1,11.22,11.22,0,0,1-5.63,3.87l-1.53-1.67a9.37,9.37,0,0,0,5.5-3.29,8.86,8.86,0,0,0,1.63-3.95h-6.52c-.63,0-1.31,0-1.67.06v-2c.42,0,1.22.11,1.68.11h6.47a4.62,4.62,0,0,0,1.11-.11l1.37.88A5.86,5.86,0,0,0,738.32,239.5Z"/><path d="M746.69,241.86a14.59,14.59,0,0,0,3.49-3l1.39,1.36a18.41,18.41,0,0,1-3.14,2.55v4.8a7.31,7.31,0,0,0,.1,1.51h-2.08c0-.28.07-1,.07-1.51v-3.7a28.8,28.8,0,0,1-4,1.64l-.82-1.65A18.39,18.39,0,0,0,746.69,241.86Z"/><path d="M757.72,241.45h7.53c.65,0,1.27-.06,1.63-.08v2.2c-.33,0-1-.07-1.63-.07h-7.53c-.8,0-1.73,0-2.25.07v-2.2C756,241.41,757,241.45,757.72,241.45Z"/><path d="M772.14,238.66A9.64,9.64,0,0,0,772,237h2.19a14.18,14.18,0,0,0-.13,1.69v2.05a49.16,49.16,0,0,1,5.86,2.18l-.79,2a37.59,37.59,0,0,0-5.07-2.09v4c0,.39.07,1.37.14,1.94H772a14.07,14.07,0,0,0,.14-1.94Zm6.87.89-1.22.54a12.91,12.91,0,0,0-1.23-2.17l1.17-.49C778.12,238,778.68,238.92,779,239.55Zm1.87-.82-1.17.58a12.78,12.78,0,0,0-1.31-2.1l1.17-.55A19.06,19.06,0,0,1,780.88,238.73Z"/><path d="M786.2,238.17l2,.42c-.12.41-.28,1.1-.33,1.4a33.22,33.22,0,0,1-1.19,4.22,19.17,19.17,0,0,1-2.08,4l-2-.83a16.82,16.82,0,0,0,2.19-3.89A20.32,20.32,0,0,0,786.2,238.17Zm3.56.42,1.86-.6c.57,1.08,1.54,3.24,2.07,4.6s1.24,3.5,1.63,4.88l-2.07.68a44.7,44.7,0,0,0-1.46-5A40.8,40.8,0,0,0,789.76,238.59Zm4.45,0-1.12.49a16.85,16.85,0,0,0-1.09-1.94l1.1-.47A19,19,0,0,1,794.21,238.59Zm1.68-.64-1.12.47a14,14,0,0,0-1.12-1.91l1.11-.47C795.12,236.58,795.64,237.46,795.89,238Z"/><path d="M801.31,243.47l-1.71.64a27.85,27.85,0,0,0-1.28-3.23l1.68-.61C800.35,241,801,242.68,801.31,243.47Zm6.77-1.89a11.25,11.25,0,0,1-1.9,4.1,10.86,10.86,0,0,1-4.69,3.47L800,247.66a9.47,9.47,0,0,0,4.65-2.93,9.64,9.64,0,0,0,1.79-4.81l2,.63C808.25,241,808.17,241.3,808.08,241.58Zm-3.68,1-1.68.59a23.49,23.49,0,0,0-1.13-3.11l1.66-.55C803.52,240.13,804.21,242,804.4,242.6Z"/><path d="M817.35,238.35a.43.43,0,0,1,0,.07h2.81a4.81,4.81,0,0,0,1.22-.16l1.43.88a5.91,5.91,0,0,0-.46,1,14.77,14.77,0,0,1-2.44,4.68,13.11,13.11,0,0,1-5.66,3.95l-1.65-1.49a11.14,11.14,0,0,0,5.65-3.46,9.88,9.88,0,0,0,2-3.82h-3.93a16.06,16.06,0,0,1-3.53,3.39l-1.57-1.17a12.23,12.23,0,0,0,4.37-4.51,6.85,6.85,0,0,0,.63-1.47l2.05.68C817.88,237.42,817.52,238.05,817.35,238.35Z"/><path d="M10.32,239.5a14.32,14.32,0,0,1-2.1,5.1,11.22,11.22,0,0,1-5.63,3.87L1.06,246.8a9.37,9.37,0,0,0,5.5-3.29,8.86,8.86,0,0,0,1.63-3.95H1.67c-.63,0-1.31,0-1.67.06v-2c.42,0,1.22.11,1.68.11H8.15a4.62,4.62,0,0,0,1.11-.11l1.37.88A5.86,5.86,0,0,0,10.32,239.5Z"/><path d="M18.69,241.86a14.59,14.59,0,0,0,3.49-3l1.39,1.36a18.41,18.41,0,0,1-3.14,2.55v4.8a7.31,7.31,0,0,0,.1,1.51H18.45c0-.28.07-1,.07-1.51v-3.7a28.8,28.8,0,0,1-4,1.64l-.82-1.65A18.39,18.39,0,0,0,18.69,241.86Z"/><path d="M29.72,241.45h7.53c.65,0,1.27-.06,1.63-.08v2.2c-.33,0-1.05-.07-1.63-.07H29.72c-.8,0-1.73,0-2.25.07v-2.2C28,241.41,29,241.45,29.72,241.45Z"/><path d="M44.14,238.66A9.64,9.64,0,0,0,44,237h2.19a14.18,14.18,0,0,0-.13,1.69v2.05a49.16,49.16,0,0,1,5.86,2.18l-.79,2a37.59,37.59,0,0,0-5.07-2.09v4c0,.39.07,1.37.14,1.94H44a14.07,14.07,0,0,0,.14-1.94Zm6.87.89-1.22.54a12.91,12.91,0,0,0-1.23-2.17l1.17-.49C50.12,238,50.68,238.92,51,239.55Zm1.87-.82-1.17.58a12.78,12.78,0,0,0-1.31-2.1l1.17-.55A19.06,19.06,0,0,1,52.88,238.73Z"/><path d="M58.2,238.17l2,.42c-.12.41-.28,1.1-.33,1.4a33.22,33.22,0,0,1-1.19,4.22,19.17,19.17,0,0,1-2.08,4l-2-.83a16.82,16.82,0,0,0,2.19-3.89A20.32,20.32,0,0,0,58.2,238.17Zm3.56.42,1.86-.6c.57,1.08,1.54,3.24,2.07,4.6s1.24,3.5,1.63,4.88l-2.07.68a44.7,44.7,0,0,0-1.46-5A40.8,40.8,0,0,0,61.76,238.59Zm4.45,0-1.12.49A16.85,16.85,0,0,0,64,237.14l1.1-.47A19,19,0,0,1,66.21,238.59Zm1.68-.64-1.12.47a14,14,0,0,0-1.12-1.91l1.11-.47C67.12,236.58,67.64,237.46,67.89,238Z"/><path d="M73.31,243.47l-1.71.64a27.85,27.85,0,0,0-1.28-3.23l1.68-.61C72.35,241,73,242.68,73.31,243.47Zm6.77-1.89a11.25,11.25,0,0,1-1.9,4.1,10.86,10.86,0,0,1-4.69,3.47L72,247.66a9.47,9.47,0,0,0,4.65-2.93,9.64,9.64,0,0,0,1.79-4.81l2,.63C80.25,241,80.17,241.3,80.08,241.58Zm-3.68,1-1.68.59a23.49,23.49,0,0,0-1.13-3.11l1.66-.55C75.52,240.13,76.21,242,76.4,242.6Z"/><path d="M89.35,238.35a.43.43,0,0,1,0,.07h2.81a4.81,4.81,0,0,0,1.22-.16l1.43.88a5.91,5.91,0,0,0-.46,1,14.77,14.77,0,0,1-2.44,4.68,13.11,13.11,0,0,1-5.66,3.95l-1.65-1.49a11.14,11.14,0,0,0,5.65-3.46,9.88,9.88,0,0,0,2-3.82H88.26a16.06,16.06,0,0,1-3.53,3.39l-1.57-1.17a12.23,12.23,0,0,0,4.37-4.51,6.85,6.85,0,0,0,.63-1.47l2,.68C89.88,237.42,89.52,238.05,89.35,238.35Z"/><path d="M144.29,467.56c.51.35,1.67,1.28,2,1.53l-1,1.19a13.43,13.43,0,0,0-1-1.09v3h-1.61v-2.81a9.56,9.56,0,0,1-1.78,2,6,6,0,0,0-1.07-1.17,9.4,9.4,0,0,0,2.52-2.71h-2.13v-1.4h2.46V465h-2.5V463.6h1.28a6.11,6.11,0,0,0-.42-1.54l.86-.2h-1.57V460.5h2.35v-1.27h1.61v1.27h2.33v1.36h-1.44l.81.16c-.25.6-.48,1.16-.67,1.58h1.41V465h-2.44v1.08h2.32v1.4h-2.32Zm-1.93-5.7a5.65,5.65,0,0,1,.48,1.54l-.7.2h2.74l-.92-.2a11.59,11.59,0,0,0,.52-1.54Zm10.73,3.41h-1.33v6.85h-1.61v-6.85h-1.43c0,2.08-.31,5-2.16,7a3.81,3.81,0,0,0-1.19-1.14c1.61-1.71,1.78-4.09,1.78-6v-4.85l1,.27a16.41,16.41,0,0,0,3.57-1.23l1.33,1.22a22.52,22.52,0,0,1-4.3,1.28v2h4.37Z"/><path d="M159.91,461.12c0,.15-.08.34-.12.53a23,23,0,0,0,2.34-.45V463a26.75,26.75,0,0,1-2.73.46c-.13.6-.27,1.22-.42,1.79a42.65,42.65,0,0,1-2.23,6.49l-1.94-.66a30.3,30.3,0,0,0,2.42-6.31c.1-.37.21-.77.29-1.17l-.92,0c-.67,0-1.21,0-1.7-.06l0-1.75a14.69,14.69,0,0,0,1.77.11c.4,0,.82,0,1.26,0,.05-.31.1-.58.12-.8a7.08,7.08,0,0,0,.05-1.41l2.14.16C160.09,460.18,160,460.81,159.91,461.12Zm1.68,7.61c0,.61.42,1.07,1.91,1.07a16.69,16.69,0,0,0,2.92-.29l-.07,1.79a22.18,22.18,0,0,1-2.86.2c-2.35,0-3.63-.81-3.63-2.23a9.17,9.17,0,0,1,.26-1.87l1.66.16A5,5,0,0,0,161.59,468.73Zm2.12-4.84c.8,0,1.64.05,2.47.13l0,1.68a21.51,21.51,0,0,0-2.41-.17,23.56,23.56,0,0,0-2.7.14V464C161.81,464,162.82,463.89,163.71,463.89Z"/><path d="M173.67,461.62a18.32,18.32,0,0,0,1.89-.44l.05,1.62a23.42,23.42,0,0,1-2.45.49,26.08,26.08,0,0,1-3,6l-1.7-.87a22.13,22.13,0,0,0,2.86-4.95c-.25,0-.49,0-.73,0-.58,0-1.15,0-1.75-.06l-.13-1.62a17.62,17.62,0,0,0,1.86.09c.43,0,.85,0,1.28,0a11.63,11.63,0,0,0,.38-2.34l1.93.2C174.06,460.15,173.88,460.87,173.67,461.62Zm3.78,4.23c0,.41.05,1.08.08,1.78a9,9,0,0,1,2.9,1.8l-.94,1.5a11.65,11.65,0,0,0-1.89-1.5v.14c0,1.3-.71,2.31-2.7,2.31-1.74,0-3.11-.77-3.11-2.31,0-1.38,1.15-2.43,3.1-2.43.33,0,.64,0,1,.06,0-1-.12-2.28-.15-3.14h1.75A17.81,17.81,0,0,0,177.45,465.85Zm-2.8,4.42c1,0,1.26-.54,1.26-1.31v-.28a5.31,5.31,0,0,0-1.14-.14c-.81,0-1.33.37-1.33.86S173.88,470.27,174.65,470.27Zm1.85-7.45.89-1.39a24.21,24.21,0,0,1,3.46,1.9l-1,1.47A20.17,20.17,0,0,0,176.5,462.82Z"/><path d="M186.31,459.62a25.25,25.25,0,0,1-1.26,2.76v9.81h-1.57v-7.32a10.12,10.12,0,0,1-.86,1,12.06,12.06,0,0,0-.85-1.68,14.69,14.69,0,0,0,3-5.08Zm6.15,2.35v1.76h2.37v8.08h-1.6v-.72h-5.55v.8h-1.54v-8.16h2.26V462H186v-1.48h8.89V462Zm-4.78,7.7h.87v-4.5h-.87Zm2.27-4.5v4.5h.94v-4.5Zm.94-3.2H190v1.76h.93Zm2.34,3.2h-.94v4.5h.94Z"/><path d="M200.49,459.66a22.77,22.77,0,0,1-1.34,2.89v9.62h-1.59V465a12.11,12.11,0,0,1-.95,1.12,10.36,10.36,0,0,0-.88-1.72,15,15,0,0,0,3.18-5.25Zm8.53,11.9h-7.14v.63h-1.54V463.4h1.54v6.73H209Zm-5-9c0-.24.06-.5.09-.77h-3.49v-1.43h3.6c0-.43.05-.87.07-1.26l1.67.07c0,.38-.08.79-.12,1.19h3.06v1.43h-3.21c0,.27-.07.53-.11.77h2.74v6.81h-5.64v-6.81Zm2.69,1.21h-2.49v.71h2.49Zm0,1.83h-2.49v.71h2.49Zm0,1.84h-2.49v.72h2.49Z"/><path d="M212.75,463v-.54a13.29,13.29,0,0,1-1.24,1h5.6v4.35h-4.53a5.43,5.43,0,0,1-.09.56h4.83v3.77h-1.44v-.39h-2.37v.43h-1.4v-2.31a6.6,6.6,0,0,1-1.08,2.05,5.42,5.42,0,0,0-1.09-1,9,9,0,0,0,1.38-5.43v-1.91l-.46.31a4.86,4.86,0,0,0-1-1.18,9.66,9.66,0,0,0,3.51-3.41h1.49a27.56,27.56,0,0,1,2.93,2.52L216.73,463c-.19-.22-.45-.5-.74-.81V463Zm2.86,3.68v-.53h-2.88c0,.17,0,.35,0,.53Zm-2.87-2v.5h2.87v-.5Zm2.86-2.78c-.41-.39-.84-.79-1.25-1.12a14,14,0,0,1-1,1.12Zm-2.09,7.72v1h2.37v-1Zm6-.85h-1.56v-7.89h1.56Zm3.11-9.3v10.81c0,.93-.18,1.39-.74,1.64a6.16,6.16,0,0,1-2.6.34,6.73,6.73,0,0,0-.55-1.7c.84,0,1.65,0,1.92,0s.35-.08.35-.32V459.4Z"/><path d="M227.45,469c.58.94,1.63,1.32,3.09,1.37,1.63.07,4.79,0,6.65-.11a8.67,8.67,0,0,0-.52,1.68c-1.68.09-4.5.11-6.16,0a4.65,4.65,0,0,1-3.78-1.55c-.62.55-1.24,1.09-2,1.68l-.81-1.74a18.44,18.44,0,0,0,1.92-1.29v-2.95h-1.61v-1.53h3.23Zm-1-6.29a10.58,10.58,0,0,0-2.26-2.21l1.23-1a11.34,11.34,0,0,1,2.34,2.11Zm2.45.63a10.52,10.52,0,0,0-1.39-.78,7.7,7.7,0,0,0,2-3.25l1.56.35a11.11,11.11,0,0,1-.44,1.08h1v-1.56h1.65v1.56h3.06v1.41h-3.06v1.19h3.63v1.39h-9v-1.39Zm.95-1.19a7.77,7.77,0,0,1-.92,1.19h2.67V462.1Zm-.85,7.42v-4.07h7v4.07Zm1.62-1.33h3.69v-1.42h-3.69Z"/></g></g></svg>